<?xml version="1.0" encoding="UTF-8"?>
<svg xmlns="http://www.w3.org/2000/svg" xmlns:xlink="http://www.w3.org/1999/xlink" width="512" height="512" viewBox="0 0 60 60" version="1.1"><!-- Generator: Sketch 51.3 (57544) - http://www.bohemiancoding.com/sketch --><title>008 - Delivery Insurance</title><desc>Created with Sketch.</desc><defs/><g id="Page-1" stroke="none" stroke-width="1" fill="none" fill-rule="evenodd"><g id="008---Delivery-Insurance" fill-rule="nonzero"><path d="M45,36 L45,57 C44.9967052,58.1032019 44.1032019,58.9967052 43,59 L3,59 C1.89679813,58.9967052 1.0032948,58.1032019 1,57 L1,17 C1.0032948,15.8967981 1.89679813,15.0032948 3,15 L31,15 L45,36 Z" id="Shape" fill="#CAD9FC"/><path d="M42,36 L42,57 C41.9967052,58.1032019 41.1032019,58.9967052 40,59 L3,59 C1.89679813,58.9967052 1.0032948,58.1032019 1,57 L1,17 C1.0032948,15.8967981 1.89679813,15.0032948 3,15 L42,15 L42,36 Z" id="Shape" fill="#E8EDFC"/><path d="M29.553,30.276 L23.447,27.224 C23.1655892,27.0833786 22.8344108,27.0833786 22.553,27.224 L16.447,30.276 C16.1370975,30.4308588 15.7691208,30.4142854 15.4743943,30.2321945 C15.1796678,30.0501037 15.000185,29.7284401 15,29.382 L15,15 L31,15 L31,29.382 C30.999815,29.7284401 30.8203322,30.0501037 30.5256057,30.2321945 C30.2308792,30.4142854 29.8629025,30.4308588 29.553,30.276 Z" id="Shape" fill="#A4C2F7"/><rect id="Rectangle-path" fill="#FFFFFF" x="9" y="36" width="28" height="18" rx="1"/><path d="M59,7.33 L59,21.46 C58.9949804,24.4268418 57.5525697,27.2073028 55.13,28.92 L45.29,35.93 C45.115307,36.0500632 44.884693,36.0500632 44.71,35.93 L43.5,35.07 L34.87,28.92 C32.4474303,27.2073028 31.0050196,24.4268418 31,21.46 L31,7.33 C31.0005992,7.1309412 31.118079,6.95080551 31.3,6.87 L43.5,1.6 L44.8,1.04 C44.9286443,0.989991901 45.0713557,0.989991901 45.2,1.04 L58.7,6.87 C58.881921,6.95080551 58.9994008,7.1309412 59,7.33 Z" id="Shape" fill="#E8EDFC"/><path d="M56,7.33 L56,21.46 C55.9949804,24.4268418 54.5525697,27.2073028 52.13,28.92 L43.5,35.07 L34.87,28.92 C32.4474303,27.2073028 31.0050196,24.4268418 31,21.46 L31,7.33 C31.0005992,7.1309412 31.118079,6.95080551 31.3,6.87 L43.5,1.6 L55.7,6.87 C55.881921,6.95080551 55.9994008,7.1309412 56,7.33 Z" id="Shape" fill="#FFFFFF"/><path d="M37.188,25.664 C35.8239601,24.6992838 35.0092071,23.1356877 35,21.465 L35,9.633 L45,5.313 L55,9.633 L55,21.465 C54.991115,23.1360413 54.1763259,24.7000788 52.812,25.665 L45,31.225 L37.188,25.664 Z" id="Shape" fill="#955BA5"/><path d="M37.188,25.664 C35.8239601,24.6992838 35.0092071,23.1356877 35,21.465 L35,9.633 L45,5.313 L55,9.633 L55,21.465 C54.991115,23.1360413 54.1763259,24.7000788 52.812,25.665 L45,31.225 L37.188,25.664 Z" id="Shape" fill="#A4C2F7"/><path d="M3,59 L6,59 C4.89679813,58.9967052 4.0032948,58.1032019 4,57 L4,17 C4.0032948,15.8967981 4.89679813,15.0032948 6,15 L3,15 C1.89679813,15.0032948 1.0032948,15.8967981 1,17 L1,57 C1.0032948,58.1032019 1.89679813,58.9967052 3,59 Z" id="Shape" fill="#FFFFFF"/><path d="M45,37 C44.6289221,37.0003112 44.2670352,36.8845773 43.965,36.669 L34.289,29.781 C31.6077945,27.8777289 30.0104682,24.797038 30,21.509 L30,7.047 C29.999409,6.64883898 30.2350788,6.28826415 30.6,6.129 L44.6,0.082 C44.8525505,-0.0279576698 45.1394495,-0.0279576698 45.392,0.082 L59.392,6.129 C59.7569212,6.28826415 59.992591,6.64883898 59.992,7.047 L59.992,21.509 C59.9815318,24.797038 58.3842055,27.8777289 55.703,29.781 L46.027,36.669 C45.7271893,36.8829945 45.3683453,36.9986492 45,37 Z M32,7.705 L32,21.505 C32.0097266,24.1463069 33.2942465,26.6203764 35.449,28.148 L45,34.951 L54.551,28.151 C56.705467,26.6235813 57.989951,24.1499534 58,21.509 L58,7.705 L45,2.089 L32,7.705 Z" id="Shape" fill="#428DFF"/><path d="M45,32.269 C44.792029,32.26882 44.5892884,32.2038032 44.42,32.083 L36.608,26.522 C34.980878,25.3695623 34.0097397,23.5028766 34,21.509 L34,9.677 C33.999409,9.27883898 34.2350788,8.91826415 34.6,8.759 L44.6,4.439 C44.8527492,4.33000068 45.1392508,4.33000068 45.392,4.439 L55.392,8.759 C55.7569212,8.91826415 55.992591,9.27883898 55.992,9.677 L55.992,21.509 C55.9824167,23.5031892 55.0112795,25.3702451 53.384,26.523 L45.572,32.083 C45.404939,32.2022308 45.2052365,32.2671691 45,32.269 Z M37.769,24.894 L45,30.042 L52.231,24.894 C53.3323369,24.117224 53.9910962,22.8566812 54,21.509 L54,10.334 L45,6.446 L36,10.334 L36,21.509 C36.0087381,22.8567225 36.6675346,24.1173365 37.769,24.894 Z" id="Shape" fill="#428DFF"/><path d="M43,24 C42.7836298,24 42.5730962,23.9298221 42.4,23.8 L38.4,20.8 C38.1141875,20.5856406 37.9644453,20.2350853 38.0071797,19.8803848 C38.0499141,19.5256842 38.2786328,19.2207259 38.6071797,19.0803848 C38.9357266,18.9400436 39.3141875,18.9856406 39.6,19.2 L42.824,21.618 L50.224,12.375 C50.5700579,11.9477006 51.1961792,11.8799554 51.6256245,12.2233466 C52.0550699,12.5667379 52.1267114,13.1924254 51.786,13.624 L43.786,23.624 C43.5952448,23.8628859 43.3056993,24.0013962 43,24 Z" id="Shape" fill="#428DFF"/><polygon id="Shape" fill="#FFFFFF" points="2 17 2 30 2 57 0 57 0 30 0 17"/><path d="M1,22 C1.55228475,22 2,21.5522847 2,21 L2,17 L0,17 L0,21 C6.76353751e-17,21.5522847 0.44771525,22 1,22 Z" id="Shape" fill="#428DFF"/><path d="M0,57 L2,57 L2,29 C2,28.4477153 1.55228475,28 1,28 C0.44771525,28 6.76353751e-17,28.4477153 0,29 L0,57 Z" id="Shape" fill="#428DFF"/><path d="M2,25 C1.99611961,24.7352731 1.89256504,24.481743 1.71,24.29 L1.56,24.17 C1.50427287,24.1321227 1.44373808,24.1018554 1.38,24.08 C1.32333758,24.0511123 1.26266255,24.0308873 1.2,24.02 C1.13385548,24.0088692 1.06703885,24.0021875 1,24 C0.735273141,24.0038804 0.481742984,24.107435 0.29,24.29 C0.199603156,24.3856071 0.12832305,24.4976187 0.08,24.62 C-0.0708765757,24.9929737 0.0113519394,25.4197788 0.29,25.71 C0.385607086,25.8003968 0.497618681,25.871677 0.62,25.92 C0.740222313,25.971241 0.869322743,25.99842 1,26 C1.26472686,25.9961196 1.51825702,25.892565 1.71,25.71 C1.89256504,25.518257 1.99611961,25.2647269 2,25 Z" id="Shape" fill="#428DFF"/><path d="M1,18 C0.44771525,18 6.76353751e-17,17.5522847 0,17 C-2.02906125e-16,15.3431458 1.34314575,14 3,14 L31,14 C31.5522847,14 32,14.4477153 32,15 C32,15.5522847 31.5522847,16 31,16 L3,16 C2.44771525,16 2,16.4477153 2,17 C2,17.5522847 1.55228475,18 1,18 Z" id="Shape" fill="#428DFF"/><path d="M43,60 L3,60 C1.34314575,60 2.02906125e-16,58.6568542 0,57 C-6.76353751e-17,56.4477153 0.44771525,56 1,56 C1.55228475,56 2,56.4477153 2,57 C2,57.5522847 2.44771525,58 3,58 L43,58 C43.5522847,58 44,57.5522847 44,57 L44,36 C44,35.4477153 44.4477153,35 45,35 C45.5522847,35 46,35.4477153 46,36 L46,57 C46,58.6568542 44.6568542,60 43,60 Z" id="Shape" fill="#428DFF"/><path d="M31,32 C30.8448727,32.0001447 30.6918389,31.9641972 30.553,31.895 L23,28.118 L15.447,31.9 C15.1361412,32.0553431 14.7669236,32.0381628 14.4718336,31.8546237 C14.1767435,31.6710847 13.9980979,31.3475069 14,31 L14,15 C14,14.4477153 14.4477153,14 15,14 L31,14 C31.5522847,14 32,14.4477153 32,15 L32,31 C32,31.5522847 31.5522847,32 31,32 Z M23,26 C23.1551273,25.9998553 23.3081611,26.0358028 23.447,26.105 L30,29.382 L30,16 L16,16 L16,29.382 L22.553,26.105 C22.6918389,26.0358028 22.8448727,25.9998553 23,26 Z" id="Shape" fill="#428DFF"/><path d="M36,55 L10,55 C8.8954305,55 8,54.1045695 8,53 L8,37 C8,35.8954305 8.8954305,35 10,35 L36,35 C37.1045695,35 38,35.8954305 38,37 L38,53 C38,54.1045695 37.1045695,55 36,55 Z M10,37 L10,53 L36,53 L36,37 L10,37 Z" id="Shape" fill="#428DFF"/><path d="M33,42 L13,42 C12.4477153,42 12,41.5522847 12,41 C12,40.4477153 12.4477153,40 13,40 L33,40 C33.5522847,40 34,40.4477153 34,41 C34,41.5522847 33.5522847,42 33,42 Z" id="Shape" fill="#CAD9FC"/><path d="M33,46 L13,46 C12.4477153,46 12,45.5522847 12,45 C12,44.4477153 12.4477153,44 13,44 L33,44 C33.5522847,44 34,44.4477153 34,45 C34,45.5522847 33.5522847,46 33,46 Z" id="Shape" fill="#CAD9FC"/><path d="M33,50 L13,50 C12.4477153,50 12,49.5522847 12,49 C12,48.4477153 12.4477153,48 13,48 L33,48 C33.5522847,48 34,48.4477153 34,49 C34,49.5522847 33.5522847,50 33,50 Z" id="Shape" fill="#CAD9FC"/></g></g></svg>
