<svg height="512pt" viewBox="0 0 512 512" width="512pt" xmlns="http://www.w3.org/2000/svg"><path d="m486.398438 0h-460.796876c-14.140624 0-25.601562 11.460938-25.601562 25.601562v307.199219c0 14.136719 11.460938 25.597657 25.601562 25.597657h8.53125c4.714844 0 8.535157-3.820313 8.535157-8.53125 0-4.714844-3.820313-8.535157-8.535157-8.535157h-8.53125c-4.714843 0-8.535156-3.820312-8.535156-8.53125v-247.46875h477.867188v247.46875c0 4.710938-3.820313 8.53125-8.535156 8.53125h-8.53125c-4.714844 0-8.535157 3.820313-8.535157 8.535157 0 4.710937 3.820313 8.53125 8.535157 8.53125h8.53125c14.140624 0 25.601562-11.460938 25.601562-25.597657v-307.199219c0-14.140624-11.460938-25.601562-25.601562-25.601562zm-469.332032 68.265625v-42.664063c0-4.714843 3.820313-8.535156 8.535156-8.535156h460.796876c4.714843 0 8.535156 3.820313 8.535156 8.535156v42.664063zm0 0"/><path d="m85.332031 221.867188c-14.136719 0-25.597656 11.460937-25.597656 25.597656v238.933594c0 14.140624 11.460937 25.601562 25.597656 25.601562h341.335938c14.136719 0 25.597656-11.460938 25.597656-25.601562v-238.933594c0-14.136719-11.460937-25.597656-25.597656-25.597656zm341.335938 273.066406h-341.335938c-4.710937 0-8.53125-3.820313-8.53125-8.535156v-179.199219h358.398438v179.199219c0 4.714843-3.820313 8.535156-8.53125 8.535156zm8.53125-247.46875v42.667968h-358.398438v-42.667968c0-4.710938 3.820313-8.53125 8.53125-8.53125h341.335938c4.710937 0 8.53125 3.820312 8.53125 8.53125zm0 0"/><path d="m110.933594 264.535156c0 4.710938-3.820313 8.53125-8.535156 8.53125-4.710938 0-8.53125-3.820312-8.53125-8.53125 0-4.714844 3.820312-8.535156 8.53125-8.535156 4.714843 0 8.535156 3.820312 8.535156 8.535156zm0 0"/><path d="m145.066406 264.535156c0 4.710938-3.820312 8.53125-8.53125 8.53125-4.714844 0-8.535156-3.820312-8.535156-8.53125 0-4.714844 3.820312-8.535156 8.535156-8.535156 4.710938 0 8.53125 3.820312 8.53125 8.535156zm0 0"/><path d="m179.199219 264.535156c0 4.710938-3.820313 8.53125-8.53125 8.53125-4.714844 0-8.535157-3.820312-8.535157-8.53125 0-4.714844 3.820313-8.535156 8.535157-8.535156 4.710937 0 8.53125 3.820312 8.53125 8.535156zm0 0"/><path d="m51.199219 42.667969c0 4.710937-3.820313 8.53125-8.53125 8.53125-4.714844 0-8.535157-3.820313-8.535157-8.53125 0-4.714844 3.820313-8.535157 8.535157-8.535157 4.710937 0 8.53125 3.820313 8.53125 8.535157zm0 0"/><path d="m85.332031 42.667969c0 4.710937-3.820312 8.53125-8.53125 8.53125-4.714843 0-8.535156-3.820313-8.535156-8.53125 0-4.714844 3.820313-8.535157 8.535156-8.535157 4.710938 0 8.53125 3.820313 8.53125 8.535157zm0 0"/><path d="m119.464844 42.667969c0 4.710937-3.820313 8.53125-8.53125 8.53125-4.714844 0-8.535156-3.820313-8.535156-8.53125 0-4.714844 3.820312-8.535157 8.535156-8.535157 4.710937 0 8.53125 3.820313 8.53125 8.535157zm0 0"/><path d="m42.667969 119.464844h426.664062c4.714844 0 8.535157-3.820313 8.535157-8.53125 0-4.714844-3.820313-8.535156-8.535157-8.535156h-426.664062c-4.714844 0-8.535157 3.820312-8.535157 8.535156 0 4.710937 3.820313 8.53125 8.535157 8.53125zm0 0"/><path d="m42.667969 162.132812h426.664062c4.714844 0 8.535157-3.820312 8.535157-8.53125 0-4.714843-3.820313-8.535156-8.535157-8.535156h-426.664062c-4.714844 0-8.535157 3.820313-8.535157 8.535156 0 4.710938 3.820313 8.53125 8.535157 8.53125zm0 0"/><path d="m42.667969 204.800781h426.664062c4.714844 0 8.535157-3.820312 8.535157-8.535156 0-4.710937-3.820313-8.53125-8.535157-8.53125h-426.664062c-4.714844 0-8.535157 3.820313-8.535157 8.53125 0 4.714844 3.820313 8.535156 8.535157 8.535156zm0 0"/><path d="m297.097656 384.726562-65.84375-32.914062c-5.664062-2.84375-12.394531-2.546875-17.785156.78125s-8.671875 9.214844-8.667969 15.550781v65.84375c-.015625 6.339844 3.265625 12.234375 8.660157 15.5625 5.394531 3.332031 12.128906 3.621094 17.792968.769531l65.851563-32.914062c6.1875-3.09375 10.097656-9.417969 10.097656-16.339844s-3.910156-13.246094-10.097656-16.339844zm-7.628906 17.414063-65.894531 32.914063c-.359375.222656-.8125.222656-1.171875 0-.367188-.207032-.585938-.601563-.570313-1.023438v-65.886719c-.015625-.421875.203125-.816406.570313-1.023437.203125-.125.433594-.1875.667968-.1875.1875 0 .375.050781.539063.144531l65.859375 32.914063c.40625.203124.664062.621093.664062 1.074218 0 .457032-.257812.871094-.664062 1.074219zm0 0"/><path d="m391.800781 448 15.300781-15.300781c2-2 2.878907-4.867188 2.34375-7.644531-.535156-2.78125-2.414062-5.113282-5.015624-6.230469l-59.734376-25.601563c-2.980468-1.277344-6.425781-.753906-8.894531 1.347656-2.46875 2.105469-3.53125 5.425782-2.746093 8.570313l17.066406 68.265625c.742187 2.976562 3.023437 5.324219 5.976562 6.152344.75.207031 1.523438.308594 2.300782.308594 2.265624 0 4.433593-.898438 6.035156-2.5l15.300781-15.300782 15.300781 15.300782c3.347656 3.234374 8.667969 3.1875 11.960938-.105469 3.292968-3.289063 3.335937-8.613281.105468-11.960938zm-28.777343 4.640625-9.238282-36.957031 32.339844 13.859375zm0 0"/></svg>