<?xml version="1.0" encoding="iso-8859-1"?>
<!-- Generator: Adobe Illustrator 19.0.0, SVG Export Plug-In . SVG Version: 6.00 Build 0)  -->
<svg version="1.1" id="Capa_1" xmlns="http://www.w3.org/2000/svg" xmlns:xlink="http://www.w3.org/1999/xlink" x="0px" y="0px"
	 viewBox="0 0 512.003 512.003" style="enable-background:new 0 0 512.003 512.003;" xml:space="preserve">
<g>
	<g transform="translate(3 3)">
		<g>
			<path style="fill:#A4C2F7;" d="M453.339,253.676h-0.067c-0.071-0.264-0.185-0.514-0.336-0.741
				C453.084,253.175,453.219,253.422,453.339,253.676z"/>
			<path style="fill:#A4C2F7;" d="M493.76,233.466c-3.955-8.59-10.322-15.846-18.325-20.884L150.855,25.163
				c-4.927-3.614-11.472-4.135-16.909-1.347L96.017,42.813c-3.977,1.438-6.965,4.78-7.95,8.893L24,264.455
				c-1.853,8.981-0.418,18.329,4.043,26.341c4.017,8.55,10.369,15.79,18.324,20.884L371.014,499.1
				c1.696,0.997,3.506,1.789,5.389,2.358c2.161,0.64,4.424,0.869,6.669,0.674c0.526-0.024,1.046-0.115,1.549-0.27
				c0.912-0.202,1.796-0.519,2.628-0.943l39.275-19.672l-0.067-0.067c3.67-1.557,6.391-4.752,7.344-8.623l64-212.749
				C499.656,250.826,498.222,241.478,493.76,233.466z M453.339,253.676c1.086,2.229,2.031,4.524,2.829,6.872
				c-0.822-2.349-1.79-4.643-2.897-6.872c-0.071-0.264-0.185-0.514-0.336-0.741C453.084,253.175,453.219,253.422,453.339,253.676z"
				/>
			<path style="fill:#A4C2F7;" d="M96.017,42.813l-0.539,0.269"/>
		</g>
		
			<linearGradient id="SVGID_1_" gradientUnits="userSpaceOnUse" x1="-34.8485" y1="617.3439" x2="-34.4682" y2="616.6852" gradientTransform="matrix(2.8964 0 0 -4.2442 549.0732 2864.2004)">
			<stop  offset="0" style="stop-color:#D4E1F4"/>
			<stop  offset="0.1717" style="stop-color:#D4E1F4"/>
			<stop  offset="0.2" style="stop-color:#D4E1F4"/>
			<stop  offset="0.2001" style="stop-color:#DAE4F4"/>
			<stop  offset="0.2007" style="stop-color:#EBEBF4"/>
			<stop  offset="0.2014" style="stop-color:#F6F1F4"/>
			<stop  offset="0.2023" style="stop-color:#FDF4F4"/>
			<stop  offset="0.205" style="stop-color:#FFF5F4"/>
			<stop  offset="0.2522" style="stop-color:#FFF5F4"/>
			<stop  offset="0.26" style="stop-color:#FFF5F4"/>
			<stop  offset="0.26" style="stop-color:#D4E1F4"/>
			<stop  offset="0.3974" style="stop-color:#D4E1F4"/>
			<stop  offset="0.42" style="stop-color:#D4E1F4"/>
			<stop  offset="0.4201" style="stop-color:#DAE4F4"/>
			<stop  offset="0.4207" style="stop-color:#EBEBF4"/>
			<stop  offset="0.4214" style="stop-color:#F6F1F4"/>
			<stop  offset="0.4223" style="stop-color:#FDF4F4"/>
			<stop  offset="0.425" style="stop-color:#FFF5F4"/>
			<stop  offset="0.4894" style="stop-color:#FFF5F4"/>
			<stop  offset="0.5" style="stop-color:#FFF5F4"/>
			<stop  offset="0.5" style="stop-color:#F9F2F4"/>
			<stop  offset="0.5001" style="stop-color:#E8EBF4"/>
			<stop  offset="0.5003" style="stop-color:#DDE5F4"/>
			<stop  offset="0.5005" style="stop-color:#D6E2F4"/>
			<stop  offset="0.501" style="stop-color:#D4E1F4"/>
			<stop  offset="0.7062" style="stop-color:#D4E1F4"/>
			<stop  offset="0.74" style="stop-color:#D4E1F4"/>
			<stop  offset="0.741" style="stop-color:#FFF5F4"/>
			<stop  offset="0.8346" style="stop-color:#FFF5F4"/>
			<stop  offset="0.85" style="stop-color:#FFF5F4"/>
			<stop  offset="0.851" style="stop-color:#D4E1F4"/>
		</linearGradient>
		<path style="fill:url(#SVGID_1_);" d="M450.577,248.691c-0.864-1.481-1.832-2.9-2.896-4.244c0.539,0.741,1.077,1.482,1.684,2.291
			C449.769,247.344,450.172,248.018,450.577,248.691z"/>
		<path style="fill:#A4C2F7;" d="M497.802,259.807l-64,212.749c-0.952,3.871-3.674,7.066-7.344,8.623l0.067,0.067l-39.275,19.672
			c3.035-1.807,5.237-4.735,6.13-8.152l64-212.749c0.537-1.725,0.831-3.516,0.876-5.322c0.196-2.432,0.06-4.88-0.404-7.276
			c-0.338-2.34-0.902-4.641-1.684-6.872c-0.798-2.347-1.743-4.643-2.829-6.872c-0.121-0.254-0.255-0.502-0.404-0.741
			c-0.607-1.28-1.28-2.493-1.954-3.638l-0.405-0.606c-0.864-1.481-1.832-2.9-2.896-4.244c-1.386-1.931-2.942-3.735-4.649-5.389
			c-0.64-0.664-1.314-1.294-2.021-1.886c-1.846-1.658-3.856-3.125-5.997-4.379L110.434,45.373
			c-3.142-1.955-6.744-3.047-10.442-3.166c-0.653,0.011-1.305,0.056-1.954,0.135c-0.433,0.058-0.86,0.148-1.28,0.269
			c-0.269,0.067-0.539,0.135-0.741,0.202l37.928-18.998c5.437-2.788,11.983-2.267,16.909,1.347l324.58,187.419
			c8.003,5.038,14.37,12.294,18.325,20.884C498.222,241.478,499.656,250.826,497.802,259.807z"/>
		<g>
			
				<linearGradient id="SVGID_2_" gradientUnits="userSpaceOnUse" x1="-51.657" y1="649.5313" x2="-51.2767" y2="648.8726" gradientTransform="matrix(356.514 0 0 -254.1836 18559.666 165123.2969)">
				<stop  offset="0" style="stop-color:#D4E1F4"/>
				<stop  offset="0.1717" style="stop-color:#D4E1F4"/>
				<stop  offset="0.2" style="stop-color:#D4E1F4"/>
				<stop  offset="0.2001" style="stop-color:#DAE4F4"/>
				<stop  offset="0.2007" style="stop-color:#EBEBF4"/>
				<stop  offset="0.2014" style="stop-color:#F6F1F4"/>
				<stop  offset="0.2023" style="stop-color:#FDF4F4"/>
				<stop  offset="0.205" style="stop-color:#FFF5F4"/>
				<stop  offset="0.2522" style="stop-color:#FFF5F4"/>
				<stop  offset="0.26" style="stop-color:#FFF5F4"/>
				<stop  offset="0.26" style="stop-color:#D4E1F4"/>
				<stop  offset="0.3974" style="stop-color:#D4E1F4"/>
				<stop  offset="0.42" style="stop-color:#D4E1F4"/>
				<stop  offset="0.4201" style="stop-color:#DAE4F4"/>
				<stop  offset="0.4207" style="stop-color:#EBEBF4"/>
				<stop  offset="0.4214" style="stop-color:#F6F1F4"/>
				<stop  offset="0.4223" style="stop-color:#FDF4F4"/>
				<stop  offset="0.425" style="stop-color:#FFF5F4"/>
				<stop  offset="0.4894" style="stop-color:#FFF5F4"/>
				<stop  offset="0.5" style="stop-color:#FFF5F4"/>
				<stop  offset="0.5" style="stop-color:#F9F2F4"/>
				<stop  offset="0.5001" style="stop-color:#E8EBF4"/>
				<stop  offset="0.5003" style="stop-color:#DDE5F4"/>
				<stop  offset="0.5005" style="stop-color:#D6E2F4"/>
				<stop  offset="0.501" style="stop-color:#D4E1F4"/>
				<stop  offset="0.7062" style="stop-color:#D4E1F4"/>
				<stop  offset="0.74" style="stop-color:#D4E1F4"/>
				<stop  offset="0.741" style="stop-color:#FFF5F4"/>
				<stop  offset="0.8346" style="stop-color:#FFF5F4"/>
				<stop  offset="0.85" style="stop-color:#FFF5F4"/>
				<stop  offset="0.851" style="stop-color:#D4E1F4"/>
			</linearGradient>
			<path style="fill:url(#SVGID_2_);" d="M453.272,253.676l-177.313,40.017l-9.163,2.088c-19.2,4.312-45.474-14.686-60.766-43.924
				l-0.606-1.078L96.758,42.611c0.419-0.122,0.847-0.212,1.28-0.269c0.648-0.078,1.301-0.123,1.954-0.135
				c3.698,0.119,7.3,1.211,10.442,3.166l324.581,187.419c2.141,1.254,4.15,2.721,5.997,4.379c0.673,0.606,1.347,1.213,2.021,1.886
				c1.707,1.655,3.263,3.458,4.649,5.389c1.064,1.345,2.032,2.763,2.896,4.244l0.405,0.606c0.674,1.145,1.347,2.358,1.954,3.638
				C453.087,253.162,453.201,253.413,453.272,253.676z"/>
			
				<linearGradient id="SVGID_3_" gradientUnits="userSpaceOnUse" x1="69.6015" y1="462.5178" x2="69.9818" y2="461.8592" gradientTransform="matrix(0.4037 0 0 -0.741 424.8992 595.6077)">
				<stop  offset="0" style="stop-color:#D4E1F4"/>
				<stop  offset="0.1717" style="stop-color:#D4E1F4"/>
				<stop  offset="0.2" style="stop-color:#D4E1F4"/>
				<stop  offset="0.2001" style="stop-color:#DAE4F4"/>
				<stop  offset="0.2007" style="stop-color:#EBEBF4"/>
				<stop  offset="0.2014" style="stop-color:#F6F1F4"/>
				<stop  offset="0.2023" style="stop-color:#FDF4F4"/>
				<stop  offset="0.205" style="stop-color:#FFF5F4"/>
				<stop  offset="0.2522" style="stop-color:#FFF5F4"/>
				<stop  offset="0.26" style="stop-color:#FFF5F4"/>
				<stop  offset="0.26" style="stop-color:#D4E1F4"/>
				<stop  offset="0.3974" style="stop-color:#D4E1F4"/>
				<stop  offset="0.42" style="stop-color:#D4E1F4"/>
				<stop  offset="0.4201" style="stop-color:#DAE4F4"/>
				<stop  offset="0.4207" style="stop-color:#EBEBF4"/>
				<stop  offset="0.4214" style="stop-color:#F6F1F4"/>
				<stop  offset="0.4223" style="stop-color:#FDF4F4"/>
				<stop  offset="0.425" style="stop-color:#FFF5F4"/>
				<stop  offset="0.4894" style="stop-color:#FFF5F4"/>
				<stop  offset="0.5" style="stop-color:#FFF5F4"/>
				<stop  offset="0.5" style="stop-color:#F9F2F4"/>
				<stop  offset="0.5001" style="stop-color:#E8EBF4"/>
				<stop  offset="0.5003" style="stop-color:#DDE5F4"/>
				<stop  offset="0.5005" style="stop-color:#D6E2F4"/>
				<stop  offset="0.501" style="stop-color:#D4E1F4"/>
				<stop  offset="0.7062" style="stop-color:#D4E1F4"/>
				<stop  offset="0.74" style="stop-color:#D4E1F4"/>
				<stop  offset="0.741" style="stop-color:#FFF5F4"/>
				<stop  offset="0.8346" style="stop-color:#FFF5F4"/>
				<stop  offset="0.85" style="stop-color:#FFF5F4"/>
				<stop  offset="0.851" style="stop-color:#D4E1F4"/>
			</linearGradient>
			<path style="fill:url(#SVGID_3_);" d="M453.339,253.676h-0.067c-0.071-0.264-0.185-0.514-0.336-0.741
				C453.084,253.175,453.219,253.422,453.339,253.676z"/>
		</g>
		<path style="fill:#D4E1F4;" d="M384.623,501.862c-0.503,0.155-1.024,0.245-1.549,0.27c-2.246,0.195-4.508-0.034-6.669-0.674
			c-1.884-0.569-3.693-1.361-5.389-2.358L46.366,311.681c-7.955-5.094-14.308-12.334-18.324-20.884l177.381-40.017l0.606,1.078
			c15.293,29.238,41.566,48.236,60.766,43.924l9.163-2.088L384.623,501.862z"/>
		<g>
			
				<linearGradient id="SVGID_4_" gradientUnits="userSpaceOnUse" x1="-44.4208" y1="471.6451" x2="-44.0406" y2="470.9865" gradientTransform="matrix(6.6695 0 0 -0.7789 673.7143 868.7688)">
				<stop  offset="0" style="stop-color:#D4E1F4"/>
				<stop  offset="0.1717" style="stop-color:#D4E1F4"/>
				<stop  offset="0.2" style="stop-color:#D4E1F4"/>
				<stop  offset="0.2001" style="stop-color:#DAE4F4"/>
				<stop  offset="0.2007" style="stop-color:#EBEBF4"/>
				<stop  offset="0.2014" style="stop-color:#F6F1F4"/>
				<stop  offset="0.2023" style="stop-color:#FDF4F4"/>
				<stop  offset="0.205" style="stop-color:#FFF5F4"/>
				<stop  offset="0.2522" style="stop-color:#FFF5F4"/>
				<stop  offset="0.26" style="stop-color:#FFF5F4"/>
				<stop  offset="0.26" style="stop-color:#D4E1F4"/>
				<stop  offset="0.3974" style="stop-color:#D4E1F4"/>
				<stop  offset="0.42" style="stop-color:#D4E1F4"/>
				<stop  offset="0.4201" style="stop-color:#DAE4F4"/>
				<stop  offset="0.4207" style="stop-color:#EBEBF4"/>
				<stop  offset="0.4214" style="stop-color:#F6F1F4"/>
				<stop  offset="0.4223" style="stop-color:#FDF4F4"/>
				<stop  offset="0.425" style="stop-color:#FFF5F4"/>
				<stop  offset="0.4894" style="stop-color:#FFF5F4"/>
				<stop  offset="0.5" style="stop-color:#FFF5F4"/>
				<stop  offset="0.5" style="stop-color:#F9F2F4"/>
				<stop  offset="0.5001" style="stop-color:#E8EBF4"/>
				<stop  offset="0.5003" style="stop-color:#DDE5F4"/>
				<stop  offset="0.5005" style="stop-color:#D6E2F4"/>
				<stop  offset="0.501" style="stop-color:#D4E1F4"/>
				<stop  offset="0.7062" style="stop-color:#D4E1F4"/>
				<stop  offset="0.74" style="stop-color:#D4E1F4"/>
				<stop  offset="0.741" style="stop-color:#FFF5F4"/>
				<stop  offset="0.8346" style="stop-color:#FFF5F4"/>
				<stop  offset="0.85" style="stop-color:#FFF5F4"/>
				<stop  offset="0.851" style="stop-color:#D4E1F4"/>
			</linearGradient>
			<path style="fill:url(#SVGID_4_);" d="M383.074,502.131c-2.246,0.262-4.522,0.033-6.669-0.674
				C378.566,502.098,380.828,502.326,383.074,502.131z"/>
			
				<linearGradient id="SVGID_5_" gradientUnits="userSpaceOnUse" x1="8.8453" y1="306.2141" x2="9.2256" y2="305.5555" gradientTransform="matrix(0.8084 0 0 -0.4042 126.9228 147.1492)">
				<stop  offset="0" style="stop-color:#D4E1F4"/>
				<stop  offset="0.1717" style="stop-color:#D4E1F4"/>
				<stop  offset="0.2" style="stop-color:#D4E1F4"/>
				<stop  offset="0.2001" style="stop-color:#DAE4F4"/>
				<stop  offset="0.2007" style="stop-color:#EBEBF4"/>
				<stop  offset="0.2014" style="stop-color:#F6F1F4"/>
				<stop  offset="0.2023" style="stop-color:#FDF4F4"/>
				<stop  offset="0.205" style="stop-color:#FFF5F4"/>
				<stop  offset="0.2522" style="stop-color:#FFF5F4"/>
				<stop  offset="0.26" style="stop-color:#FFF5F4"/>
				<stop  offset="0.26" style="stop-color:#D4E1F4"/>
				<stop  offset="0.3974" style="stop-color:#D4E1F4"/>
				<stop  offset="0.42" style="stop-color:#D4E1F4"/>
				<stop  offset="0.4201" style="stop-color:#DAE4F4"/>
				<stop  offset="0.4207" style="stop-color:#EBEBF4"/>
				<stop  offset="0.4214" style="stop-color:#F6F1F4"/>
				<stop  offset="0.4223" style="stop-color:#FDF4F4"/>
				<stop  offset="0.425" style="stop-color:#FFF5F4"/>
				<stop  offset="0.4894" style="stop-color:#FFF5F4"/>
				<stop  offset="0.5" style="stop-color:#FFF5F4"/>
				<stop  offset="0.5" style="stop-color:#F9F2F4"/>
				<stop  offset="0.5001" style="stop-color:#E8EBF4"/>
				<stop  offset="0.5003" style="stop-color:#DDE5F4"/>
				<stop  offset="0.5005" style="stop-color:#D6E2F4"/>
				<stop  offset="0.501" style="stop-color:#D4E1F4"/>
				<stop  offset="0.7062" style="stop-color:#D4E1F4"/>
				<stop  offset="0.74" style="stop-color:#D4E1F4"/>
				<stop  offset="0.741" style="stop-color:#FFF5F4"/>
				<stop  offset="0.8346" style="stop-color:#FFF5F4"/>
				<stop  offset="0.85" style="stop-color:#FFF5F4"/>
				<stop  offset="0.851" style="stop-color:#D4E1F4"/>
			</linearGradient>
			<path style="fill:url(#SVGID_5_);" d="M134.754,23.411l-0.808,0.404"/>
			
				<linearGradient id="SVGID_6_" gradientUnits="userSpaceOnUse" x1="39.1518" y1="134.2735" x2="39.5321" y2="133.6149" gradientTransform="matrix(0.5389 0 0 -0.2695 74.4628 78.9718)">
				<stop  offset="0" style="stop-color:#D4E1F4"/>
				<stop  offset="0.1717" style="stop-color:#D4E1F4"/>
				<stop  offset="0.2" style="stop-color:#D4E1F4"/>
				<stop  offset="0.2001" style="stop-color:#DAE4F4"/>
				<stop  offset="0.2007" style="stop-color:#EBEBF4"/>
				<stop  offset="0.2014" style="stop-color:#F6F1F4"/>
				<stop  offset="0.2023" style="stop-color:#FDF4F4"/>
				<stop  offset="0.205" style="stop-color:#FFF5F4"/>
				<stop  offset="0.2522" style="stop-color:#FFF5F4"/>
				<stop  offset="0.26" style="stop-color:#FFF5F4"/>
				<stop  offset="0.26" style="stop-color:#D4E1F4"/>
				<stop  offset="0.3974" style="stop-color:#D4E1F4"/>
				<stop  offset="0.42" style="stop-color:#D4E1F4"/>
				<stop  offset="0.4201" style="stop-color:#DAE4F4"/>
				<stop  offset="0.4207" style="stop-color:#EBEBF4"/>
				<stop  offset="0.4214" style="stop-color:#F6F1F4"/>
				<stop  offset="0.4223" style="stop-color:#FDF4F4"/>
				<stop  offset="0.425" style="stop-color:#FFF5F4"/>
				<stop  offset="0.4894" style="stop-color:#FFF5F4"/>
				<stop  offset="0.5" style="stop-color:#FFF5F4"/>
				<stop  offset="0.5" style="stop-color:#F9F2F4"/>
				<stop  offset="0.5001" style="stop-color:#E8EBF4"/>
				<stop  offset="0.5003" style="stop-color:#DDE5F4"/>
				<stop  offset="0.5005" style="stop-color:#D6E2F4"/>
				<stop  offset="0.501" style="stop-color:#D4E1F4"/>
				<stop  offset="0.7062" style="stop-color:#D4E1F4"/>
				<stop  offset="0.74" style="stop-color:#D4E1F4"/>
				<stop  offset="0.741" style="stop-color:#FFF5F4"/>
				<stop  offset="0.8346" style="stop-color:#FFF5F4"/>
				<stop  offset="0.85" style="stop-color:#FFF5F4"/>
				<stop  offset="0.851" style="stop-color:#D4E1F4"/>
			</linearGradient>
			<path style="fill:url(#SVGID_6_);" d="M96.017,42.813l-0.539,0.269"/>
		</g>
		<g>
			<path style="fill:#FFFFFF;" d="M473.482,267.15c1.108,2.228,2.075,4.523,2.897,6.872c-0.798-2.347-1.743-4.643-2.829-6.872
				H473.482z"/>
			<path style="fill:#FFFFFF;" d="M48.253,304.27c-4.461-8.012-5.896-17.36-4.043-26.341L108.278,65.18
				c0.985-4.113,3.973-7.454,7.95-8.893l37.928-18.998c5.437-2.788,11.983-2.267,16.909,1.347L483.48,219.03
				c-2.387-2.493-5.092-4.661-8.044-6.449L150.855,25.163c-4.927-3.614-11.472-4.135-16.909-1.347L96.017,42.813
				c-3.977,1.438-6.965,4.78-7.95,8.893L24,264.455c-1.853,8.981-0.418,18.329,4.043,26.341c4.017,8.55,10.369,15.79,18.324,20.884
				l12.31,7.107C54.45,314.535,50.931,309.634,48.253,304.27z"/>
		</g>
	</g>
	<g>
		<polygon style="fill:#FFFFFF;" points="97.503,56.619 72.26,140.486 33.47,269.375 20.569,265.495 59.359,136.599 84.602,52.739 
					"/>
		<g>
			<path style="fill:#428DFF;" d="M69.56,109.49c0.441,0.768,1.024,1.445,1.719,1.994c0.677,0.565,1.458,0.991,2.299,1.255
				c2.611,0.774,5.432-0.093,7.157-2.201c1.725-2.108,2.018-5.045,0.742-7.451l-0.734-1.066c-0.286-0.353-0.618-0.667-0.987-0.933
				c-0.31-0.296-0.663-0.543-1.047-0.734c-0.404-0.201-0.821-0.374-1.249-0.517c-1.715-0.49-3.552-0.314-5.143,0.493
				C69.109,102.165,67.897,106.189,69.56,109.49L69.56,109.49z"/>
			<path style="fill:#428DFF;" d="M502.837,233.529c-4.544-9.804-11.849-18.069-21.02-23.783L157.212,22.312
				c-6.702-4.524-15.278-5.222-22.624-1.843l-38.27,19.187c-0.153,0.056-0.324,0.057-0.475,0.117
				c-5.557,2.343-9.711,7.134-11.243,12.967v0.001l-7.766,25.802c-0.694,2.305-0.105,4.804,1.544,6.558
				c1.649,1.753,4.108,2.493,6.451,1.942s4.213-2.311,4.907-4.616l7.761-25.783l0.012-0.022c0.051-0.172,0.146-0.26,0.202-0.423
				l100.71,192.909L35.004,285.97c-2.211-5.241-2.747-11.037-1.537-16.595l40.735-135.341c0.694-2.305,0.105-4.804-1.544-6.558
				c-1.649-1.753-4.108-2.493-6.451-1.942c-2.343,0.552-4.213,2.311-4.907,4.616L20.576,265.46l-0.016,0.03
				c-5.303,17.651,7.072,44.382,25.467,55.006l324.598,187.408c4.184,2.557,8.966,3.97,13.868,4.099
				c1.534-0.017,3.061-0.215,4.549-0.59c0.078-0.019,0.162-0.009,0.24-0.029c0.066-0.016,0.112-0.072,0.176-0.09
				c0.718-0.16,1.426-0.363,2.12-0.607c0.296-0.118,0.541-0.32,0.83-0.452c0.298-0.085,0.591-0.191,0.874-0.317l39.263-19.684
				c0.063-0.032,0.099-0.092,0.16-0.125c5.237-2.404,9.115-7.034,10.564-12.611l64-212.77
				C509.654,254.135,508.076,243.037,502.837,233.529z M444.728,250.78c0.362,0.456,0.703,0.928,1.049,1.399l-168.275,37.955h-0.001
				l-9.158,2.066c-16.224,3.605-39.605-14.125-53.349-40.467L112.668,55.739l321.991,185.896c1.441,0.863,2.808,1.844,4.089,2.931
				c0.366,0.303,0.732,0.604,1.092,0.928c1.218,1.086,2.369,2.246,3.447,3.471C443.786,249.538,444.25,250.171,444.728,250.78z
				 M453.955,281.088l-64.033,212.75c-0.053,0.175-0.15,0.264-0.207,0.429L289.008,301.351l163.414-36.863
				C454.634,269.731,455.169,275.53,453.955,281.088z M48.664,305.887c-0.355-0.295-0.712-0.587-1.062-0.902
				c-1.234-1.099-2.399-2.272-3.489-3.514c-0.452-0.521-0.874-1.098-1.31-1.65c-0.397-0.499-0.771-1.018-1.151-1.536l163.284-36.836
				c0.164,0.292,0.345,0.565,0.512,0.855c0.617,1.073,1.252,2.117,1.893,3.159c0.446,0.725,0.886,1.456,1.344,2.166
				c0.706,1.095,1.434,2.154,2.166,3.211c0.424,0.611,0.837,1.234,1.268,1.832c0.837,1.161,1.699,2.278,2.566,3.388
				c0.354,0.454,0.698,0.927,1.058,1.373c1.142,1.418,2.307,2.79,3.493,4.115c0.095,0.108,0.189,0.225,0.285,0.332
				c2.539,2.828,5.242,5.505,8.095,8.017c0.366,0.321,0.738,0.611,1.106,0.923c1.003,0.852,2.008,1.695,3.025,2.482
				c0.508,0.393,1.021,0.749,1.531,1.126c0.884,0.652,1.768,1.3,2.66,1.901c0.594,0.4,1.191,0.766,1.786,1.143
				c0.816,0.516,1.631,1.028,2.451,1.5c0.647,0.374,1.296,0.716,1.946,1.062c0.772,0.411,1.543,0.814,2.317,1.186
				c0.689,0.331,1.377,0.635,2.066,0.934c0.732,0.317,1.462,0.62,2.194,0.9c0.72,0.276,1.438,0.533,2.156,0.772
				c0.701,0.234,1.4,0.446,2.099,0.645c0.737,0.21,1.47,0.405,2.204,0.575c0.678,0.157,1.35,0.285,2.023,0.407
				c0.742,0.135,1.482,0.264,2.218,0.356c0.667,0.084,1.328,0.13,1.991,0.178c0.724,0.053,1.446,0.109,2.161,0.119
				c0.168,0.003,0.339,0.028,0.507,0.028c0.609,0,1.202-0.065,1.804-0.096c0.536-0.028,1.076-0.032,1.605-0.086
				c1.291-0.124,2.574-0.327,3.84-0.608l4.105-0.926l99.349,190.308L52.764,308.825C51.319,307.96,49.948,306.977,48.664,305.887
				L48.664,305.887z M494.363,260.864l-63.987,212.711c-1.053,3.428-2.789,4.112-3.362,4.335c-0.15,0.059-0.246,0.183-0.389,0.251
				c-0.039,0.018-0.08,0.013-0.118,0.032l-20.964,10.51l61.319-203.734c4.697-15.612-4.461-38.316-19.377-50.709l-0.012-0.009
				c-1.902-1.598-3.936-3.033-6.079-4.289L118.556,43.574l22.202-11.131l0.053-0.042c3.294-1.117,6.928-0.52,9.691,1.594
				l324.586,187.421c6.849,4.364,12.283,10.624,15.638,18.02C494.421,245.929,495.71,253.516,494.363,260.864L494.363,260.864z"/>
			<path style="fill:#428DFF;" d="M7.021,12.575l46.651,26.934c2.085,1.205,4.654,1.206,6.74,0.002
				c2.086-1.204,3.37-3.429,3.369-5.837c-0.001-2.408-1.286-4.633-3.372-5.835L13.758,0.904c-2.085-1.205-4.654-1.206-6.74-0.002
				S3.648,4.332,3.648,6.74C3.649,9.148,4.935,11.372,7.021,12.575z"/>
			<path style="fill:#428DFF;" d="M7.021,57.167l31.099,17.96c3.223,1.858,7.341,0.753,9.201-2.469
				c1.86-3.222,0.757-7.341-2.464-9.202l-31.099-17.96c-2.085-1.205-4.654-1.206-6.74-0.002s-3.37,3.429-3.369,5.837
				C3.649,53.74,4.935,55.964,7.021,57.167z"/>
			<path style="fill:#428DFF;" d="M7.021,101.759l15.546,8.98c2.085,1.205,4.654,1.206,6.74,0.002s3.37-3.429,3.369-5.837
				s-1.286-4.633-3.372-5.835l-15.546-8.98c-3.223-1.858-7.341-0.753-9.201,2.469C2.697,95.779,3.8,99.898,7.021,101.759z"/>
			<path style="fill:#428DFF;" d="M23.995,148.378c0.894-1.548,1.136-3.387,0.673-5.113c-0.463-1.726-1.592-3.198-3.141-4.091
				l-7.77-4.487c-3.223-1.858-7.341-0.753-9.201,2.469s-0.757,7.341,2.464,9.202l7.77,4.487
				C18.014,152.703,22.133,151.599,23.995,148.378z"/>
		</g>
	</g>
</g>
<g>
</g>
<g>
</g>
<g>
</g>
<g>
</g>
<g>
</g>
<g>
</g>
<g>
</g>
<g>
</g>
<g>
</g>
<g>
</g>
<g>
</g>
<g>
</g>
<g>
</g>
<g>
</g>
<g>
</g>
</svg>
