<?xml version="1.0" encoding="iso-8859-1"?>
<!-- Generator: Adobe Illustrator 19.0.0, SVG Export Plug-In . SVG Version: 6.00 Build 0)  -->
<svg version="1.1" id="Capa_1" xmlns="http://www.w3.org/2000/svg" xmlns:xlink="http://www.w3.org/1999/xlink" x="0px" y="0px"
	 viewBox="0 0 512 512" style="enable-background:new 0 0 512 512;" xml:space="preserve">
<g>
	<g>
		<g>
			<path d="M502.833,233.527c-4.544-9.804-11.849-18.069-21.02-23.783L157.208,22.31c-6.702-4.524-15.278-5.222-22.624-1.843
				l-38.27,19.187c-0.153,0.056-0.324,0.057-0.475,0.117c-5.557,2.343-9.711,7.134-11.243,12.967l-64.039,212.75
				c-5.303,17.651,7.072,44.382,25.467,55.006l324.599,187.408c4.184,2.557,8.966,3.971,13.868,4.099
				c1.534-0.017,3.061-0.215,4.549-0.59c0.078-0.019,0.162-0.01,0.24-0.029c0.066-0.016,0.112-0.072,0.176-0.09
				c0.718-0.16,1.426-0.363,2.12-0.607c0.296-0.118,0.541-0.32,0.83-0.452c0.298-0.085,0.591-0.191,0.874-0.317l39.263-19.684
				c0.062-0.032,0.099-0.092,0.159-0.125c5.237-2.404,9.115-7.034,10.564-12.611l64-212.77
				C509.65,254.133,508.073,243.035,502.833,233.527z M35,285.968c-2.212-5.242-2.748-11.04-1.536-16.599h0l64.039-212.75
				c0.051-0.172,0.146-0.26,0.202-0.423l100.71,192.909L35,285.968z M112.664,55.737l321.991,185.896
				c1.441,0.863,2.808,1.844,4.089,2.931c0.366,0.303,0.732,0.604,1.092,0.928c1.218,1.086,2.369,2.246,3.447,3.471
				c0.498,0.573,0.963,1.206,1.441,1.815c0.362,0.456,0.703,0.928,1.049,1.399l-168.275,37.955h-0.001l-9.158,2.066
				c-16.224,3.605-39.605-14.125-53.349-40.467L112.664,55.737z M52.761,308.823c-1.445-0.865-2.817-1.848-4.1-2.938h0
				c-0.355-0.295-0.712-0.587-1.062-0.902c-1.234-1.099-2.399-2.272-3.49-3.514c-0.452-0.521-0.874-1.098-1.31-1.65
				c-0.397-0.499-0.771-1.018-1.15-1.536l163.284-36.836c0.164,0.292,0.345,0.565,0.512,0.855c0.617,1.073,1.252,2.117,1.893,3.159
				c0.446,0.725,0.887,1.456,1.344,2.166c0.706,1.095,1.434,2.154,2.166,3.211c0.424,0.611,0.837,1.234,1.268,1.832
				c0.837,1.161,1.699,2.278,2.566,3.388c0.354,0.454,0.698,0.927,1.058,1.373c1.142,1.418,2.307,2.79,3.493,4.115
				c0.095,0.108,0.189,0.225,0.285,0.332c2.539,2.828,5.242,5.505,8.095,8.017c0.366,0.321,0.739,0.611,1.106,0.923
				c1.003,0.852,2.008,1.695,3.025,2.482c0.508,0.393,1.021,0.749,1.531,1.126c0.884,0.652,1.768,1.3,2.66,1.901
				c0.594,0.401,1.191,0.766,1.786,1.144c0.816,0.516,1.631,1.028,2.451,1.5c0.647,0.374,1.296,0.716,1.946,1.063
				c0.772,0.411,1.543,0.814,2.318,1.186c0.689,0.331,1.377,0.635,2.066,0.934c0.732,0.317,1.462,0.62,2.194,0.9
				c0.72,0.276,1.438,0.533,2.156,0.772c0.701,0.233,1.4,0.446,2.099,0.645c0.737,0.21,1.47,0.405,2.204,0.575
				c0.678,0.157,1.35,0.285,2.023,0.407c0.742,0.135,1.482,0.264,2.218,0.356c0.667,0.084,1.328,0.13,1.991,0.178
				c0.724,0.053,1.446,0.109,2.161,0.119c0.168,0.002,0.339,0.028,0.507,0.028c0.609,0,1.202-0.065,1.804-0.096
				c0.536-0.028,1.076-0.032,1.605-0.086c1.291-0.124,2.574-0.327,3.84-0.608l4.105-0.926l99.349,190.308L52.761,308.823z
				 M389.919,493.836c-0.053,0.175-0.15,0.264-0.207,0.429L289.004,301.349l163.414-36.863c2.212,5.242,2.747,11.041,1.533,16.6
				L389.919,493.836z M494.36,260.862l-63.987,212.711c-1.053,3.428-2.789,4.112-3.362,4.335c-0.15,0.059-0.246,0.183-0.389,0.251
				c-0.039,0.018-0.08,0.013-0.118,0.032l-20.964,10.51l61.319-203.734c4.697-15.612-4.461-38.316-19.377-50.709l-0.012-0.009
				c-1.902-1.598-3.936-3.033-6.079-4.289L118.552,43.572l22.202-11.131l0.053-0.042c3.294-1.117,6.928-0.52,9.691,1.594
				l324.586,187.421c6.849,4.364,12.282,10.624,15.638,18.02C494.418,245.927,495.706,253.514,494.36,260.862L494.36,260.862z"/>
			<path d="M7.017,12.573l46.651,26.934c3.223,1.858,7.341,0.753,9.201-2.469c1.86-3.222,0.757-7.341-2.464-9.202L13.754,0.902
				c-3.223-1.858-7.341-0.753-9.201,2.469C2.694,6.592,3.797,10.712,7.017,12.573z"/>
			<path d="M7.017,57.165l31.099,17.96c2.085,1.205,4.654,1.206,6.74,0.002c2.086-1.204,3.37-3.429,3.369-5.837
				c-0.001-2.408-1.286-4.633-3.372-5.835l-31.099-17.96c-3.223-1.858-7.341-0.753-9.201,2.469
				C2.694,51.184,3.797,55.304,7.017,57.165z"/>
			<path d="M7.017,101.757l15.546,8.98c3.223,1.858,7.341,0.753,9.201-2.469c1.86-3.222,0.757-7.341-2.464-9.202l-15.546-8.98
				c-3.223-1.858-7.341-0.753-9.201,2.469C2.694,95.777,3.797,99.896,7.017,101.757z"/>
			<path d="M23.991,148.375c0.894-1.548,1.136-3.387,0.673-5.113s-1.592-3.198-3.141-4.091l-7.77-4.487
				c-3.223-1.858-7.341-0.753-9.201,2.469c-1.86,3.222-0.757,7.341,2.464,9.202l7.77,4.487
				C18.01,152.701,22.13,151.597,23.991,148.375z"/>
		</g>
	</g>
</g>
<g>
</g>
<g>
</g>
<g>
</g>
<g>
</g>
<g>
</g>
<g>
</g>
<g>
</g>
<g>
</g>
<g>
</g>
<g>
</g>
<g>
</g>
<g>
</g>
<g>
</g>
<g>
</g>
<g>
</g>
</svg>
