<?xml version="1.0" encoding="UTF-8"?>
<svg xmlns="http://www.w3.org/2000/svg" xmlns:xlink="http://www.w3.org/1999/xlink" width="512" height="512" viewBox="0 0 60 60" version="1.1"><!-- Generator: Sketch 51.3 (57544) - http://www.bohemiancoding.com/sketch --><title>050 - Student Cover</title><desc>Created with Sketch.</desc><defs/><g id="Page-1" stroke="none" stroke-width="1" fill="none" fill-rule="evenodd"><g id="050---Student-Cover" fill-rule="nonzero"><path d="M53,16 L53,27.46 L31,41.95 C30.0625847,42.0501819 29.1154616,42.0097354 28.19,41.83 C27.0961151,41.6240114 26.0447407,41.2352395 25.08,40.68 L19,37.18 L11,32.57 L9.03,31.44 C7.77087121,30.701179 6.99815828,29.349883 7,27.89 L6.99999672,16 L53,16 Z" id="Shape" fill="#CAD9FC"/><path d="M50,16 L50,27.46 L28.19,41.83 C27.0961151,41.6240114 26.0447407,41.2352395 25.08,40.68 L19,37.18 L11,32.57 L9.03,31.44 C7.77087121,30.701179 6.99815828,29.349883 7,27.89 L6.99999672,16 L50,16 Z" id="Shape" fill="#E8EDFC"/><path d="M57.99,13.49 L55.46,14.71 L30.22,26.9 C30.0794763,26.9600324 29.9205237,26.9600324 29.78,26.9 L2.01,13.49 C1.98294922,13.4792712 1.95892209,13.462109 1.94,13.44 C1.79093316,13.3359963 1.71004824,13.1592894 1.72875147,12.9784915 C1.7474547,12.7976936 1.86279971,12.6412864 2.03,12.57 L29.81,1.08 C29.9317307,1.02999099 30.0682693,1.02999099 30.19,1.08 L57.97,12.57 C58.1524614,12.6478112 58.2724721,12.8252349 58.2767833,13.0235482 C58.2810945,13.2218615 58.1689075,13.404333 57.99,13.49 Z" id="Shape" fill="#CAD9FC"/><path d="M55.46,14.71 L30.22,26.9 C30.0794763,26.9600324 29.9205237,26.9600324 29.78,26.9 L2.01,13.49 C1.98294922,13.4792712 1.95892209,13.462109 1.94,13.44 L27.09,3.04 C27.2117307,2.98999099 27.3482693,2.98999099 27.47,3.04 L55.25,14.53 C55.3367049,14.5672019 55.409975,14.6300048 55.46,14.71 Z" id="Shape" fill="#E8EDFC"/><rect id="Rectangle-path" fill="#E8EDFC" x="11" y="30" width="8" height="14" rx="2"/><path d="M59,30.31 L59,44.44 C58.9949804,47.4068418 57.5525697,50.1873028 55.13,51.9 L45.29,58.91 C45.115307,59.0300632 44.884693,59.0300632 44.71,58.91 L43.5,58.05 L34.87,51.9 C32.4474303,50.1873028 31.0050196,47.4068418 31,44.44 L31,30.31 C31.0005992,30.1109412 31.118079,29.9308055 31.3,29.85 L43.5,24.58 L44.8,24.02 C44.9286443,23.9699919 45.0713557,23.9699919 45.2,24.02 L58.7,29.85 C58.881921,29.9308055 58.9994008,30.1109412 59,30.31 Z" id="Shape" fill="#E8EDFC"/><path d="M56,30.31 L56,44.44 C55.9949804,47.4068418 54.5525697,50.1873028 52.13,51.9 L43.5,58.05 L34.87,51.9 C32.4474303,50.1873028 31.0050196,47.4068418 31,44.44 L31,30.31 C31.0005992,30.1109412 31.118079,29.9308055 31.3,29.85 L43.5,24.58 L55.7,29.85 C55.881921,29.9308055 55.9994008,30.1109412 56,30.31 Z" id="Shape" fill="#FFFFFF"/><path d="M37.188,48.643 C35.8235742,47.6786208 35.0087098,46.1148109 35,44.444 L35,32.612 L45,28.292 L55,32.612 L55,44.444 C54.991115,46.1150413 54.1763259,47.6790788 52.812,48.644 L45,54.2 L37.188,48.643 Z" id="Shape" fill="#A4C2F7"/><path d="M14,42 L14,32.57 L12.03,31.44 C10.7708712,30.701179 9.99815828,29.349883 10,27.89 L10,17 L10.208,17 L7.208,16 L6.99999672,16 L7,27.89 C6.99815828,29.349883 7.77087121,30.701179 9.03,31.44 L11,32.57 L11,42 C11,43.1045695 11.8954305,44 13,44 L16,44 C14.8954305,44 14,43.1045695 14,42 Z" id="Shape" fill="#FFFFFF"/><path d="M45,60 C44.6286119,60.0003192 44.2664041,59.8845945 43.964,59.669 L34.289,52.781 C31.6080811,50.8779339 30.0107907,47.7976847 30,44.51 L30,30.048 C29.999409,29.649839 30.2350788,29.2892641 30.6,29.13 L44.6,23.082 C44.8527492,22.9730007 45.1392508,22.9730007 45.392,23.082 L59.392,29.13 C59.7569212,29.2892641 59.992591,29.649839 59.992,30.048 L59.992,44.51 C59.9812093,47.7976847 58.3839189,50.8779339 55.703,52.781 L46.028,59.669 C45.7278213,59.8830128 45.3686556,59.9986586 45,60 Z M32,30.705 L32,44.51 C32.009717,47.1510352 33.2942751,49.6248059 35.449,51.152 L45,57.951 L54.551,51.151 C56.7054384,49.6240107 57.9899605,47.1506817 58,44.51 L58,30.71 L45,25.089 L32,30.705 Z" id="Shape" fill="#428DFF"/><path d="M45,55.27 C44.792029,55.26982 44.5892884,55.2048032 44.42,55.084 L36.608,49.523 C34.980878,48.3705623 34.0097397,46.5038766 34,44.51 L34,32.678 C33.999409,32.279839 34.2350788,31.9192641 34.6,31.76 L44.6,27.439 C44.8527492,27.3300007 45.1392508,27.3300007 45.392,27.439 L55.392,31.76 C55.7569212,31.9192641 55.992591,32.279839 55.992,32.678 L55.992,44.51 C55.9822603,46.5038766 55.011122,48.3705623 53.384,49.523 L45.58,55.084 C45.4107116,55.2048032 45.207971,55.26982 45,55.27 Z M37.769,47.9 L45,53.042 L52.231,47.9 C53.3336386,47.1220877 53.992541,45.8594087 54,44.51 L54,33.335 L45,29.446 L36,33.335 L36,44.51 C36.007791,45.8593263 36.6666189,47.1218625 37.769,47.9 Z" id="Shape" fill="#428DFF"/><path d="M43,47 C42.7835593,47.0004356 42.5728912,46.9302129 42.4,46.8 L38.4,43.8 C37.9581722,43.4686292 37.8686292,42.8418278 38.2,42.4 C38.5313708,41.9581722 39.1581722,41.8686292 39.6,42.2 L42.824,44.618 L50.224,35.375 C50.569178,34.9436656 51.1986656,34.873822 51.63,35.219 C52.0613344,35.564178 52.131178,36.1936656 51.786,36.625 L43.786,46.625 C43.5950454,46.8635113 43.3055301,47.0016388 43,47 Z" id="Shape" fill="#428DFF"/><polygon id="Shape" fill="#FFFFFF" points="0.618 12.076 12.63 7.105 29.618 0.076 30.382 1.924 13.395 8.953 1.382 13.924"/><path d="M5.62,11.088 C5.40857334,10.5781428 4.82403493,10.3360025 4.314,10.547 L0.614,12.076 L1.378,13.924 L5.078,12.395 C5.32328152,12.2936625 5.51822083,12.0989797 5.61988123,11.8538318 C5.72154164,11.6086839 5.72158436,11.3331794 5.62,11.088 Z" id="Shape" fill="#428DFF"/><path d="M30.382,1.924 L29.618,0.076 L11.706,7.488 C11.3758866,7.62465409 11.1437533,7.92704108 11.0970425,8.28125472 C11.0503317,8.63546836 11.1961399,8.98769517 11.4795425,9.20525472 C11.7629451,9.42281427 12.1408866,9.47265409 12.471,9.336 L30.382,1.924 Z" id="Shape" fill="#428DFF"/><path d="M8.01,9.017 C7.76666476,9.12172559 7.57196382,9.31464029 7.465,9.557 L7.411,9.741 C7.3974472,9.80674801 7.39240585,9.87396596 7.396,9.941 C7.3913935,10.0043457 7.39611044,10.0680244 7.41,10.13 C7.42475756,10.1956207 7.44413928,10.260115 7.468,10.323 C7.57297587,10.5661663 7.76581157,10.7607875 8.008,10.868 C8.13084153,10.9149428 8.26151014,10.938022 8.393,10.936 C8.79540948,10.9328169 9.15841313,10.6935556 9.32,10.325 C9.36675466,10.2021065 9.38982737,10.0714742 9.388,9.94 C9.3892182,9.80918288 9.36475611,9.67939788 9.316,9.558 C9.21642147,9.31153976 9.02200519,9.11541614 8.77642503,9.01368653 C8.53084486,8.91195692 8.25469139,8.91315081 8.01,9.017 Z" id="Shape" fill="#428DFF"/><path d="M30,28 C29.8492902,28.000109 29.7005326,27.9659119 29.565,27.9 L0.565,13.9 C0.0842609283,13.6509014 -0.11090319,13.0644333 0.124715701,12.5769459 C0.360334593,12.0894586 0.941142224,11.8780435 1.435,12.1 L30,25.89 L56.555,13.07 L29.617,1.924 C29.1066889,1.71247494 28.8644749,1.12731111 29.076,0.617 C29.2875251,0.106688891 29.8726889,-0.135525059 30.383,0.076 L59.383,12.076 C59.7468389,12.226945 59.9881695,12.577421 59.9993948,12.9711686 C60.01062,13.3649161 59.7896485,13.7285718 59.435,13.9 L30.435,27.9 C30.2994674,27.9659119 30.1507098,28.000109 30,28 Z" id="Shape" fill="#428DFF"/><path d="M30,23.559 C29.8493452,23.5586261 29.700694,23.5244534 29.565,23.459 L10.348,14.182 C9.99266387,14.0110064 9.7709965,13.647155 9.78201206,13.2529707 C9.79302763,12.8587865 10.034669,12.5078824 10.399,12.357 L29.617,4.405 C29.8623428,4.30398706 30.1376572,4.30398706 30.383,4.405 L49.6,12.357 C49.964331,12.5078824 50.2059724,12.8587865 50.2169879,13.2529707 C50.2280035,13.647155 50.0063361,14.0110064 49.651,14.182 L30.435,23.459 C30.299306,23.5244534 30.1506548,23.5586261 30,23.559 Z M13.228,13.352 L30,21.448 L46.772,13.348 L30,6.411 L13.228,13.352 Z" id="Shape" fill="#428DFF"/><path d="M11,33.57 C10.8246785,33.5703207 10.6523171,33.5248173 10.5,33.438 L8.53,32.308 C6.96400341,31.3870746 6.00173203,29.706713 6,27.89 L6,16 C6.00000002,15.4477153 6.44771526,15 7,15 C7.55228474,15 7.99999998,15.4477153 8,16 L8,27.89 C8.00014527,28.9941874 8.58390874,30.0160587 9.535,30.577 L11.5,31.7 C11.8962127,31.9245181 12.0906881,32.388381 11.9730546,32.8283301 C11.8554212,33.2682792 11.4553929,33.5731839 11,33.57 Z" id="Shape" fill="#428DFF"/><path d="M30.016,43 C28.1080717,42.9977192 26.2339682,42.4960966 24.58,41.545 L18.501,38.045 C18.0224453,37.7688576 17.8583577,37.1570547 18.1345,36.6785 C18.4106424,36.1999453 19.0224453,36.0358577 19.501,36.312 L25.581,39.812 C27.1896122,40.7430587 29.0509063,41.1430323 30.9,40.955 C31.2554793,40.9178444 31.6037779,41.0731571 31.8136953,41.3624334 C32.0236126,41.6517096 32.0632572,42.0310015 31.9176953,42.3574334 C31.7721334,42.6838652 31.4634793,42.9078444 31.108,42.945 C30.7451752,42.9819313 30.3806994,43.0002885 30.016,43 Z" id="Shape" fill="#428DFF"/><path d="M53,28.46 C52.4477153,28.46 52,28.0122847 52,27.46 L52,16 C52,15.4477153 52.4477153,15 53,15 C53.5522847,15 54,15.4477153 54,16 L54,27.46 C54,28.0122847 53.5522847,28.46 53,28.46 Z" id="Shape" fill="#428DFF"/><path d="M17,45 L13,45 C11.3431458,45 10,43.6568542 10,42 L10,32 C10,30.3431458 11.3431458,29 13,29 L17,29 C18.6568542,29 20,30.3431458 20,32 L20,42 C20,43.6568542 18.6568542,45 17,45 Z M13,31 C12.4477153,31 12,31.4477153 12,32 L12,42 C12,42.5522847 12.4477153,43 13,43 L17,43 C17.5522847,43 18,42.5522847 18,42 L18,32 C18,31.4477153 17.5522847,31 17,31 L13,31 Z" id="Shape" fill="#428DFF"/><path d="M15,31 C14.4477153,31 14,30.5522847 14,30 L14,20 C14.0000504,19.611568 14.2250302,19.2583067 14.577,19.094 L29.577,12.094 C29.9016524,11.9363178 30.2860822,11.9658113 30.5828819,12.1711714 C30.8796816,12.3765315 31.0427925,12.7258895 31.0096705,13.0852859 C30.9765485,13.4446823 30.7523336,13.7583444 30.423,13.906 L16,20.637 L16,30 C16,30.5522847 15.5522847,31 15,31 Z" id="Shape" fill="#428DFF"/><path d="M15,45 C14.4477153,45 14,44.5522847 14,44 L14,40 C14,39.4477153 14.4477153,39 15,39 C15.5522847,39 16,39.4477153 16,40 L16,44 C16,44.5522847 15.5522847,45 15,45 Z" id="Shape" fill="#428DFF"/></g></g></svg>
