<?xml version="1.0" encoding="UTF-8"?>
<svg xmlns="http://www.w3.org/2000/svg" xmlns:xlink="http://www.w3.org/1999/xlink" width="512" height="512" viewBox="0 0 60 60" version="1.1"><!-- Generator: Sketch 51.3 (57544) - http://www.bohemiancoding.com/sketch --><title>047 - Safe Cover</title><desc>Created with Sketch.</desc><defs/><g id="Page-1" stroke="none" stroke-width="1" fill="none" fill-rule="evenodd"><g id="047---Safe-Cover" fill-rule="nonzero"><path d="M5,51 L15,51 L15,57 C15,58.1045695 14.1045695,59 13,59 L7,59 C5.8954305,59 5,58.1045695 5,57 L5,51 Z" id="Shape" fill="#E8EDFC"/><path d="M41,51 L41,57 C40.9967052,58.1032019 40.1032019,58.9967052 39,59 L33,59 C31.8967981,58.9967052 31.0032948,58.1032019 31,57 L31,51 L41,51 Z" id="Shape" fill="#CAD9FC"/><path d="M38,51 L38,57 C37.9967052,58.1032019 37.1032019,58.9967052 36,59 L33,59 C31.8967981,58.9967052 31.0032948,58.1032019 31,57 L31,51 L38,51 Z" id="Shape" fill="#E8EDFC"/><path d="M45,36 L45,49 C45,51.209139 43.209139,53 41,53 L5,53 C2.790861,53 1,51.209139 1,49 L1,13 C1,10.790861 2.790861,9 5,9 L31,9 L45,36 Z" id="Shape" fill="#CAD9FC"/><path d="M42,36 L42,49 C42,51.209139 40.209139,53 38,53 L5,53 C2.790861,53 1,51.209139 1,49 L1,13 C1,10.790861 2.790861,9 5,9 L28,9 L42,36 Z" id="Shape" fill="#E8EDFC"/><path d="M41,13 L41,48 C41,48.5522847 40.5522847,49 40,49 L8,49 C7.44771525,49 7,48.5522847 7,48 L7,14 C7,13.4477153 7.44771525,13 8,13 L41,13 Z" id="Shape" fill="#CAD9FC"/><path d="M38,13 L38,48 C38,48.5522847 37.5522847,49 37,49 L8,49 C7.44771525,49 7,48.5522847 7,48 L7,14 C7,13.4477153 7.44771525,13 8,13 L38,13 Z" id="Shape" fill="#E8EDFC"/><rect id="Rectangle-path" fill="#E8EDFC" x="5" y="17" width="4" height="6" rx="1"/><rect id="Rectangle-path" fill="#E8EDFC" x="5" y="39" width="4" height="6" rx="1"/><circle id="Oval" fill="#E8EDFC" cx="29" cy="31" r="2"/><path d="M59,7.33 L59,21.46 C58.9949804,24.4268418 57.5525697,27.2073028 55.13,28.92 L45.29,35.93 C45.115307,36.0500632 44.884693,36.0500632 44.71,35.93 L43.5,35.07 L34.87,28.92 C32.4474303,27.2073028 31.0050196,24.4268418 31,21.46 L31,7.33 C31.0005992,7.1309412 31.118079,6.95080551 31.3,6.87 L43.5,1.6 L44.8,1.04 C44.9286443,0.989991901 45.0713557,0.989991901 45.2,1.04 L58.7,6.87 C58.881921,6.95080551 58.9994008,7.1309412 59,7.33 Z" id="Shape" fill="#E8EDFC"/><path d="M56,7.33 L56,21.46 C55.9949804,24.4268418 54.5525697,27.2073028 52.13,28.92 L43.5,35.07 L34.87,28.92 C32.4474303,27.2073028 31.0050196,24.4268418 31,21.46 L31,7.33 C31.0005992,7.1309412 31.118079,6.95080551 31.3,6.87 L43.5,1.6 L55.7,6.87 C55.881921,6.95080551 55.9994008,7.1309412 56,7.33 Z" id="Shape" fill="#FFFFFF"/><path d="M37.188,25.664 C35.8239601,24.6992838 35.0092071,23.1356877 35,21.465 L35,9.633 L45,5.313 L55,9.633 L55,21.465 C54.991115,23.1360413 54.1763259,24.7000788 52.812,25.665 L45,31.225 L37.188,25.664 Z" id="Shape" fill="#A4C2F7"/><path d="M8,57 L8,53 C5.790861,53 4,51.209139 4,49 L4,13 C4,10.790861 5.790861,9 8,9 L5,9 C2.790861,9 1,10.790861 1,13 L1,49 C1,51.209139 2.790861,53 5,53 L5,57 C5,58.1045695 5.8954305,59 7,59 L10,59 C8.8954305,59 8,58.1045695 8,57 Z" id="Shape" fill="#FFFFFF"/><path d="M45,37 C44.6286119,37.0003192 44.2664041,36.8845945 43.964,36.669 L34.289,29.781 C31.6077945,27.8777289 30.0104682,24.797038 30,21.509 L30,7.047 C29.999409,6.64883898 30.2350788,6.28826415 30.6,6.129 L44.6,0.082 C44.8527492,-0.0269993194 45.1392508,-0.0269993194 45.392,0.082 L59.392,6.129 C59.7569212,6.28826415 59.992591,6.64883898 59.992,7.047 L59.992,21.509 C59.9815318,24.797038 58.3842055,27.8777289 55.703,29.781 L46.028,36.669 C45.7278213,36.8830128 45.3686556,36.9986586 45,37 Z M32,7.7 L32,21.509 C32.0097266,24.1503069 33.2942465,26.6243764 35.449,28.152 L45,34.951 L54.551,28.151 C56.705467,26.6235813 57.989951,24.1499534 58,21.509 L58,7.7 L45,2.089 L32,7.7 Z" id="Shape" fill="#428DFF"/><path d="M45,32.27 C44.792029,32.26982 44.5892884,32.2048032 44.42,32.084 L36.608,26.522 C34.980878,25.3695623 34.0097397,23.5028766 34,21.509 L34,9.677 C33.999409,9.27883898 34.2350788,8.91826415 34.6,8.759 L44.6,4.439 C44.8527492,4.33000068 45.1392508,4.33000068 45.392,4.439 L55.392,8.759 C55.7569212,8.91826415 55.992591,9.27883898 55.992,9.677 L55.992,21.509 C55.9822511,23.5031483 55.0111509,25.370133 53.384,26.523 L45.58,32.084 C45.4107116,32.2048032 45.207971,32.26982 45,32.27 Z M37.769,24.894 L45,30.042 L52.231,24.9 C53.3337961,24.1217704 53.9926973,22.8587211 54,21.509 L54,10.334 L45,6.446 L36,10.334 L36,21.509 C36.0089038,22.8566812 36.6676631,24.117224 37.769,24.894 Z" id="Shape" fill="#428DFF"/><path d="M43,24 C42.7835593,24.0004356 42.5728912,23.9302129 42.4,23.8 L38.4,20.8 C37.9581722,20.4686292 37.8686292,19.8418278 38.2,19.4 C38.5313708,18.9581722 39.1581722,18.8686292 39.6,19.2 L42.824,21.618 L50.224,12.375 C50.569178,11.9436656 51.1986656,11.8738221 51.63,12.219 C52.0613344,12.564178 52.1311779,13.1936656 51.786,13.625 L43.786,23.625 C43.5950454,23.8635113 43.3055301,24.0016388 43,24 Z" id="Shape" fill="#428DFF"/><polygon id="Shape" fill="#FFFFFF" points="2 13 2 26 2 49 0 49 0 26 0 13"/><path d="M1,18 C1.55228475,18 2,17.5522847 2,17 L2,13 L0,13 L0,17 C6.76353751e-17,17.5522847 0.44771525,18 1,18 Z" id="Shape" fill="#428DFF"/><path d="M0,49 L2,49 L2,25 C2,24.4477153 1.55228475,24 1,24 C0.44771525,24 6.76353751e-17,24.4477153 0,25 L0,49 Z" id="Shape" fill="#428DFF"/><path d="M2,21 C1.99611961,20.7352731 1.89256504,20.481743 1.71,20.29 L1.56,20.17 C1.50427287,20.1321227 1.44373808,20.1018554 1.38,20.08 C1.32333758,20.0511123 1.26266255,20.0308873 1.2,20.02 C1.13385548,20.0088692 1.06703885,20.0021875 1,20 C0.735273141,20.0038804 0.481742984,20.107435 0.29,20.29 C0.199603156,20.3856071 0.12832305,20.4976187 0.08,20.62 C-0.0708765757,20.9929737 0.0113519394,21.4197788 0.29,21.71 C0.385607086,21.8003968 0.497618681,21.871677 0.62,21.92 C0.740222313,21.971241 0.869322743,21.99842 1,22 C1.26472686,21.9961196 1.51825702,21.892565 1.71,21.71 C1.89256504,21.518257 1.99611961,21.2647269 2,21 Z" id="Shape" fill="#428DFF"/><path d="M1,14 C0.44771525,14 6.76353751e-17,13.5522847 0,13 C0.00330611633,10.2399468 2.23994685,8.00330612 5,8 L31,8 C31.5522847,8 32,8.44771525 32,9 C32,9.55228475 31.5522847,10 31,10 L5,10 C3.34314575,10 2,11.3431458 2,13 C2,13.5522847 1.55228475,14 1,14 Z" id="Shape" fill="#428DFF"/><path d="M41,54 L5,54 C2.23994685,53.9966939 0.00330611633,51.7600532 0,49 C-6.76353751e-17,48.4477153 0.44771525,48 1,48 C1.55228475,48 2,48.4477153 2,49 C2,50.6568542 3.34314575,52 5,52 L41,52 C42.6568542,52 44,50.6568542 44,49 L44,36 C44,35.4477153 44.4477153,35 45,35 C45.5522847,35 46,35.4477153 46,36 L46,49 C45.9966939,51.7600532 43.7600532,53.9966939 41,54 Z" id="Shape" fill="#428DFF"/><path d="M7,40 C6.44771525,40 6,39.5522847 6,39 L6,23 C6,22.4477153 6.44771525,22 7,22 C7.55228475,22 8,22.4477153 8,23 L8,39 C8,39.5522847 7.55228475,40 7,40 Z" id="Shape" fill="#428DFF"/><path d="M7,18 C6.44771525,18 6,17.5522847 6,17 L6,14 C6,12.8954305 6.8954305,12 8,12 L31,12 C31.5522847,12 32,12.4477153 32,13 C32,13.5522847 31.5522847,14 31,14 L8,14 L8,17 C8,17.5522847 7.55228475,18 7,18 Z" id="Shape" fill="#428DFF"/><path d="M40,50 L8,50 C6.8954305,50 6,49.1045695 6,48 L6,45 C6,44.4477153 6.44771525,44 7,44 C7.55228475,44 8,44.4477153 8,45 L8,48 L40,48 L40,33.33 C40,32.7777153 40.4477153,32.33 41,32.33 C41.5522847,32.33 42,32.7777153 42,33.33 L42,48 C42,49.1045695 41.1045695,50 40,50 Z" id="Shape" fill="#428DFF"/><path d="M13,60 L7,60 C5.34314575,60 4,58.6568542 4,57 L4,53 C4,52.4477153 4.44771525,52 5,52 L15,52 C15.5522847,52 16,52.4477153 16,53 L16,57 C16,58.6568542 14.6568542,60 13,60 Z M6,54 L6,57 C6,57.5522847 6.44771525,58 7,58 L13,58 C13.5522847,58 14,57.5522847 14,57 L14,54 L6,54 Z" id="Shape" fill="#428DFF"/><path d="M39,60 L33,60 C31.3431458,60 30,58.6568542 30,57 L30,53 C30,52.4477153 30.4477153,52 31,52 L41,52 C41.5522847,52 42,52.4477153 42,53 L42,57 C42,58.6568542 40.6568542,60 39,60 Z M32,54 L32,57 C32,57.5522847 32.4477153,58 33,58 L39,58 C39.5522847,58 40,57.5522847 40,57 L40,54 L32,54 Z" id="Shape" fill="#428DFF"/><path d="M8,24 L6,24 C4.8954305,24 4,23.1045695 4,22 L4,18 C4,16.8954305 4.8954305,16 6,16 L8,16 C9.1045695,16 10,16.8954305 10,18 L10,22 C10,23.1045695 9.1045695,24 8,24 Z M6,18 L6,22 L8,22 L8,18 L6,18 Z" id="Shape" fill="#428DFF"/><path d="M8,46 L6,46 C4.8954305,46 4,45.1045695 4,44 L4,40 C4,38.8954305 4.8954305,38 6,38 L8,38 C9.1045695,38 10,38.8954305 10,40 L10,44 C10,45.1045695 9.1045695,46 8,46 Z M6,40 L6,44 L8,44 L8,40 L6,40 Z" id="Shape" fill="#428DFF"/><path d="M29,38 C26.0585004,37.9979428 23.432083,36.1571504 22.4265755,33.392846 C21.4210681,30.6285416 22.2510035,27.5305112 24.5037464,25.6390638 C26.7564893,23.7476164 29.9513994,23.4663071 32.5,24.935 C32.6229459,25.0017053 32.7360271,25.08517 32.836,25.183 C33.2093513,25.559554 33.2238636,26.1620637 32.8690743,26.5561559 C32.5142851,26.9502481 31.9135663,26.998884 31.5,26.667 C30.7405975,26.2268139 29.8777497,25.9966061 29,26 C26.2385763,26 24,28.2385763 24,31 C24,33.7614237 26.2385763,36 29,36 C31.7614237,36 34,33.7614237 34,31 C34.0010037,30.3524899 33.8738969,29.7111784 33.626,29.113 C33.4147511,28.6026889 33.6571889,28.0177489 34.1675,27.8065 C34.6778111,27.5952511 35.2627511,27.8376889 35.474,28.348 C35.8228589,29.1885556 36.0016376,30.0899266 36,31 C35.9950416,34.8639376 32.8639376,37.9950416 29,38 Z" id="Shape" fill="#428DFF"/><path d="M29,34 C27.3431458,34 26,32.6568542 26,31 C26,29.3431458 27.3431458,28 29,28 C30.6568542,28 32,29.3431458 32,31 C32,32.6568542 30.6568542,34 29,34 Z M29,30 C28.4477153,30 28,30.4477153 28,31 C28,31.5522847 28.4477153,32 29,32 C29.5522847,32 30,31.5522847 30,31 C30,30.4477153 29.5522847,30 29,30 Z" id="Shape" fill="#428DFF"/><path d="M29,26 C28.4477153,26 28,25.5522847 28,25 L28,23 C28,22.4477153 28.4477153,22 29,22 C29.5522847,22 30,22.4477153 30,23 L30,25 C30,25.5522847 29.5522847,26 29,26 Z" id="Shape" fill="#428DFF"/><path d="M26,26.8 C25.6423863,26.8003484 25.3118068,26.6097028 25.133,26.3 L24.133,24.568 C23.8613097,24.09014 24.0262584,23.4825795 24.5023057,23.2077255 C24.978353,22.9328714 25.5869942,23.0937864 25.865,23.568 L26.865,25.3 C27.0435415,25.6092425 27.0436393,25.9902222 26.8652566,26.2995563 C26.6868739,26.6088904 26.3570824,26.799634 26,26.8 Z" id="Shape" fill="#428DFF"/><path d="M23.8,29 C23.6244113,29.0003718 23.4518701,28.9541308 23.3,28.866 L21.568,27.866 C21.0937864,27.5879942 20.9328714,26.979353 21.2077255,26.5033057 C21.4825795,26.0272584 22.09014,25.8623097 22.568,26.134 L24.3,27.134 C24.6919413,27.3603139 24.8830208,27.8216562 24.7658809,28.2588223 C24.6487411,28.6959884 24.2525881,28.9999801 23.8,29 Z" id="Shape" fill="#428DFF"/><path d="M23,32 L21,32 C20.4477153,32 20,31.5522847 20,31 C20,30.4477153 20.4477153,30 21,30 L23,30 C23.5522847,30 24,30.4477153 24,31 C24,31.5522847 23.5522847,32 23,32 Z" id="Shape" fill="#428DFF"/><path d="M22.073,36 C21.6204119,35.9999801 21.2242589,35.6959884 21.1071191,35.2588223 C20.9899792,34.8216562 21.1810587,34.3603139 21.573,34.134 L23.305,33.134 C23.6145704,32.9525156 23.9976495,32.9508167 24.3088174,33.1295481 C24.6199854,33.3082796 24.811531,33.6400366 24.8107421,33.9988817 C24.8099532,34.3577268 24.6169508,34.6886384 24.305,34.866 L22.573,35.866 C22.4211299,35.9541308 22.2485887,36.0003718 22.073,36 Z" id="Shape" fill="#428DFF"/><path d="M25,38.928 C24.6429176,38.927634 24.3131261,38.7368904 24.1347434,38.4275563 C23.9563607,38.1182222 23.9564585,37.7372425 24.135,37.428 L25.135,35.696 C25.4130058,35.2217864 26.021647,35.0608714 26.4976943,35.3357255 C26.9737416,35.6105795 27.1386903,36.21814 26.867,36.696 L25.867,38.428 C25.6881932,38.7377028 25.3576137,38.9283484 25,38.928 Z" id="Shape" fill="#428DFF"/><path d="M29,40 C28.4477153,40 28,39.5522847 28,39 L28,37 C28,36.4477153 28.4477153,36 29,36 C29.5522847,36 30,36.4477153 30,37 L30,39 C30,39.5522847 29.5522847,40 29,40 Z" id="Shape" fill="#428DFF"/><path d="M33,38.928 C32.6423863,38.9283484 32.3118068,38.7377028 32.133,38.428 L31.133,36.696 C30.9515156,36.3864296 30.9498167,36.0033505 31.1285481,35.6921826 C31.3072796,35.3810146 31.6390366,35.189469 31.9978817,35.1902579 C32.3567268,35.1910468 32.6876384,35.3840492 32.865,35.696 L33.865,37.428 C34.0435415,37.7372425 34.0436393,38.1182222 33.8652566,38.4275563 C33.6868739,38.7368904 33.3570824,38.927634 33,38.928 Z" id="Shape" fill="#428DFF"/><path d="M35.927,36 C35.7514113,36.0003718 35.5788701,35.9541308 35.427,35.866 L33.695,34.866 C33.2207864,34.5879942 33.0598714,33.979353 33.3347255,33.5033057 C33.6095795,33.0272584 34.21714,32.8623097 34.695,33.134 L36.427,34.134 C36.8189413,34.3603139 37.0100208,34.8216562 36.8928809,35.2588223 C36.7757411,35.6959884 36.3795881,35.9999801 35.927,36 Z" id="Shape" fill="#428DFF"/><path d="M37,32 L35,32 C34.4477153,32 34,31.5522847 34,31 C34,30.4477153 34.4477153,30 35,30 L37,30 C37.5522847,30 38,30.4477153 38,31 C38,31.5522847 37.5522847,32 37,32 Z" id="Shape" fill="#428DFF"/><path d="M32,26.8 C31.6429176,26.799634 31.3131261,26.6088904 31.1347434,26.2995563 C30.9563607,25.9902222 30.9564585,25.6092425 31.135,25.3 C31.4134214,24.8139477 32.027514,24.6368482 32.522,24.9 C32.7523493,25.0227174 32.923239,25.2334227 32.9957615,25.4841434 C33.068284,25.734864 33.036267,26.0042614 32.907,26.231 L32.867,26.301 C32.6879391,26.6103179 32.3574075,26.8005547 32,26.8 Z" id="Shape" fill="#428DFF"/><path d="M13,46 C12.4477153,46 12,45.5522847 12,45 L12,17 C12,16.4477153 12.4477153,16 13,16 C13.5522847,16 14,16.4477153 14,17 L14,45 C14,45.5522847 13.5522847,46 13,46 Z" id="Shape" fill="#CAD9FC"/></g></g></svg>
