<?xml version="1.0" encoding="iso-8859-1"?>
<!-- Generator: Adobe Illustrator 19.0.0, SVG Export Plug-In . SVG Version: 6.00 Build 0)  -->
<svg version="1.1" id="Capa_1" xmlns="http://www.w3.org/2000/svg" xmlns:xlink="http://www.w3.org/1999/xlink" x="0px" y="0px"
	 viewBox="0 0 512.001 512.001" style="enable-background:new 0 0 512.001 512.001;" xml:space="preserve">
<g>
	<g>
		<g>
			<path d="M506.009,0.388c-3.562-1.111-7.433,0.22-9.558,3.287L424.2,108.038l-35.808-21.487c-2.666-1.598-5.99-1.622-8.679-0.063
				l-45.686,26.557c-32.848-38.887-89.291-47.702-132.432-20.683c-43.141,27.019-59.849,81.649-39.202,128.177l-35.53,33.361
				l-37.137-22.283c-0.177-0.106-0.377-0.109-0.558-0.201c-1.029-0.454-2.119-0.755-3.235-0.895
				c-0.209-0.015-0.386-0.121-0.598-0.121c-0.304,0.043-0.606,0.104-0.903,0.182c-0.585,0.054-1.163,0.171-1.724,0.348
				c-1.554,0.503-2.923,1.459-3.93,2.745c-0.219,0.203-0.427,0.419-0.622,0.645l-61.088,95.025v-98.946h17.067
				c4.713,0,8.533-3.82,8.533-8.533s-3.82-8.533-8.533-8.533H17.067v-17.067h17.067c4.713,0,8.533-3.82,8.533-8.533
				s-3.82-8.533-8.533-8.533H17.067v-17.067h17.067c4.713,0,8.533-3.821,8.533-8.533c0-4.713-3.82-8.533-8.533-8.533H17.067v-17.067
				h17.067c4.713,0,8.533-3.82,8.533-8.533s-3.82-8.533-8.533-8.533H17.067V93.867h17.067c4.713,0,8.533-3.821,8.533-8.533
				s-3.82-8.533-8.533-8.533H17.067V29.134L36.634,48.7c3.341,3.281,8.701,3.256,12.012-0.054s3.335-8.671,0.054-12.012L14.57,2.503
				c-2.444-2.43-6.108-3.153-9.292-1.835C2.093,1.986,0.012,5.088,0,8.534v494.933C0,508.18,3.821,512,8.534,512h494.933
				c2.263,0.001,4.434-0.898,6.035-2.499c1.6-1.6,2.499-3.771,2.499-6.035V8.534C512.001,4.8,509.573,1.499,506.009,0.388z
				 M76.8,494.934H17.067V360.909L76.8,267.99V494.934z M162.134,494.934H93.867V254.006l29.742,17.844
				c3.272,1.966,7.452,1.518,10.233-1.096l28.292-26.563V494.934z M247.467,494.934H179.2V246.705
				c17.432,19.897,41.906,32.252,68.267,34.464V494.934z M332.8,494.934h-68.267V281.168c26.361-2.212,50.834-14.567,68.267-34.464
				V494.934z M256,264.534c-47.128,0-85.333-38.205-85.333-85.333c0.052-47.107,38.227-85.281,85.333-85.333
				c47.128,0,85.333,38.205,85.333,85.333S303.129,264.534,256,264.534z M418.134,494.934h-68.267V220.002
				c13.193-30.125,10.988-64.773-5.919-92.981l39.985-23.245l34.2,20.523V494.934z M494.934,494.934H435.2V122.135l59.733-86.284
				V494.934z"/>
			<path d="M281.6,153.601c0,4.713,3.82,8.533,8.533,8.533s8.533-3.821,8.533-8.533c0-16.483-14.683-30.271-34.133-33.443v-0.691
				c0-4.713-3.82-8.533-8.533-8.533c-4.713,0-8.533,3.82-8.533,8.533v0.691c-19.45,3.172-34.133,16.96-34.133,33.443
				c0,16.483,14.683,30.271,34.133,33.443v33.738c-9.811-2.41-17.067-8.723-17.067-15.981c0-4.713-3.82-8.533-8.533-8.533
				s-8.533,3.82-8.533,8.533c0,16.483,14.683,30.271,34.133,33.443v0.691c0,4.713,3.82,8.533,8.533,8.533
				c4.713,0,8.533-3.82,8.533-8.533v-0.691c19.45-3.172,34.133-16.96,34.133-33.443c0-16.483-14.683-30.271-34.133-33.443v-33.739
				C274.345,140.029,281.6,146.343,281.6,153.601z M247.467,169.581c-9.811-2.41-17.067-8.723-17.067-15.981
				c0-7.258,7.256-13.571,17.067-15.981V169.581z M281.6,204.8c0,7.258-7.256,13.571-17.067,15.981v-31.962
				C274.345,191.229,281.6,197.543,281.6,204.8z"/>
		</g>
	</g>
</g>
<g>
</g>
<g>
</g>
<g>
</g>
<g>
</g>
<g>
</g>
<g>
</g>
<g>
</g>
<g>
</g>
<g>
</g>
<g>
</g>
<g>
</g>
<g>
</g>
<g>
</g>
<g>
</g>
<g>
</g>
</svg>
