<?xml version="1.0" encoding="UTF-8"?>
<svg xmlns="http://www.w3.org/2000/svg" xmlns:xlink="http://www.w3.org/1999/xlink" width="512" height="512" viewBox="0 0 60 60" version="1.1"><!-- Generator: Sketch 51.3 (57544) - http://www.bohemiancoding.com/sketch --><title>016 - Money Cover</title><desc>Created with Sketch.</desc><defs/><g id="Page-1" stroke="none" stroke-width="1" fill="none" fill-rule="evenodd"><g id="016---Money-Cover" fill-rule="nonzero"><path d="M9,4 L11,4 C15.418278,4 19,7.581722 19,12 L19,16 L15,16 C10.581722,16 7,12.418278 7,8 L7,6 C7,4.8954305 7.8954305,4 9,4 Z" id="Shape" fill="#E8EDFC"/><path d="M27,14.92 C25.7874258,15.6316748 24.4059855,16.0046637 23,16 L19,16.0000432 L19,12 C19,7.581722 22.581722,4 27,4 L29,4 C30.1032019,4.0032948 30.9967052,4.89679813 31,6 L31,7.18 L27,14.92 Z" id="Shape" fill="#E8EDFC"/><path d="M37,47 C37,59.15 28.94,59 19,59 L17.5,59 C8.26,58.98 1,58.53 1,47 C1,35.47 8.26,16.99 17.51,15.15 C18.0003751,15.0501295 18.4995583,14.9998761 19,15 C21.88,15 24.6,16.66 27,19.32 L35.26,35.7 C36.3405776,39.3723845 36.9257525,43.1726585 37,47 Z" id="Shape" fill="#CAD9FC"/><path d="M34,47 C34,58.53 26.74,58.98 17.5,59 C8.26,58.98 1,58.53 1,47 C1,35.47 8.26,16.99 17.51,15.15 C20.0609971,15.8161556 22.3339334,17.2765784 24,19.32 L32.26,35.7 C33.3405776,39.3723845 33.9257525,43.1726585 34,47 Z" id="Shape" fill="#E8EDFC"/><path d="M59,8.24 L59,24.44 C58.9952214,27.828663 57.3475956,31.0046294 54.58,32.96 L43.52,40.83 C43.2114844,41.060006 42.7885156,41.060006 42.48,40.83 L41.5,40.13 L31.42,32.96 C28.6559053,31.0015786 27.0092889,27.8275577 27,24.44 L27,8.24 C27.0005992,8.0409412 27.118079,7.86080551 27.3,7.78 L41.5,1.65 L42.8,1.09 C42.9265851,1.0300079 43.0734149,1.0300079 43.2,1.09 L58.7,7.78 C58.881921,7.86080551 58.9994008,8.0409412 59,8.24 Z" id="Shape" fill="#E8EDFC"/><path d="M56,8.24 L56,24.44 C55.9952214,27.828663 54.3475956,31.0046294 51.58,32.96 L41.5,40.13 L31.42,32.96 C28.6559053,31.0015786 27.0092889,27.8275577 27,24.44 L27,8.24 C27.0005992,8.0409412 27.118079,7.86080551 27.3,7.78 L41.5,1.65 L55.7,7.78 C55.881921,7.86080551 55.9994008,8.0409412 56,8.24 Z" id="Shape" fill="#FFFFFF"/><path d="M33.741,29.7 C32.0321666,28.4911625 31.0115128,26.5321477 31,24.439 L31,10.539 L43,5.357 L55,10.541 L55,24.441 C54.9885059,26.5336047 53.9677757,28.4920215 52.259,29.7 L43,36.294 L33.741,29.7 Z" id="Shape" fill="#A4C2F7"/><path d="M17.5,59 L20.358,59 C11.186,58.975 4,58.471 4,47 C4,36.464 10.053,20.16 18.145,16 L18,16 C13.581722,16 10,12.418278 10,8 L10,6 C10.0028791,5.0265519 10.7062172,4.19656229 11.666,4.034 C11.446,4.015 11.225,4 11,4 L9,4 C7.8954305,4 7,4.8954305 7,6 L7,8 C7,12.418278 10.581722,16 15,16 L15.145,16 C7.053,20.16 1,36.464 1,47 C1,58.53 8.26,58.98 17.5,59 Z" id="Shape" fill="#FFFFFF"/><path d="M21.5,49 L12,49 C11.4477153,49 11,48.5522847 11,48 C11,47.4477153 11.4477153,47 12,47 L21.5,47 C23.4329966,47 25,45.4329966 25,43.5 C25,41.5670034 23.4329966,40 21.5,40 L16.5,40 C13.4624339,40 11,37.5375661 11,34.5 C11,31.4624339 13.4624339,29 16.5,29 L26,29 C26.5522847,29 27,29.4477153 27,30 C27,30.5522847 26.5522847,31 26,31 L16.5,31 C14.5670034,31 13,32.5670034 13,34.5 C13,36.4329966 14.5670034,38 16.5,38 L21.5,38 C24.5375661,38 27,40.4624339 27,43.5 C27,46.5375661 24.5375661,49 21.5,49 Z" id="Shape" fill="#7FACFA"/><path d="M19,52 C18.4477153,52 18,51.5522847 18,51 L18,27 C18,26.4477153 18.4477153,26 19,26 C19.5522847,26 20,26.4477153 20,27 L20,51 C20,51.5522847 19.5522847,52 19,52 Z" id="Shape" fill="#7FACFA"/><path d="M19,16 C18.7348052,15.9999434 18.4804927,15.8945494 18.293,15.707 L12.293,9.707 C11.9140278,9.31462111 11.9194476,8.69091522 12.3051814,8.30518142 C12.6909152,7.91944763 13.3146211,7.91402779 13.707,8.293 L19,13.586 L22.293,10.293 C22.6853789,9.91402779 23.3090848,9.91944763 23.6948186,10.3051814 C24.0805524,10.6909152 24.0859722,11.3146211 23.707,11.707 L19.707,15.707 C19.5195073,15.8945494 19.2651948,15.9999434 19,16 Z" id="Shape" fill="#CAD9FC"/><path d="M0,47 C0.105106442,42.5602883 0.848731669,38.1588218 2.208,33.931 C3.49915357,29.6280882 5.39581765,25.5307147 7.841,21.762 C9.09249382,19.8352523 10.6231906,18.1050459 12.383,16.628 C14.226713,15.0267816 16.560089,14.1000607 19,14 L19,16 C17.0170891,16.1013985 15.1270218,16.8715956 13.638,18.185 C12.0347068,19.5373979 10.6402819,21.1195209 9.5,22.88 C7.16374853,26.4865815 5.35164832,30.406738 4.118,34.523 C2.81942491,38.5594266 2.1061708,42.76116 2,47 L0,47 Z" id="Shape" fill="#FFFFFF"/><path d="M1.384,42.019 C1.11876815,41.9822908 0.849969004,42.0544718 0.638804794,42.2191083 C0.427640584,42.3837448 0.292084148,42.6268241 0.263,42.893 C0.0984166566,44.2559877 0.0106113715,45.6271524 0,47 L2,47 C2.0103947,45.7060201 2.09352586,44.4136477 2.249,43.129 C2.30558455,42.5867319 1.92365751,42.096629 1.384,42.019 Z" id="Shape" fill="#428DFF"/><path d="M19,16 L19,14 C16.560089,14.1000607 14.226713,15.0267816 12.383,16.628 C10.6231906,18.1050459 9.09249382,19.8352523 7.841,21.762 C5.39581765,25.5307147 3.49915357,29.6280882 2.208,33.931 L1.918,34.908 C1.84187947,35.1643885 1.87239965,35.4406428 2.00265216,35.6742314 C2.13290466,35.9078201 2.35187564,36.0789914 2.61,36.149 C3.13698695,36.2889066 3.68017267,35.9865966 3.839,35.465 L4.118,34.523 C5.35164832,30.406738 7.16374853,26.4865815 9.5,22.88 C10.6402819,21.1195209 12.0347068,19.5373979 13.638,18.185 C15.1270218,16.8715956 17.0170891,16.1013985 19,16 Z" id="Shape" fill="#428DFF"/><path d="M0.931,38.861 C0.875905436,39.1244971 0.926158183,39.3990925 1.071,39.626 L1.196,39.774 C1.24350747,39.8220674 1.29733456,39.863447 1.356,39.897 C1.40626253,39.9362906 1.46224447,39.9676539 1.522,39.99 C1.58509713,40.0129594 1.64955343,40.0319957 1.715,40.047 C1.97463083,40.0917255 2.2416154,40.0382573 2.464,39.897 C2.5693492,39.8216331 2.66015263,39.7277803 2.732,39.62 C2.95453318,39.2916751 2.96198741,38.8628609 2.751,38.527 C2.67614371,38.4189836 2.58228643,38.3254651 2.474,38.251 C2.3683512,38.1745664 2.24877336,38.1195334 2.122,38.089 C1.86273647,38.0319009 1.59143437,38.0774166 1.365,38.216 C1.14458227,38.3689826 0.989682402,38.5991909 0.931,38.861 Z" id="Shape" fill="#428DFF"/><path d="M19.7,60 L18.641,60 C13.746,59.991 9.12,60 5.729,58.407 C1.82,56.568 0,52.943 0,47 C-6.76353751e-17,46.4477153 0.44771525,46 1,46 C1.55228475,46 2,46.4477153 2,47 C2,52.147 3.413,55.107 6.581,56.6 C9.567,58 13.805,58 18.641,58 L19.359,58 C24.229,58 28.433,58 31.419,56.6 C34.587,55.107 36,52.147 36,47 C35.9301986,43.2644186 35.3584089,39.5551846 34.3,35.972 C34.1500547,35.4401498 34.4596498,34.8874453 34.9915,34.7375 C35.5233502,34.5875547 36.0760547,34.8971498 36.226,35.429 C37.333263,39.1890584 37.9299416,43.0809233 38,47 C38,52.943 36.18,56.568 32.271,58.407 C28.96,59.964 24.473,60 19.7,60 Z" id="Shape" fill="#428DFF"/><path d="M27,20.32 C26.7171248,20.3198978 26.4475264,20.1999956 26.258,19.99 C23.868,17.342 21.427,16 19,16 C18.4477153,16 18,15.5522847 18,15 C18,14.4477153 18.4477153,14 19,14 C22.017,14 24.958,15.564 27.742,18.65 C28.0067157,18.9433054 28.07392,19.364974 27.9134956,19.726037 C27.7530712,20.0871 27.3950981,20.3198574 27,20.32 Z" id="Shape" fill="#428DFF"/><path d="M19,16 L15,16 C10.0317218,15.9944889 6.00551113,11.9682782 6,7 L6,5 C6,3.34314575 7.34314575,2 9,2 L11,2 C15.9682782,2.00551113 19.9944889,6.03172183 20,11 L20,15 C20,15.5522847 19.5522847,16 19,16 Z M9,4 C8.44771525,4 8,4.44771525 8,5 L8,7 C8.00440864,10.8641657 11.1358343,13.9955914 15,14 L18,14 L18,11 C17.9955914,7.13583434 14.8641657,4.00440864 11,4 L9,4 Z" id="Shape" fill="#428DFF"/><path d="M23,16 L19,16 C18.4477153,16 18,15.5522847 18,15 L18,11 C18.0055111,6.03172183 22.0317218,2.00551113 27,2 L29,2 C30.6568542,2 32,3.34314575 32,5 L32,6.18 C32,6.73228475 31.5522847,7.18 31,7.18 C30.4477153,7.18 30,6.73228475 30,6.18 L30,5 C30,4.44771525 29.5522847,4 29,4 L27,4 C23.1358343,4.00440864 20.0044086,7.13583434 20,11 L20,14 L23,14 C24.2270566,14.0031137 25.4326505,13.6782386 26.492,13.059 C26.8001207,12.8667478 27.1882535,12.8566625 27.5059427,13.0326534 C27.823632,13.2086444 28.0209306,13.5430423 28.021358,13.9062214 C28.0217853,14.2694006 27.8252742,14.6042619 27.508,14.781 C26.1412497,15.5828405 24.5845947,16.0037728 23,16 Z" id="Shape" fill="#428DFF"/><path d="M43,42 C42.6055819,41.9993594 42.2211393,41.8759883 41.9,41.647 L30.842,33.776 C27.8159154,31.62732 26.0128026,28.1503138 26,24.439 L26,7.912 C25.999409,7.51383898 26.2350788,7.15326415 26.6,6.994 L42.6,0.082 C42.8527492,-0.0269993194 43.1392508,-0.0269993194 43.392,0.082 L59.392,6.994 C59.7569212,7.15326415 59.992591,7.51383898 59.992,7.912 L59.992,24.439 C59.9795197,28.1506671 58.176371,31.6281149 55.15,33.777 L44.1,41.648 C43.7789225,41.8769936 43.3943714,42.00005 43,42 Z M28,8.569 L28,24.439 C28.010937,27.5033816 29.5006092,30.37398 32,32.147 L43,39.977 L54,32.147 C56.4996486,30.3742044 57.989395,27.5034632 58,24.439 L58,8.569 L43,2.089 L28,8.569 Z" id="Shape" fill="#428DFF"/><path d="M43,37.294 C42.792029,37.29382 42.5892884,37.2288032 42.42,37.108 L33.161,30.518 C31.1883258,29.1202846 30.0112542,26.856628 30,24.439 L30,10.539 C29.999409,10.140839 30.2350788,9.78026415 30.6,9.621 L42.6,4.437 C42.8527492,4.32800068 43.1392508,4.32800068 43.392,4.437 L55.392,9.621 C55.7569212,9.78026415 55.992591,10.140839 55.992,10.539 L55.992,24.439 C55.981409,26.8567917 54.8041891,29.1207335 52.831,30.518 L43.572,37.108 C43.404939,37.2272308 43.2052365,37.2921691 43,37.294 Z M34.321,28.894 L43,35.066 L51.679,28.889 C53.1258669,27.8674947 53.9903181,26.2101023 54,24.439 L54,11.2 L43,6.447 L32,11.2 L32,24.439 C32.0106764,26.2098555 32.8749046,27.8668203 34.321,28.889 L34.321,28.894 Z" id="Shape" fill="#428DFF"/><path d="M40.714,27.143 C40.4976298,27.143 40.2870962,27.0728221 40.114,26.943 L35.543,23.515 C35.2571875,23.3006406 35.1074453,22.9500853 35.1501797,22.5953848 C35.1929141,22.2406842 35.4216328,21.9357259 35.7501797,21.7953848 C36.0787266,21.6550436 36.4571875,21.7006406 36.743,21.915 L40.543,24.762 L49.076,14.09 C49.2991124,13.8107969 49.6542297,13.6718317 50.0075829,13.7254511 C50.360936,13.7790706 50.6588421,14.0171286 50.7890829,14.3499511 C50.9193236,14.6827736 50.8621124,15.0597969 50.639,15.339 L41.5,26.767 C41.3092448,27.0058859 41.0196993,27.1443962 40.714,27.143 Z" id="Shape" fill="#428DFF"/></g></g></svg>
