<svg height="511pt" viewBox="0 0 511 511.93385" width="511pt" xmlns="http://www.w3.org/2000/svg"><path d="m43.132812 401.066406h153.601563c4.710937 0 8.53125-3.820312 8.53125-8.53125 0-4.714844-3.820313-8.535156-8.53125-8.535156h-153.601563c-14.136718 0-25.597656-11.460938-25.597656-25.601562v-315.730469c0-14.140625 11.460938-25.601563 25.597656-25.601563h384c14.140626 0 25.601563 11.460938 25.601563 25.601563v349.867187c0 4.710938 3.820313 8.53125 8.53125 8.53125 4.714844 0 8.535156-3.820312 8.535156-8.53125v-349.867187c-.027343-23.554688-19.113281-42.6406252-42.667969-42.667969h-384c-23.550781.0273438-42.636718 19.113281-42.664062 42.667969v315.730469c.027344 23.554687 19.113281 42.640624 42.664062 42.667968zm0 0"/><path d="m418.601562 213.332031c4.710938 0 8.53125-3.820312 8.53125-8.53125v-102.402343c0-9.425782-7.640624-17.066407-17.066406-17.066407h-349.867187c-9.207031-.195312-16.835938 7.09375-17.066407 16.300781v240.46875c.230469 9.207032 7.859376 16.492188 17.066407 16.296876h119.46875c4.710937 0 8.53125-3.820313 8.53125-8.53125 0-4.714844-3.820313-8.535157-8.53125-8.535157h-42.667969v-34.132812h34.132812c4.714844 0 8.535157-3.820313 8.535157-8.53125 0-4.714844-3.820313-8.535157-8.535157-8.535157h-34.132812v-34.132812h51.199219c4.714843 0 8.535156-3.820312 8.535156-8.535156 0-4.710938-3.820313-8.53125-8.535156-8.53125h-51.199219v-34.132813h93.867188c4.710937 0 8.53125-3.820312 8.53125-8.535156 0-4.710937-3.820313-8.53125-8.53125-8.53125h-93.867188v-34.132813h273.066406v51.199219c0 4.710938 3.820313 8.53125 8.535156 8.53125zm-298.667968-110.933593v34.136718h-59.734375v-34.136718zm0 238.933593h-59.734375v-34.132812h59.734375zm0-51.199219h-59.734375v-34.132812h59.734375zm0-51.199218h-59.734375v-34.132813h59.734375zm0-51.199219h-59.734375v-34.132813h59.734375zm17.066406-51.199219v-34.136718h273.066406v34.136718zm0 0"/><path d="m77.265625 59.734375c4.714844 0 8.535156-3.820313 8.535156-8.535156 0-4.710938-3.820312-8.53125-8.535156-8.53125h-17.066406c-4.710938 0-8.53125 3.820312-8.53125 8.53125 0 4.714843 3.820312 8.535156 8.53125 8.535156zm0 0"/><path d="m128.46875 59.734375c4.710938 0 8.53125-3.820313 8.53125-8.535156 0-4.710938-3.820312-8.53125-8.53125-8.53125h-17.070312c-4.710938 0-8.53125 3.820312-8.53125 8.53125 0 4.714843 3.820312 8.535156 8.53125 8.535156zm0 0"/><path d="m196.734375 59.734375c4.710937 0 8.53125-3.820313 8.53125-8.535156 0-4.710938-3.820313-8.53125-8.53125-8.53125h-34.132813c-4.714843 0-8.535156 3.820312-8.535156 8.53125 0 4.714843 3.820313 8.535156 8.535156 8.535156zm0 0"/><path d="m418.601562 42.667969h-187.734374c-4.714844 0-8.535157 3.820312-8.535157 8.53125 0 4.714843 3.820313 8.535156 8.535157 8.535156h187.734374c4.710938 0 8.53125-3.820313 8.53125-8.535156 0-4.710938-3.820312-8.53125-8.53125-8.53125zm0 0"/><path d="m316.449219 230.398438c-5.628907 0-11.242188.546874-16.761719 1.640624-10.921875 2.167969-21.308594 6.46875-30.566406 12.664063-4.675782 3.128906-9.035156 6.707031-13.011719 10.691406-2.21875 2.140625-3.109375 5.316407-2.328125 8.296875.78125 2.984375 3.109375 5.316406 6.09375 6.097656 2.984375.777344 6.15625-.109374 8.300781-2.328124 3.191407-3.179688 6.6875-6.039063 10.433594-8.535157 7.386719-4.945312 15.679687-8.378906 24.398437-10.101562 4.425782-.886719 8.925782-1.34375 13.441407-1.359375 4.710937 0 8.53125-3.820313 8.53125-8.53125 0-4.714844-3.820313-8.535156-8.53125-8.535156zm0 0"/><path d="m242.8125 292.265625c-4.617188-.910156-9.097656 2.09375-10.015625 6.707031-1.109375 5.519532-1.671875 11.132813-1.683594 16.761719 0 4.710937 3.820313 8.53125 8.535157 8.53125 4.710937 0 8.53125-3.820313 8.53125-8.53125 0-4.511719.441406-9.015625 1.316406-13.441406.914062-4.613281-2.074219-9.097657-6.683594-10.027344zm0 0"/><path d="m416.894531 380.3125c33.039063-51.324219 22.101563-119.296875-25.375-157.660156-47.472656-38.367188-116.226562-34.800782-159.476562 8.273437-43.246094 43.074219-47.089844 111.816407-8.914063 159.445313 38.171875 47.625 106.101563 58.839844 157.558594 26.003906l88.070312 88.054688c9.96875 9.988281 26.148438 10.007812 36.136719.039062s10.003907-26.144531.039063-36.132812zm-172.871093 7.824219c-39.984376-39.988281-39.984376-104.824219.003906-144.8125 39.988281-39.988281 104.824218-39.988281 144.816406 0 39.988281 39.988281 39.988281 104.824219 0 144.8125-19.109375 19.378906-45.1875 30.285156-72.398438 30.285156-27.214843 0-53.292968-10.90625-72.402343-30.285156zm248.816406 104.304687c-3.304688 3.28125-8.640625 3.28125-11.945313 0l-86.410156-86.417968c2.183594-1.886719 4.371094-3.746094 6.441406-5.820313 2.074219-2.070313 3.765625-4.070313 5.582031-6.152344l86.390626 86.375c1.628906 1.578125 2.539062 3.753907 2.527343 6.019531-.015625 2.269532-.957031 4.429688-2.601562 5.988282zm0 0"/></svg>