<?xml version="1.0" encoding="UTF-8"?>
<svg xmlns="http://www.w3.org/2000/svg" xmlns:xlink="http://www.w3.org/1999/xlink" width="512" height="512" viewBox="0 0 60 60" version="1.1"><!-- Generator: Sketch 51.3 (57544) - http://www.bohemiancoding.com/sketch --><title>036 - Device Cover</title><desc>Created with Sketch.</desc><defs><linearGradient x1="-1.71818182%" y1="3.95294118%" x2="86.25%" y2="117.794118%" id="linearGradient-1"><stop stop-color="#D3DFF2" offset="0%"/><stop stop-color="#D3DFF2" offset="17.2%"/><stop stop-color="#D3DFF2" offset="20%"/><stop stop-color="#DAE2F2" offset="20%"/><stop stop-color="#EBEAF2" offset="20.1%"/><stop stop-color="#F6EFF2" offset="20.1%"/><stop stop-color="#FDF2F2" offset="20.2%"/><stop stop-color="#FFF3F2" offset="20.5%"/><stop stop-color="#FFF3F2" offset="25.2%"/><stop stop-color="#FFF3F2" offset="26%"/><stop stop-color="#D3DFF2" offset="26%"/><stop stop-color="#D3DFF2" offset="39.7%"/><stop stop-color="#D3DFF2" offset="42%"/><stop stop-color="#DAE2F2" offset="42%"/><stop stop-color="#EBEAF2" offset="42.1%"/><stop stop-color="#F6EFF2" offset="42.1%"/><stop stop-color="#FDF2F2" offset="42.2%"/><stop stop-color="#FFF3F2" offset="42.5%"/><stop stop-color="#FFF3F2" offset="48.9%"/><stop stop-color="#FFF3F2" offset="50%"/><stop stop-color="#F8F0F2" offset="50%"/><stop stop-color="#E7E8F2" offset="50%"/><stop stop-color="#DCE3F2" offset="50%"/><stop stop-color="#D5E0F2" offset="50%"/><stop stop-color="#D3DFF2" offset="50.1%"/><stop stop-color="#D3DFF2" offset="70.6%"/><stop stop-color="#D3DFF2" offset="74%"/><stop stop-color="#FFF3F2" offset="74.1%"/><stop stop-color="#FFF3F2" offset="83.5%"/><stop stop-color="#FFF3F2" offset="85%"/><stop stop-color="#D3DFF2" offset="85.1%"/></linearGradient></defs><g id="Page-1" stroke="none" stroke-width="1" fill="none" fill-rule="evenodd"><g id="036---Device-Cover" fill-rule="nonzero"><path d="M56,28.26 L56,54 L4,54 L4,15 C4.0032948,13.8967981 4.89679813,13.0032948 6,13 L31,13 L56,28.26 Z" id="Shape" fill="#CAD9FC"/><path d="M53,28.26 L53,54 L4,54 L4,15 C4.0032948,13.8967981 4.89679813,13.0032948 6,13 L28,13 L53,28.26 Z" id="Shape" fill="#E8EDFC"/><path d="M52,31.2 L52,51 L8,51 L8,18 C8,17.4477153 8.44771525,17 9,17 L31,17" id="Shape" fill="url(#linearGradient-1)"/><path d="M59,51.5 L59,55 C59.0030533,55.3377372 58.9593041,55.6742693 58.87,56 C58.416779,57.766642 56.8238506,59.0014703 55,59 L5,59 C3.17614936,59.0014703 1.58322096,57.766642 1.13,56 C1.04069588,55.6742693 0.996946717,55.3377372 1,55 L1,51.5 C1,51.2238576 1.22385763,51 1.5,51 L58.5,51 C58.7761424,51 59,51.2238576 59,51.5 Z" id="Shape" fill="#7FACFA"/><path d="M56,51.5 L56,55 C56.0030533,55.3377372 55.9593041,55.6742693 55.87,56 C55.416779,57.766642 53.8238506,59.0014703 52,59 L5,59 C3.17614936,59.0014703 1.58322096,57.766642 1.13,56 C1.04069588,55.6742693 0.996946717,55.3377372 1,55 L1,51.5 C1,51.2238576 1.22385763,51 1.5,51 L55.5,51 C55.7761424,51 56,51.2238576 56,51.5 Z" id="Shape" fill="#A4C2F7"/><path d="M37.382,55 L22.618,55 C22.2393343,54.9997978 21.8932635,54.7857294 21.724,54.447 L20,51 L40,51 L38.276,54.447 C38.1067365,54.7857294 37.7606657,54.9997978 37.382,55 Z" id="Shape" fill="#E8EDFC"/><path d="M59,7.33 L59,21.46 C58.9949804,24.4268418 57.5525697,27.2073028 55.13,28.92 L45.29,35.93 C45.115307,36.0500632 44.884693,36.0500632 44.71,35.93 L43.5,35.07 L34.87,28.92 C32.4474303,27.2073028 31.0050196,24.4268418 31,21.46 L31,7.33 C31.0005992,7.1309412 31.118079,6.95080551 31.3,6.87 L43.5,1.6 L44.8,1.04 C44.9286443,0.989991901 45.0713557,0.989991901 45.2,1.04 L58.7,6.87 C58.881921,6.95080551 58.9994008,7.1309412 59,7.33 Z" id="Shape" fill="#E8EDFC"/><path d="M56,7.33 L56,21.46 C55.9949804,24.4268418 54.5525697,27.2073028 52.13,28.92 L43.5,35.07 L34.87,28.92 C32.4474303,27.2073028 31.0050196,24.4268418 31,21.46 L31,7.33 C31.0005992,7.1309412 31.118079,6.95080551 31.3,6.87 L43.5,1.6 L55.7,6.87 C55.881921,6.95080551 55.9994008,7.1309412 56,7.33 Z" id="Shape" fill="#FFFFFF"/><path d="M37.188,25.664 C35.8239601,24.6992838 35.0092071,23.1356877 35,21.465 L35,9.633 L45,5.313 L55,9.633 L55,21.465 C54.991115,23.1360413 54.1763259,24.7000788 52.812,25.665 L45,31.225 L37.188,25.664 Z" id="Shape" fill="#E8EDFC"/><path d="M5,59 L8,59 C6.17614936,59.0014703 4.58322096,57.766642 4.13,56 C4.04069588,55.6742693 3.99694672,55.3377372 4,55 L4,51.5 C4,51.2238576 4.22385763,51 4.5,51 L7,51 L7,15 C7.0032948,13.8967981 7.89679813,13.0032948 9,13 L6,13 C4.89679813,13.0032948 4.0032948,13.8967981 4,15 L4,51 L1.5,51 C1.22385763,51 1,51.2238576 1,51.5 L1,55 C0.996946717,55.3377372 1.04069588,55.6742693 1.13,56 C1.58322096,57.766642 3.17614936,59.0014703 5,59 Z" id="Shape" fill="#FFFFFF"/><path d="M9,56 L1,56 C0.44771525,56 6.76353751e-17,55.5522847 0,55 C-6.76353751e-17,54.4477153 0.44771525,54 1,54 L9,54 C9.55228475,54 10,54.4477153 10,55 C10,55.5522847 9.55228475,56 9,56 Z" id="Shape" fill="#CAD9FC"/><path d="M15,56 L13,56 C12.4477153,56 12,55.5522847 12,55 C12,54.4477153 12.4477153,54 13,54 L15,54 C15.5522847,54 16,54.4477153 16,55 C16,55.5522847 15.5522847,56 15,56 Z" id="Shape" fill="#CAD9FC"/><path d="M59,56 L51,56 C50.4477153,56 50,55.5522847 50,55 C50,54.4477153 50.4477153,54 51,54 L59,54 C59.5522847,54 60,54.4477153 60,55 C60,55.5522847 59.5522847,56 59,56 Z" id="Shape" fill="#CAD9FC"/><path d="M47,56 L45,56 C44.4477153,56 44,55.5522847 44,55 C44,54.4477153 44.4477153,54 45,54 L47,54 C47.5522847,54 48,54.4477153 48,55 C48,55.5522847 47.5522847,56 47,56 Z" id="Shape" fill="#CAD9FC"/><path d="M12,25 C11.5956041,24.9999137 11.2310659,24.7562725 11.076322,24.3826546 C10.9215781,24.0090366 11.0070921,23.5789943 11.293,23.293 L14.293,20.293 C14.6853789,19.9140278 15.3090848,19.9194476 15.6948186,20.3051814 C16.0805524,20.6909152 16.0859722,21.3146211 15.707,21.707 L12.707,24.707 C12.5195073,24.8945494 12.2651948,24.9999434 12,25 Z" id="Shape" fill="#428DFF"/><path d="M13,31 C12.5956041,30.9999137 12.2310659,30.7562725 12.076322,30.3826546 C11.9215781,30.0090366 12.0070921,29.5789943 12.293,29.293 L20.293,21.293 C20.6853789,20.9140278 21.3090848,20.9194476 21.6948186,21.3051814 C22.0805524,21.6909152 22.0859722,22.3146211 21.707,22.707 L13.707,30.707 C13.5195073,30.8945494 13.2651948,30.9999434 13,31 Z" id="Shape" fill="#428DFF"/><path d="M14,37 C13.5956041,36.9999137 13.2310659,36.7562725 13.076322,36.3826546 C12.9215781,36.0090366 13.0070921,35.5789943 13.293,35.293 L26.293,22.293 C26.6853789,21.9140278 27.3090848,21.9194476 27.6948186,22.3051814 C28.0805524,22.6909152 28.0859722,23.3146211 27.707,23.707 L14.707,36.707 C14.5195073,36.8945494 14.2651948,36.9999434 14,37 Z" id="Shape" fill="#428DFF"/><path d="M45,37 C44.6289221,37.0003112 44.2670352,36.8845773 43.965,36.669 L34.289,29.781 C31.6077945,27.8777289 30.0104682,24.797038 30,21.509 L30,7.047 C29.999409,6.64883898 30.2350788,6.28826415 30.6,6.129 L44.6,0.082 C44.8525505,-0.0279576698 45.1394495,-0.0279576698 45.392,0.082 L59.392,6.129 C59.7569212,6.28826415 59.992591,6.64883898 59.992,7.047 L59.992,21.509 C59.9815318,24.797038 58.3842055,27.8777289 55.703,29.781 L46.027,36.669 C45.7271893,36.8829945 45.3683453,36.9986492 45,37 Z M32,7.705 L32,21.505 C32.0097266,24.1463069 33.2942465,26.6203764 35.449,28.148 L45,34.951 L54.551,28.151 C56.705467,26.6235813 57.989951,24.1499534 58,21.509 L58,7.705 L45,2.089 L32,7.705 Z" id="Shape" fill="#428DFF"/><path d="M45,32.269 C44.792029,32.26882 44.5892884,32.2038032 44.42,32.083 L36.608,26.522 C34.980878,25.3695623 34.0097397,23.5028766 34,21.509 L34,9.677 C33.999409,9.27883898 34.2350788,8.91826415 34.6,8.759 L44.6,4.439 C44.8527492,4.33000068 45.1392508,4.33000068 45.392,4.439 L55.392,8.759 C55.7569212,8.91826415 55.992591,9.27883898 55.992,9.677 L55.992,21.509 C55.9824167,23.5031892 55.0112795,25.3702451 53.384,26.523 L45.572,32.083 C45.404939,32.2022308 45.2052365,32.2671691 45,32.269 Z M37.769,24.894 L45,30.042 L52.231,24.894 C53.3323369,24.117224 53.9910962,22.8566812 54,21.509 L54,10.334 L45,6.446 L36,10.334 L36,21.509 C36.0087381,22.8567225 36.6675346,24.1173365 37.769,24.894 Z" id="Shape" fill="#428DFF"/><path d="M43,24 C42.7836298,24 42.5730962,23.9298221 42.4,23.8 L38.4,20.8 C38.1141875,20.5856406 37.9644453,20.2350853 38.0071797,19.8803848 C38.0499141,19.5256842 38.2786328,19.2207259 38.6071797,19.0803848 C38.9357266,18.9400436 39.3141875,18.9856406 39.6,19.2 L42.824,21.618 L50.224,12.375 C50.5700579,11.9477006 51.1961792,11.8799554 51.6256245,12.2233466 C52.0550699,12.5667379 52.1267114,13.1924254 51.786,13.624 L43.786,23.624 C43.5952448,23.8628859 43.3056993,24.0013962 43,24 Z" id="Shape" fill="#428DFF"/><path d="M55,60 L5,60 C2.23994685,59.9966939 0.00330611633,57.7600532 0,55 L0,51 C-6.76353751e-17,50.4477153 0.44771525,50 1,50 L59,50 C59.5522847,50 60,50.4477153 60,51 L60,55 C59.9966939,57.7600532 57.7600532,59.9966939 55,60 Z M2,52 L2,55 C2,56.6568542 3.34314575,58 5,58 L55,58 C56.6568542,58 58,56.6568542 58,55 L58,52 L2,52 Z" id="Shape" fill="#428DFF"/><path d="M37.382,56 L22.618,56 C21.8594388,56.0030461 21.165329,55.5739318 20.829,54.894 L19.105,51.447 C18.9500617,51.1369384 18.9667366,50.7687558 19.1490684,50.4739691 C19.3314002,50.1791823 19.653382,49.9998384 20,50 L40,50 C40.3475069,49.9980979 40.6710847,50.1767435 40.8546237,50.4718336 C41.0381628,50.7669236 41.0553431,51.1361412 40.9,51.447 L39.171,54.9 C38.8328012,55.5774329 38.1391514,56.0039364 37.382,56 Z M37.382,54 L38.382,52 L21.618,52 L22.618,54 L37.382,54 Z" id="Shape" fill="#428DFF"/><path d="M30,56 C29.4477153,56 29,55.5522847 29,55 L29,51 C29,50.4477153 29.4477153,50 30,50 C30.5522847,50 31,50.4477153 31,51 L31,55 C31,55.5522847 30.5522847,56 30,56 Z" id="Shape" fill="#428DFF"/><polygon id="Shape" fill="#FFFFFF" points="5 15 5 28 5 51 3 51 3 28 3 15"/><path d="M4,20 C4.55228475,20 5,19.5522847 5,19 L5,15 L3,15 L3,19 C3,19.5522847 3.44771525,20 4,20 Z" id="Shape" fill="#428DFF"/><path d="M3,51 L5,51 L5,27 C5,26.4477153 4.55228475,26 4,26 C3.44771525,26 3,26.4477153 3,27 L3,51 Z" id="Shape" fill="#428DFF"/><path d="M5,23 C4.99611961,22.7352731 4.89256504,22.481743 4.71,22.29 L4.56,22.17 C4.50427287,22.1321227 4.44373808,22.1018554 4.38,22.08 C4.32333758,22.0511123 4.26266255,22.0308873 4.2,22.02 C4.13385548,22.0088692 4.06703885,22.0021875 4,22 C3.73527314,22.0038804 3.48174298,22.107435 3.29,22.29 C3.19960316,22.3856071 3.12832305,22.4976187 3.08,22.62 C2.92912342,22.9929737 3.01135194,23.4197788 3.29,23.71 C3.38560709,23.8003968 3.49761868,23.871677 3.62,23.92 C3.74022231,23.971241 3.86932274,23.99842 4,24 C4.26603534,24.0027011 4.52196165,23.8982118 4.71008674,23.7100867 C4.89821183,23.5219616 5.00270108,23.2660353 5,23 Z" id="Shape" fill="#428DFF"/><path d="M4,16 C3.44771525,16 3,15.5522847 3,15 C3,13.3431458 4.34314575,12 6,12 L31,12 C31.5522847,12 32,12.4477153 32,13 C32,13.5522847 31.5522847,14 31,14 L6,14 C5.44771525,14 5,14.4477153 5,15 C5,15.5522847 4.55228475,16 4,16 Z" id="Shape" fill="#428DFF"/><path d="M56,52 L4,52 C3.44771525,52 3,51.5522847 3,51 C3,50.4477153 3.44771525,50 4,50 L55,50 L55,28.26 C55,27.7077153 55.4477153,27.26 56,27.26 C56.5522847,27.26 57,27.7077153 57,28.26 L57,51 C57,51.5522847 56.5522847,52 56,52 Z" id="Shape" fill="#428DFF"/><path d="M52,52 L8,52 C7.44771525,52 7,51.5522847 7,51 L7,18 C7,16.8954305 7.8954305,16 9,16 L31,16 C31.5522847,16 32,16.4477153 32,17 C32,17.5522847 31.5522847,18 31,18 L9,18 L9,50 L51,50 L51,31.2 C51,30.6477153 51.4477153,30.2 52,30.2 C52.5522847,30.2 53,30.6477153 53,31.2 L53,51 C53,51.5522847 52.5522847,52 52,52 Z" id="Shape" fill="#428DFF"/></g></g></svg>
