<?xml version="1.0" encoding="UTF-8"?>
<svg xmlns="http://www.w3.org/2000/svg" xmlns:xlink="http://www.w3.org/1999/xlink" width="512" height="512" viewBox="0 0 60 60" version="1.1"><!-- Generator: Sketch 51.3 (57544) - http://www.bohemiancoding.com/sketch --><title>022 - Compare Insurance</title><desc>Created with Sketch.</desc><defs><linearGradient x1="6.33103448%" y1="-2.76666667%" x2="93.6689655%" y2="102.766667%" id="linearGradient-1"><stop stop-color="#D3DFF2" offset="0%"/><stop stop-color="#D3DFF2" offset="17.2%"/><stop stop-color="#D3DFF2" offset="20%"/><stop stop-color="#DAE2F2" offset="20%"/><stop stop-color="#EBEAF2" offset="20.1%"/><stop stop-color="#F6EFF2" offset="20.1%"/><stop stop-color="#FDF2F2" offset="20.2%"/><stop stop-color="#FFF3F2" offset="20.5%"/><stop stop-color="#FFF3F2" offset="25.2%"/><stop stop-color="#FFF3F2" offset="26%"/><stop stop-color="#D3DFF2" offset="26%"/><stop stop-color="#D3DFF2" offset="39.7%"/><stop stop-color="#D3DFF2" offset="42%"/><stop stop-color="#DAE2F2" offset="42%"/><stop stop-color="#EBEAF2" offset="42.1%"/><stop stop-color="#F6EFF2" offset="42.1%"/><stop stop-color="#FDF2F2" offset="42.2%"/><stop stop-color="#FFF3F2" offset="42.5%"/><stop stop-color="#FFF3F2" offset="48.9%"/><stop stop-color="#FFF3F2" offset="50%"/><stop stop-color="#F8F0F2" offset="50%"/><stop stop-color="#E7E8F2" offset="50%"/><stop stop-color="#DCE3F2" offset="50%"/><stop stop-color="#D5E0F2" offset="50%"/><stop stop-color="#D3DFF2" offset="50.1%"/><stop stop-color="#D3DFF2" offset="70.6%"/><stop stop-color="#D3DFF2" offset="74%"/><stop stop-color="#FFF3F2" offset="74.1%"/><stop stop-color="#FFF3F2" offset="83.5%"/><stop stop-color="#FFF3F2" offset="85%"/><stop stop-color="#D3DFF2" offset="85.1%"/></linearGradient></defs><g id="Page-1" stroke="none" stroke-width="1" fill="none" fill-rule="evenodd"><g id="022---Compare-Insurance" fill-rule="nonzero"><rect id="Rectangle-path" fill="url(#linearGradient-1)" x="1" y="1" width="58" height="48" rx="4"/><polygon id="Shape" fill="#CAD9FC" points="38 56 22 56 23.78 48 36.22 48"/><polygon id="Shape" fill="#E8EDFC" points="35 56 22 56 23.78 48 33.22 48"/><path d="M59,5 L59,9 L1,9 L1,5 C1,2.790861 2.790861,1 5,1 L55,1 C57.209139,1 59,2.790861 59,5 Z" id="Shape" fill="#CAD9FC"/><path d="M56,5 L56,9 L1,9 L1,5 C1,2.790861 2.790861,1 5,1 L52,1 C54.209139,1 56,2.790861 56,5 Z" id="Shape" fill="#E8EDFC"/><path d="M41,57 C40.9967052,58.1032019 40.1032019,58.9967052 39,59 L21,59 C19.8988312,58.9918328 19.0081672,58.1011688 19,57 C19.0032948,55.8967981 19.8967981,55.0032948 21,55 L39,55 C40.1011688,55.0081672 40.9918328,55.8988312 41,57 Z" id="Shape" fill="#CAD9FC"/><path d="M38,57 C37.9967052,58.1032019 37.1032019,58.9967052 36,59 L21,59 C19.8988312,58.9918328 19.0081672,58.1011688 19,57 C19.0032948,55.8967981 19.8967981,55.0032948 21,55 L36,55 C37.1011688,55.0081672 37.9918328,55.8988312 38,57 Z" id="Shape" fill="#E8EDFC"/><path d="M50,23 L51.756,21.683 C53.1943136,20.6020965 54.1612026,19.0088783 54.456,17.234 L55,14 L50,12 L45,14 L45.539,17.234 C45.8337974,19.0088783 46.8006864,20.6020965 48.239,21.683 L50,23 Z" id="Shape" fill="#E8EDFC"/><path d="M50,38 L51.756,36.683 C53.1943136,35.6020965 54.1612026,34.0088783 54.456,32.234 L55,29 L50,27 L45,29 L45.539,32.234 C45.8337974,34.0088783 46.8006864,35.6020965 48.239,36.683 L50,38 Z" id="Shape" fill="#E8EDFC"/><path d="M59,41 L59,45 C59,47.209139 57.209139,49 55,49 L5,49 C2.790861,49 1,47.209139 1,45 L1,41 L59,41 Z" id="Shape" fill="#CAD9FC"/><path d="M56,41 L56,45 C56,47.209139 54.209139,49 52,49 L5,49 C2.790861,49 1,47.209139 1,45 L1,41 L56,41 Z" id="Shape" fill="#E8EDFC"/><path d="M21,59 L24,59 C22.8988312,58.9918328 22.0081672,58.1011688 22,57 C22.0032948,55.8967981 22.8967981,55.0032948 24,55 L25.223,55 L26.558,49 L23.558,49 L22.223,55 L21,55 C19.8967981,55.0032948 19.0032948,55.8967981 19,57 C19.0081672,58.1011688 19.8988312,58.9918328 21,59 Z" id="Shape" fill="#FFFFFF"/><path d="M1.1,45.875 C1.14599883,46.0824498 1.20887478,46.2857933 1.288,46.483 C1.318,46.557 1.354,46.626 1.388,46.697 C1.422,46.768 1.438,46.814 1.468,46.87 L1.475,46.857 C2.1593851,48.1718972 3.51765993,48.9976512 5,49 L8,49 C6.51837913,48.9969073 5.16105231,48.1712612 4.477,46.857 L4.47,46.87 C4.44,46.814 4.417,46.754 4.39,46.697 C4.363,46.64 4.321,46.557 4.29,46.483 C4.21087478,46.2857933 4.14799883,46.0824498 4.102,45.875 C4.09,45.822 4.081,45.768 4.071,45.714 C4.02540406,45.4786931 4.00163647,45.2396782 4,45 L4,5 C4,2.790861 5.790861,1 8,1 L5,1 C2.790861,1 1,2.790861 1,5 L1,45 C1.00196601,45.2397091 1.02606839,45.4787244 1.072,45.714 C1.082,45.768 1.091,45.822 1.1,45.875 Z" id="Shape" fill="#FFFFFF"/><rect id="Rectangle-path" fill="#A4C2F7" x="56" y="8" width="4" height="33"/><polygon id="Shape" fill="#FFFFFF" points="2 10 2 23 2 40 0 40 0 23 0 10"/><path d="M1,15 C1.55228475,15 2,14.5522847 2,14 L2,10 L0,10 L0,14 C6.76353751e-17,14.5522847 0.44771525,15 1,15 Z" id="Shape" fill="#428DFF"/><path d="M0,40 L2,40 L2,22 C2,21.4477153 1.55228475,21 1,21 C0.44771525,21 6.76353751e-17,21.4477153 0,22 L0,40 Z" id="Shape" fill="#428DFF"/><path d="M2,18 C1.99611961,17.7352731 1.89256504,17.481743 1.71,17.29 L1.56,17.17 C1.50427287,17.1321227 1.44373808,17.1018554 1.38,17.08 C1.32333758,17.0511123 1.26266255,17.0308873 1.2,17.02 C1.13385548,17.0088692 1.06703885,17.0021875 1,17 C0.735273141,17.0038804 0.481742984,17.107435 0.29,17.29 C0.199603156,17.3856071 0.12832305,17.4976187 0.08,17.62 C-0.0708765757,17.9929737 0.0113519394,18.4197788 0.29,18.71 C0.385607086,18.8003968 0.497618681,18.871677 0.62,18.92 C0.740222313,18.971241 0.869322743,18.99842 1,19 C1.26472686,18.9961196 1.51825702,18.892565 1.71,18.71 C1.89256504,18.518257 1.99611961,18.2647269 2,18 Z" id="Shape" fill="#428DFF"/><path d="M55,50 L5,50 C2.23994685,49.9966939 0.00330611633,47.7600532 0,45 L0,40 C-1.77991544e-16,39.4477153 0.44771525,39 1,39 C1.55228475,39 2,39.4477153 2,40 L2,45 C2,46.6568542 3.34314575,48 5,48 L55,48 C56.6568542,48 58,46.6568542 58,45 L58,5 C58,3.34314575 56.6568542,2 55,2 L5,2 C3.34314575,2 2,3.34314575 2,5 L2,10 C2,10.5522847 1.55228475,11 1,11 C0.44771525,11 1.79323811e-16,10.5522847 1.11688436e-16,10 L1.11688436e-16,5 C0.00330611633,2.23994685 2.23994685,0.00330611633 5,0 L55,0 C57.7600532,0.00330611633 59.9966939,2.23994685 60,5 L60,45 C59.9966939,47.7600532 57.7600532,49.9966939 55,50 Z" id="Shape" fill="#428DFF"/><path d="M39,60 L21,60 C19.3431458,60 18,58.6568542 18,57 C18,55.3431458 19.3431458,54 21,54 L39,54 C40.6568542,54 42,55.3431458 42,57 C42,58.6568542 40.6568542,60 39,60 Z M21,56 C20.4477153,56 20,56.4477153 20,57 C20,57.5522847 20.4477153,58 21,58 L39,58 C39.5522847,58 40,57.5522847 40,57 C40,56.4477153 39.5522847,56 39,56 L21,56 Z" id="Shape" fill="#428DFF"/><path d="M38,56 L22,56 C21.6844781,56.0000554 21.3874366,55.8511965 21.1986278,55.5984014 C21.0098191,55.3456064 20.9513918,55.0185301 21.041,54.716 L22.819,48.716 C22.9448023,48.2912736 23.3350341,47.9999222 23.778,48 L36.222,48 C36.6649659,47.9999222 37.0551977,48.2912736 37.181,48.716 L38.959,54.716 C39.0486082,55.0185301 38.9901809,55.3456064 38.8013722,55.5984014 C38.6125634,55.8511965 38.3155219,56.0000554 38,56 Z M23.339,54 L36.661,54 L35.476,50 L24.524,50 L23.339,54 Z" id="Shape" fill="#428DFF"/><path d="M59,42 L1,42 C0.44771525,42 6.76353751e-17,41.5522847 0,41 C-6.76353751e-17,40.4477153 0.44771525,40 1,40 L59,40 C59.5522847,40 60,40.4477153 60,41 C60,41.5522847 59.5522847,42 59,42 Z" id="Shape" fill="#428DFF"/><circle id="Oval" fill="#CAD9FC" cx="30" cy="45" r="1"/><circle id="Oval" fill="#428DFF" cx="6" cy="5" r="1"/><circle id="Oval" fill="#428DFF" cx="10" cy="5" r="1"/><circle id="Oval" fill="#428DFF" cx="14" cy="5" r="1"/><path d="M59,10 L1,10 C0.44771525,10 6.76353751e-17,9.55228475 0,9 C-6.76353751e-17,8.44771525 0.44771525,8 1,8 L59,8 C59.5522847,8 60,8.44771525 60,9 C60,9.55228475 59.5522847,10 59,10 Z" id="Shape" fill="#428DFF"/><path d="M17,17 L5,17 C4.44771525,17 4,16.5522847 4,16 C4,15.4477153 4.44771525,15 5,15 L17,15 C17.5522847,15 18,15.4477153 18,16 C18,16.5522847 17.5522847,17 17,17 Z" id="Shape" fill="#428DFF"/><path d="M26,17 L21,17 C20.4477153,17 20,16.5522847 20,16 C20,15.4477153 20.4477153,15 21,15 L26,15 C26.5522847,15 27,15.4477153 27,16 C27,16.5522847 26.5522847,17 26,17 Z" id="Shape" fill="#428DFF"/><path d="M40,17 L30,17 C29.4477153,17 29,16.5522847 29,16 C29,15.4477153 29.4477153,15 30,15 L40,15 C40.5522847,15 41,15.4477153 41,16 C41,16.5522847 40.5522847,17 40,17 Z" id="Shape" fill="#428DFF"/><path d="M50,24 C49.7836298,24 49.5730962,23.9298221 49.4,23.8 L47.644,22.482 C45.995825,21.2509312 44.888111,19.4297073 44.553,17.4 L44.014,14.167 C43.9360314,13.7033356 44.191598,13.2479775 44.628,13.073 L49.628,11.073 C49.8670984,10.9790301 50.1329016,10.9790301 50.372,11.073 L55.372,13.073 C55.808402,13.2479775 56.0639686,13.7033356 55.986,14.167 L55.447,17.4 C55.1123748,19.4304332 54.0046128,21.2524526 52.356,22.484 L50.6,23.8 C50.4269038,23.9298221 50.2163702,24 50,24 Z M46.119,14.629 L46.525,17.069 C46.7764614,18.5921014 47.6074713,19.9588422 48.844,20.883 L50,21.75 L51.156,20.883 C52.3925287,19.9588422 53.2235386,18.5921014 53.475,17.069 L53.881,14.629 L50,13.077 L46.119,14.629 Z" id="Shape" fill="#428DFF"/><path d="M23,21 L5,21 C4.44771525,21 4,20.5522847 4,20 C4,19.4477153 4.44771525,19 5,19 L23,19 C23.5522847,19 24,19.4477153 24,20 C24,20.5522847 23.5522847,21 23,21 Z" id="Shape" fill="#428DFF"/><path d="M40,21 L27,21 C26.4477153,21 26,20.5522847 26,20 C26,19.4477153 26.4477153,19 27,19 L40,19 C40.5522847,19 41,19.4477153 41,20 C41,20.5522847 40.5522847,21 40,21 Z" id="Shape" fill="#428DFF"/><path d="M17,32 L5,32 C4.44771525,32 4,31.5522847 4,31 C4,30.4477153 4.44771525,30 5,30 L17,30 C17.5522847,30 18,30.4477153 18,31 C18,31.5522847 17.5522847,32 17,32 Z" id="Shape" fill="#428DFF"/><path d="M26,32 L21,32 C20.4477153,32 20,31.5522847 20,31 C20,30.4477153 20.4477153,30 21,30 L26,30 C26.5522847,30 27,30.4477153 27,31 C27,31.5522847 26.5522847,32 26,32 Z" id="Shape" fill="#428DFF"/><path d="M40,32 L30,32 C29.4477153,32 29,31.5522847 29,31 C29,30.4477153 29.4477153,30 30,30 L40,30 C40.5522847,30 41,30.4477153 41,31 C41,31.5522847 40.5522847,32 40,32 Z" id="Shape" fill="#428DFF"/><path d="M50,39 C49.7836298,39 49.5730962,38.9298221 49.4,38.8 L47.644,37.482 C45.995825,36.2509312 44.888111,34.4297073 44.553,32.4 L44.014,29.167 C43.9360314,28.7033356 44.191598,28.2479775 44.628,28.073 L49.628,26.073 C49.8670984,25.9790301 50.1329016,25.9790301 50.372,26.073 L55.372,28.073 C55.808402,28.2479775 56.0639686,28.7033356 55.986,29.167 L55.447,32.4 C55.1123748,34.4304332 54.0046128,36.2524526 52.356,37.484 L50.6,38.8 C50.4269038,38.9298221 50.2163702,39 50,39 Z M46.119,29.629 L46.525,32.069 C46.7764614,33.5921014 47.6074713,34.9588422 48.844,35.883 L50,36.75 L51.156,35.883 C52.3925287,34.9588422 53.2235386,33.5921014 53.475,32.069 L53.881,29.629 L50,28.077 L46.119,29.629 Z" id="Shape" fill="#428DFF"/><path d="M23,36 L5,36 C4.44771525,36 4,35.5522847 4,35 C4,34.4477153 4.44771525,34 5,34 L23,34 C23.5522847,34 24,34.4477153 24,35 C24,35.5522847 23.5522847,36 23,36 Z" id="Shape" fill="#428DFF"/><path d="M40,36 L27,36 C26.4477153,36 26,35.5522847 26,35 C26,34.4477153 26.4477153,34 27,34 L40,34 C40.5522847,34 41,34.4477153 41,35 C41,35.5522847 40.5522847,36 40,36 Z" id="Shape" fill="#428DFF"/></g></g></svg>
