<svg height="512pt" viewBox="-85 0 512 512.04277" width="512pt" xmlns="http://www.w3.org/2000/svg"><path d="m25.621094 42.710938h290.132812c9.425782 0 17.066406 7.640624 17.066406 17.066406v426.664062c0 9.425782-7.640624 17.066406-17.066406 17.066406h-290.132812c-9.425782 0-17.066406-7.640624-17.066406-17.066406v-426.664062c0-9.425782 7.640624-17.066406 17.066406-17.066406zm0 0" fill="#7fabfa"/><path d="m25.621094 42.710938h264.535156c9.425781 0 17.066406 7.640624 17.066406 17.066406v426.664062c0 9.425782-7.640625 17.066406-17.066406 17.066406h-264.535156c-9.425782 0-17.066406-7.640624-17.066406-17.066406v-426.664062c0-9.425782 7.640624-17.066406 17.066406-17.066406zm0 0" fill="#e3e7f2"/><path d="m247.488281 76.84375h42.667969c4.710938 0 8.53125 3.820312 8.53125 8.53125v375.46875c0 4.710938-3.820312 8.53125-8.53125 8.53125h-238.933594c-4.714844 0-8.535156-3.820312-8.535156-8.53125v-375.46875c0-4.710938 3.820312-8.53125 8.535156-8.53125zm0 0" fill="#a4c2f7"/><path d="m227.007812 76.84375h38.398438c4.472656.246094 7.90625 4.058594 7.683594 8.53125v375.46875c.222656 4.472656-3.210938 8.285156-7.683594 8.53125h-215.039062c-4.46875-.246094-7.902344-4.058594-7.679688-8.53125v-375.46875c-.222656-4.472656 3.210938-8.285156 7.679688-8.53125zm0 0" fill="#d4e1f4"/><path d="m136.554688 42.710938c0-18.851563 15.28125-34.136719 34.132812-34.136719s34.132812 15.285156 34.132812 34.136719" fill="#a4c2f7"/><path d="m93.886719 42.710938h153.601562v34.132812c0 9.425781-7.640625 17.066406-17.066406 17.066406h-119.46875c-9.425781 0-17.066406-7.640625-17.066406-17.066406zm0 0" fill="#ecf0f1"/><path d="m137.246094 341.53125-54.964844-65.957031c-1.449219-1.738281-2.148438-3.980469-1.945312-6.238281.207031-2.253907 1.300781-4.335938 3.039062-5.785157l13.117188-10.921875c3.617187-3.015625 8.996093-2.523437 12.011718 1.09375l27.308594 32.765625c1.683594 2.019531 4.203125 3.152344 6.832031 3.066407 2.625-.085938 5.066407-1.375 6.617188-3.5l82.867187-113.636719c1.34375-1.847657 3.371094-3.074219 5.628906-3.414063 2.257813-.339844 4.558594.242188 6.386719 1.613282l13.652344 10.238281c3.742187 2.804687 4.527344 8.097656 1.765625 11.871093l-108.875 148.480469c-1.570312 2.105469-4.019531 3.371094-6.640625 3.4375-2.625.0625-5.132813-1.085937-6.800781-3.113281zm0 0" fill="#e3e7f2"/><path d="m136.554688 42.710938h25.601562c.027344-13.886719 8.460938-26.367188 21.332031-31.574219-10.511719-4.289063-22.464843-3.058594-31.882812 3.277343-9.417969 6.335938-15.0625 16.945313-15.050781 28.296876zm0 0" fill="#fff"/><path d="m25.621094 503.507812h25.601562c-9.425781 0-17.066406-7.640624-17.066406-17.066406v-426.664062c0-9.425782 7.640625-17.066406 17.066406-17.066406h-25.601562c-9.425782 0-17.066406 7.640624-17.066406 17.066406v426.664062c0 9.425782 7.640624 17.066406 17.066406 17.066406zm0 0" fill="#fff"/><path d="m17.089844 59.777344v426.664062h-17.0703128v-426.664062zm0 0" fill="#fff"/><g fill="#428dff"><path d="m.0195312 486.441406c0 14.140625 11.4648438 25.601563 25.6015628 25.601563h290.132812c14.140625 0 25.601563-11.460938 25.601563-25.601563v-426.664062c0-14.140625-11.460938-25.601563-25.601563-25.601563h-103.253906c-4.035156-19.886719-21.519531-34.175781-41.8125-34.175781-20.289062 0-37.773438 14.289062-41.8125 34.175781h-103.253906c-14.136719 0-25.6015628 11.460938-25.6015628 25.601563v34.132812c0 4.710938 3.8242188 8.53125 8.5351568 8.53125 4.710937 0 8.535156-3.820312 8.535156-8.53125v-34.132812c0-4.714844 3.820312-8.535156 8.53125-8.535156h59.734375v17.066406h-42.667969c-4.710938 0-8.53125 3.820312-8.53125 8.535156v392.53125c0 4.714844 3.820312 8.535156 8.53125 8.535156h256c4.714844 0 8.535156-3.820312 8.535156-8.535156v-392.53125c0-4.714844-3.820312-8.535156-8.535156-8.535156h-42.667969v-17.066406h59.734375c4.714844 0 8.535156 3.820312 8.535156 8.535156v426.664062c0 4.714844-3.820312 8.535156-8.535156 8.535156h-290.132812c-4.710938 0-8.53125-3.820312-8.53125-8.535156v-324.265625c0-4.710937-3.824219-8.53125-8.535156-8.53125-4.710938 0-8.5351568 3.820313-8.5351568 8.53125zm170.6679688-469.332031c10.808594.042969 20.425781 6.875 24.03125 17.066406h-48.0625c3.605469-10.191406 13.222656-17.023437 24.03125-17.066406zm119.46875 443.734375h-238.933594v-375.46875h35.703125c3.601563 10.191406 13.21875 17.023438 24.027344 17.066406h119.46875c10.808594-.042968 20.425781-6.875 24.03125-17.066406h35.703125zm-51.203125-384c0 4.710938-3.820313 8.53125-8.53125 8.53125h-119.46875c-4.710937 0-8.53125-3.820312-8.53125-8.53125v-25.601562h136.53125zm0 0"/><path d="m8.554688 136.574219c3.46875.023437 6.601562-2.058594 7.929687-5.257813 1.332031-3.203125.589844-6.890625-1.871094-9.332031l-1.28125-1.023437c-.472656-.324219-.992187-.582032-1.535156-.769532-.484375-.246094-1-.417968-1.535156-.511718-.566407-.09375-1.136719-.152344-1.707031-.171876-2.257813.035157-4.421876.917969-6.058594 2.476563-.769532.816406-1.378906 1.769531-1.792969 2.816406-1.285156 3.183594-.585937 6.824219 1.792969 9.300781.816406.769532 1.773437 1.378907 2.816406 1.792969 1.027344.4375 2.128906.667969 3.242188.679688zm0 0"/><path d="m76.820312 401.109375h25.601563c4.710937 0 8.53125-3.820313 8.53125-8.535156 0-4.710938-3.820313-8.53125-8.53125-8.53125h-25.601563c-4.710937 0-8.53125 3.820312-8.53125 8.53125 0 4.714843 3.820313 8.535156 8.53125 8.535156zm0 0"/><path d="m264.554688 384.042969h-128c-4.710938 0-8.535157 3.820312-8.535157 8.53125 0 4.714843 3.824219 8.535156 8.535157 8.535156h128c4.710937 0 8.535156-3.820313 8.535156-8.535156 0-4.710938-3.824219-8.53125-8.535156-8.53125zm0 0"/><path d="m264.554688 418.175781h-25.601563c-4.710937 0-8.53125 3.820313-8.53125 8.535157 0 4.710937 3.820313 8.53125 8.53125 8.53125h25.601563c4.710937 0 8.535156-3.820313 8.535156-8.53125 0-4.714844-3.824219-8.535157-8.535156-8.535157zm0 0"/><path d="m204.820312 418.175781h-128c-4.710937 0-8.53125 3.820313-8.53125 8.535157 0 4.710937 3.820313 8.53125 8.53125 8.53125h128c4.714844 0 8.535157-3.820313 8.535157-8.53125 0-4.714844-3.820313-8.535157-8.535157-8.535157zm0 0"/><path d="m76.820312 136.574219h25.601563c4.710937 0 8.53125-3.820313 8.53125-8.53125 0-4.714844-3.820313-8.535157-8.53125-8.535157h-25.601563c-4.710937 0-8.53125 3.820313-8.53125 8.535157 0 4.710937 3.820313 8.53125 8.53125 8.53125zm0 0"/><path d="m136.554688 119.507812c-4.710938 0-8.535157 3.820313-8.535157 8.535157 0 4.710937 3.824219 8.53125 8.535157 8.53125h128c4.710937 0 8.535156-3.820313 8.535156-8.53125 0-4.714844-3.824219-8.535157-8.535156-8.535157zm0 0"/><path d="m97.582031 240.605469-26.222656 21.855469c-1.738281 1.449218-2.832031 3.527343-3.035156 5.785156-.207031 2.253906.492187 4.5 1.945312 6.238281l67.410157 80.894531c1.625 1.941406 4.023437 3.066406 6.554687 3.0625h.265625c2.625-.078125 5.066406-1.363281 6.621094-3.480468l120.320312-164.042969c2.765625-3.773438 1.980469-9.0625-1.757812-11.871094l-27.308594-20.480469c-1.824219-1.371094-4.125-1.949218-6.382812-1.613281-2.257813.339844-4.285157 1.570313-5.628907 3.414063l-87.980469 120.660156-32.777343-39.328125c-1.449219-1.742188-3.527344-2.832031-5.785157-3.039063-2.253906-.203125-4.5.496094-6.238281 1.945313zm45.519531 62.8125c2.625-.085938 5.0625-1.375 6.613282-3.496094l89.332031-122.515625 13.65625 10.242188-108.878906 148.480468-54.960938-65.964844 13.113281-10.921874 34.3125 41.175781c1.671876 2.015625 4.195313 3.128906 6.8125 3zm0 0"/></g></svg>