<?xml version="1.0" encoding="UTF-8"?>
<svg xmlns="http://www.w3.org/2000/svg" xmlns:xlink="http://www.w3.org/1999/xlink" width="512" height="512" viewBox="0 0 60 56" version="1.1"><!-- Generator: Sketch 51.3 (57544) - http://www.bohemiancoding.com/sketch --><title>016 - Targeted sales</title><desc>Created with Sketch.</desc><defs/><g id="Page-1" stroke="none" stroke-width="1" fill="none" fill-rule="evenodd"><g id="016---Targeted-sales" fill="#000000" fill-rule="nonzero"><path d="M49,6 L51,6 C51.5522847,6 52,5.55228475 52,5 C52,4.44771525 51.5522847,4 51,4 L49,4 C48.4477153,4 48,4.44771525 48,5 C48,5.55228475 48.4477153,6 49,6 Z" id="Shape"/><path d="M54.29,5.71 C54.6843361,6.09674033 55.3156639,6.09674033 55.71,5.71 C55.802531,5.61607395 55.8741036,5.50360261 55.92,5.38 C55.971241,5.25977769 55.99842,5.13067726 56,5 C56,4.44771525 55.5522847,4 55,4 C54.4477153,4 54,4.44771525 54,5 C53.9965453,5.13118332 54.0239476,5.26134449 54.08,5.38 C54.1258964,5.50360261 54.197469,5.61607395 54.29,5.71 Z" id="Shape"/><path d="M49,10 L55,10 C55.5522847,10 56,9.55228475 56,9 C56,8.44771525 55.5522847,8 55,8 L49,8 C48.4477153,8 48,8.44771525 48,9 C48,9.55228475 48.4477153,10 49,10 Z" id="Shape"/><path d="M7,6 L9,6 C9.55228475,6 10,5.55228475 10,5 C10,4.44771525 9.55228475,4 9,4 L7,4 C6.44771525,4 6,4.44771525 6,5 C6,5.55228475 6.44771525,6 7,6 Z" id="Shape"/><path d="M13.55,4.17 C13.4988621,4.13055328 13.4413713,4.10011693 13.38,4.08 C13.3200792,4.04960041 13.2555406,4.02932653 13.189,4.02 C12.862764,3.95467563 12.5254038,4.05588372 12.289,4.29 C11.9008316,4.6813645 11.9025582,5.31303753 12.2928603,5.70227419 C12.6831623,6.09151084 13.3148377,6.09151084 13.7051397,5.70227419 C14.0954418,5.31303753 14.0971684,4.6813645 13.709,4.29 C13.66,4.25 13.609,4.21 13.55,4.17 Z" id="Shape"/><path d="M13,8 L7,8 C6.44771525,8 6,8.44771525 6,9 C6,9.55228475 6.44771525,10 7,10 L13,10 C13.5522847,10 14,9.55228475 14,9 C14,8.44771525 13.5522847,8 13,8 Z" id="Shape"/><path d="M3,56 L28,56 C29.6568542,56 31,54.6568542 31,53 L31,51.975 C43.4605828,51.4403863 53.4403863,41.4605828 53.975,29 L57,29 C58.6568542,29 60,27.6568542 60,26 L60,3 C60,1.34314575 58.6568542,0 57,0 L47,0 C45.3431458,0 44,1.34314575 44,3 L44,8.517 C36.3444721,3.00445988 26.167225,2.49559752 18,7.217 L18,3 C18,1.34314575 16.6568542,0 15,0 L5,0 C3.34314575,0 2,1.34314575 2,3 L2,26 C2,27.6568542 3.34314575,29 5,29 L6.045,29 C6.23082016,33.6776942 7.78577909,38.1979236 10.517,42 L3,42 C1.34314575,42 2.02906125e-16,43.3431458 0,45 L0,53 C2.02906125e-16,54.6568542 1.34314575,56 3,56 Z M28,54 L16,54 L16,47.483 C19.8019945,50.2143792 24.3222729,51.769355 29,51.955 L29,53 C29,53.5522847 28.5522847,54 28,54 Z M57,27 L53.955,27 C53.7691798,22.3223058 52.2142209,17.8020764 49.483,14 L58,14 L58,26 C58,26.5522847 57.5522847,27 57,27 Z M46,3 C46,2.44771525 46.4477153,2 47,2 L57,2 C57.5522847,2 58,2.44771525 58,3 L58,12 L47,12 C46.4477153,12 46,11.5522847 46,11 L46,3 Z M30,6 C35.117548,6.00191306 40.0730295,7.79490088 44.007,11.068 C44.0464716,12.6664113 45.3326023,13.9529819 46.931,13.993 C49.9790051,17.6649472 51.7432532,22.2325379 51.955,27 L46.949,27 C46.4413732,18.0100017 39.0033186,10.980094 29.999,10.980094 C20.9946814,10.980094 13.5566268,18.0100017 13.049,27 L8.045,27 C8.25684454,22.2357312 10.0188336,17.6709926 13.063,14 L15,14 C16.6568542,14 18,12.6568542 18,11 L18,9.58 C21.5654168,7.24224044 25.7365141,5.99786306 30,6 Z M43,29 L44.949,29 C44.4410547,36.8834561 37.898803,43.0177446 29.999,43.0177446 C22.099197,43.0177446 15.5569453,36.8834561 15.049,29 L19.049,29 C19.5835917,34.8561591 24.6295511,39.2561799 30.5039696,38.9886069 C36.378388,38.7210339 41.0034512,33.8805091 41.0034512,28 C41.0034512,22.1194909 36.378388,17.2789661 30.5039696,17.0113931 C24.6295511,16.7438201 19.5835917,21.1438409 19.049,27 L15.049,27 C15.5569453,19.1165439 22.099197,12.9822554 29.999,12.9822554 C37.898803,12.9822554 44.4410547,19.1165439 44.949,27 L43,27 C42.4477153,27 42,27.4477153 42,28 C42,28.5522847 42.4477153,29 43,29 Z M23,27 L21.059,27 C21.5896673,22.2535675 25.7354411,18.7481975 30.5040477,19.0139428 C35.2726543,19.2796882 39.0032719,23.2239944 39.0032719,28 C39.0032719,32.7760056 35.2726543,36.7203118 30.5040477,36.9860572 C25.7354411,37.2518025 21.5896673,33.7464325 21.059,29 L23,29 C23.5522847,29 24,28.5522847 24,28 C24,27.4477153 23.5522847,27 23,27 Z M4,3 C4,2.44771525 4.44771525,2 5,2 L15,2 C15.5522847,2 16,2.44771525 16,3 L16,11 C16,11.5522847 15.5522847,12 15,12 L4,12 L4,3 Z M4,26 L4,14 L10.517,14 C7.78577909,17.8020764 6.23082016,22.3223058 6.045,27 L5,27 C4.73478351,27 4.4804296,26.8946432 4.29289322,26.7071068 C4.10535684,26.5195704 4,26.2652165 4,26 Z M13.051,29 C13.5586268,37.9899983 20.9966814,45.019906 30.001,45.019906 C39.0053186,45.019906 46.4433732,37.9899983 46.951,29 L51.977,29 C51.4467641,40.3580617 42.3581122,49.4458471 31,49.975 L31,48 C31,47.4477153 30.5522847,47 30,47 C29.4477153,47 29,47.4477153 29,48 L29,49.955 C24.2326403,49.7436092 19.6650399,47.9797085 15.993,44.932 C15.9535284,43.3335887 14.6673977,42.0470181 13.069,42.007 C10.0209949,38.3350528 8.25674678,33.7674621 8.045,29 L13.051,29 Z M2,45 C2,44.4477153 2.44771525,44 3,44 L13,44 C13.5522847,44 14,44.4477153 14,45 L14,54 L3,54 C2.44771525,54 2,53.5522847 2,53 L2,45 Z" id="Shape"/><path d="M5,48 L7,48 C7.55228475,48 8,47.5522847 8,47 C8,46.4477153 7.55228475,46 7,46 L5,46 C4.44771525,46 4,46.4477153 4,47 C4,47.5522847 4.44771525,48 5,48 Z" id="Shape"/><path d="M10.29,47.71 C10.6843361,48.0967403 11.3156639,48.0967403 11.71,47.71 C11.7982527,47.6127393 11.8692709,47.5011393 11.92,47.38 C11.971241,47.2597777 11.99842,47.1306773 12,47 C12,46.4477153 11.5522847,46 11,46 C10.4477153,46 10,46.4477153 10,47 C9.99654528,47.1311833 10.0239476,47.2613445 10.08,47.38 C10.1307291,47.5011393 10.2017473,47.6127393 10.29,47.71 Z" id="Shape"/><path d="M5,52 L11,52 C11.5522847,52 12,51.5522847 12,51 C12,50.4477153 11.5522847,50 11,50 L5,50 C4.44771525,50 4,50.4477153 4,51 C4,51.5522847 4.44771525,52 5,52 Z" id="Shape"/><path d="M30,32 C28.916,32 28,31.313 28,30.5 C28,29.9477153 27.5522847,29.5 27,29.5 C26.4477153,29.5 26,29.9477153 26,30.5 C26.0893501,32.1876511 27.3345478,33.5889136 29,33.876 L29,34 C29,34.5522847 29.4477153,35 30,35 C30.5522847,35 31,34.5522847 31,34 L31,33.876 C32.6654522,33.5889136 33.9106499,32.1876511 34,30.5 C33.8509663,28.4343722 32.0671312,26.8735165 30,27 C28.916,27 28,26.313 28,25.5 C28,24.687 28.916,24 30,24 C31.084,24 32,24.687 32,25.5 C32,26.0522847 32.4477153,26.5 33,26.5 C33.5522847,26.5 34,26.0522847 34,25.5 C33.9106499,23.8123489 32.6654522,22.4110864 31,22.124 L31,22 C31,21.4477153 30.5522847,21 30,21 C29.4477153,21 29,21.4477153 29,22 L29,22.124 C27.3345478,22.4110864 26.0893501,23.8123489 26,25.5 C26.1490337,27.5656278 27.9328688,29.1264835 30,29 C31.084,29 32,29.687 32,30.5 C32,31.313 31.084,32 30,32 Z" id="Shape"/></g></g></svg>
