<?xml version="1.0" encoding="UTF-8"?>
<svg xmlns="http://www.w3.org/2000/svg" xmlns:xlink="http://www.w3.org/1999/xlink" width="512" height="512" viewBox="0 0 60 56" version="1.1"><!-- Generator: Sketch 51.3 (57544) - http://www.bohemiancoding.com/sketch --><title>016 - Targeted sales</title><desc>Created with Sketch.</desc><defs/><g id="Page-1" stroke="none" stroke-width="1" fill="none" fill-rule="evenodd"><g id="016---Targeted-sales" fill-rule="nonzero"><path d="M53,28 C53,40.7025492 42.7025492,51 30,51 C29.49,51 28.99,50.98 28.49,50.95 C23.5094516,50.6320666 18.7706189,48.6894613 15,45.42 L12.58,43 C5.13987565,34.3838863 5.13987565,21.6161137 12.58,13 L17,9.03 C20.4058691,6.68631371 24.383887,5.31076971 28.51,5.05 C29,5.02 29.5,5 30,5 C35.5092165,4.99073211 40.8362611,6.97239272 45,10.58 L47.42,13 C51.0276073,17.1637389 53.0092679,22.4907835 53,28 Z" id="Shape" fill="#E8EDFC"/><path d="M50,28 C49.9991112,40.123443 40.5879765,50.1646118 28.49,50.95 C23.5094516,50.6320666 18.7706189,48.6894613 15,45.42 L12.58,43 C5.13987565,34.3838863 5.13987565,21.6161137 12.58,13 L17,9.03 C20.4058691,6.68631371 24.383887,5.31076971 28.51,5.05 C33.4905484,5.36793345 38.2293811,7.31053867 42,10.58 L44.42,13 C48.0276073,17.1637389 50.0092679,22.4907835 50,28 Z" id="Shape" fill="#FFFFFF"/><path d="M59,3 L59,13 L47,13 C45.8967981,12.9967052 45.0032948,12.1032019 45,11 L45,3 C45.0032948,1.89679813 45.8967981,1.0032948 47,1 L57,1 C58.1032019,1.0032948 58.9967052,1.89679813 59,3 Z" id="Shape" fill="#CAD9FC"/><path d="M56,3 L56,13 L47,13 C45.8967981,12.9967052 45.0032948,12.1032019 45,11 L45,3 C45.0032948,1.89679813 45.8967981,1.0032948 47,1 L54,1 C55.1032019,1.0032948 55.9967052,1.89679813 56,3 Z" id="Shape" fill="#E8EDFC"/><path d="M17,3 L17,11 C16.9967052,12.1032019 16.1032019,12.9967052 15,13 L3,13 L3,3 C3.0032948,1.89679813 3.89679813,1.0032948 5,1 L15,1 C16.1032019,1.0032948 16.9967052,1.89679813 17,3 Z" id="Shape" fill="#CAD9FC"/><path d="M14,3 L14,11 C13.9967052,12.1032019 13.1032019,12.9967052 12,13 L3,13 L3,3 C3.0032948,1.89679813 3.89679813,1.0032948 5,1 L12,1 C13.1032019,1.0032948 13.9967052,1.89679813 14,3 Z" id="Shape" fill="#E8EDFC"/><path d="M15,45 L15,55 L3,55 C1.89679813,54.9967052 1.0032948,54.1032019 1,53 L1,45 C1.0032948,43.8967981 1.89679813,43.0032948 3,43 L13,43 C14.1032019,43.0032948 14.9967052,43.8967981 15,45 Z" id="Shape" fill="#CAD9FC"/><path d="M12,45 L12,55 L3,55 C1.89679813,54.9967052 1.0032948,54.1032019 1,53 L1,45 C1.0032948,43.8967981 1.89679813,43.0032948 3,43 L10,43 C11.1032019,43.0032948 11.9967052,43.8967981 12,45 Z" id="Shape" fill="#E8EDFC"/><path d="M46,28 C46,36.836556 38.836556,44 30,44 C29.499137,44.0020944 28.9984912,43.978731 28.5,43.93 C20.2787598,43.1584394 13.9950251,36.2573662 13.9950251,28 C13.9950251,19.7426338 20.2787598,12.8415606 28.5,12.07 C28.9984912,12.021269 29.499137,11.9979056 30,12 C38.836556,12 46,19.163444 46,28 Z" id="Shape" fill="#7FACFA"/><ellipse id="Oval" fill="#A4C2F7" cx="28.5" cy="28" rx="14.5" ry="15.93"/><path d="M40,28 C39.9911904,33.5191943 35.5191943,37.9911904 30,38 C29.5042123,38.0006116 29.009213,37.9604765 28.52,37.88 C28.508612,37.8901858 28.491388,37.8901858 28.48,37.88 C23.6125977,37.1190798 20.0245388,32.9265206 20.0245388,28 C20.0245388,23.0734794 23.6125977,18.8809202 28.48,18.12 C28.491388,18.1098142 28.508612,18.1098142 28.52,18.12 C29.009213,18.0395235 29.5042123,17.9993884 30,18 C35.5191943,18.0088096 39.9911904,22.4808057 40,28 Z" id="Shape" fill="#CAD9FC"/><path d="M37,28 C36.9905289,32.931671 33.3932163,37.1228795 28.52,37.88 C28.508612,37.8901858 28.491388,37.8901858 28.48,37.88 C23.6125977,37.1190798 20.0245388,32.9265206 20.0245388,28 C20.0245388,23.0734794 23.6125977,18.8809202 28.48,18.12 C28.491388,18.1098142 28.508612,18.1098142 28.52,18.12 C33.3932163,18.8771205 36.9905289,23.068329 37,28 Z" id="Shape" fill="#E8EDFC"/><path d="M13,43 L15.58,43 C8.13987565,34.3838863 8.13987565,21.6161137 15.58,13 L12.58,13 C5.13987565,21.6161137 5.13987565,34.3838863 12.58,43 L13,43 Z" id="Shape" fill="#FFFFFF"/><path d="M3,55 L6,55 C4.89679813,54.9967052 4.0032948,54.1032019 4,53 L4,45 C4.0032948,43.8967981 4.89679813,43.0032948 6,43 L3,43 C1.89679813,43.0032948 1.0032948,43.8967981 1,45 L1,53 C1.0032948,54.1032019 1.89679813,54.9967052 3,55 Z" id="Shape" fill="#FFFFFF"/><path d="M6,3 C6.0032948,1.89679813 6.89679813,1.0032948 8,1 L5,1 C3.89679813,1.0032948 3.0032948,1.89679813 3,3 L3,13 L6,13 L6,3 Z" id="Shape" fill="#FFFFFF"/><path d="M45,11.58 C44.7596386,11.5805849 44.5272401,11.4938796 44.346,11.336 C36.7914223,4.81748536 25.792688,4.20884027 17.565,9.854 C17.2707305,10.069456 16.8824996,10.1076193 16.5519091,9.95358752 C16.2213187,9.79955571 16.0008035,9.47775963 15.9764734,9.1138587 C15.9521432,8.74995776 16.1278572,8.40167013 16.435,8.205 C25.4117644,2.04511226 37.4127263,2.71007538 45.654,9.824 C45.9695986,10.0972563 46.082245,10.5378103 45.9365449,10.9290173 C45.7908448,11.3202243 45.4174583,11.5797615 45,11.58 Z" id="Shape" fill="#428DFF"/><path d="M30,52 C24.2516003,52.0032871 18.6943794,49.9357482 14.346,46.176 C14.0644665,45.945607 13.9302599,45.5804981 13.995556,45.2226176 C14.0608521,44.8647371 14.315349,44.570548 14.6601054,44.4544229 C15.0048618,44.3382977 15.3854853,44.4185577 15.654,44.664 C24.3738423,52.182302 37.4170003,51.7005022 45.5584004,43.5593647 C53.6998004,35.4182272 54.1820208,22.3750847 46.664,13.655 C46.3022535,13.2374727 46.3474727,12.6057465 46.765,12.244 C47.1825273,11.8822535 47.8142535,11.9274727 48.176,12.345 C54.3053328,19.450326 55.7286192,29.4773061 51.8187034,38.0076599 C47.9087876,46.5380137 39.383728,52.0051366 30,52 Z" id="Shape" fill="#428DFF"/><path d="M12.58,44 C12.2898859,44.0001077 12.0140247,43.8742186 11.824,43.655 C4.05847893,34.6628395 4.05847893,21.3371605 11.824,12.345 C12.1857465,11.9274727 12.8174727,11.8822535 13.235,12.244 C13.6525273,12.6057465 13.6977465,13.2374727 13.336,13.655 C6.2212723,21.8950669 6.2212723,34.1049331 13.336,42.345 C13.5924997,42.6409062 13.6526752,43.059301 13.4899644,43.4155 C13.3272535,43.7716991 12.9716025,44.0001454 12.58,44 Z" id="Shape" fill="#428DFF"/><path d="M59,14 L47,14 C45.3431458,14 44,12.6568542 44,11 L44,3 C44,1.34314575 45.3431458,4.4408921e-16 47,0 L57,0 C58.6568542,0 60,1.34314575 60,3 L60,13 C60,13.5522847 59.5522847,14 59,14 Z M47,2 C46.4477153,2 46,2.44771525 46,3 L46,11 C46,11.5522847 46.4477153,12 47,12 L58,12 L58,3 C58,2.44771525 57.5522847,2 57,2 L47,2 Z" id="Shape" fill="#428DFF"/><path d="M51,6 L49,6 C48.4477153,6 48,5.55228475 48,5 C48,4.44771525 48.4477153,4 49,4 L51,4 C51.5522847,4 52,4.44771525 52,5 C52,5.55228475 51.5522847,6 51,6 Z" id="Shape" fill="#428DFF"/><path d="M55,6 C54.735233,5.99631651 54.4816338,5.89273373 54.29,5.71 C54.197469,5.61607395 54.1258964,5.50360261 54.08,5.38 C54.0239476,5.26134449 53.9965453,5.13118332 54,5 C54,4.44771525 54.4477153,4 55,4 C55.5522847,4 56,4.44771525 56,5 C55.99842,5.13067726 55.971241,5.25977769 55.92,5.38 C55.8741036,5.50360261 55.802531,5.61607395 55.71,5.71 C55.518257,5.89256504 55.2647269,5.99611961 55,6 Z" id="Shape" fill="#428DFF"/><path d="M55,10 L49,10 C48.4477153,10 48,9.55228475 48,9 C48,8.44771525 48.4477153,8 49,8 L55,8 C55.5522847,8 56,8.44771525 56,9 C56,9.55228475 55.5522847,10 55,10 Z" id="Shape" fill="#428DFF"/><path d="M15,14 L3,14 C2.44771525,14 2,13.5522847 2,13 L2,3 C2,1.34314575 3.34314575,4.4408921e-16 5,0 L15,0 C16.6568542,0 18,1.34314575 18,3 L18,11 C18,12.6568542 16.6568542,14 15,14 Z M4,12 L15,12 C15.5522847,12 16,11.5522847 16,11 L16,3 C16,2.44771525 15.5522847,2 15,2 L5,2 C4.44771525,2 4,2.44771525 4,3 L4,12 Z" id="Shape" fill="#428DFF"/><path d="M9,6 L7,6 C6.44771525,6 6,5.55228475 6,5 C6,4.44771525 6.44771525,4 7,4 L9,4 C9.55228475,4 10,4.44771525 10,5 C10,5.55228475 9.55228475,6 9,6 Z" id="Shape" fill="#428DFF"/><path d="M13,6 C12.5937349,6.00236262 12.22642,5.75869622 12.070629,5.38348151 C11.9148381,5.00826679 12.0015401,4.57609046 12.29,4.29 C12.5264038,4.05588372 12.863764,3.95467563 13.19,4.02 C13.2565406,4.02932653 13.3210792,4.04960041 13.381,4.08 C13.4423713,4.10011693 13.4998621,4.13055328 13.551,4.17 C13.61,4.21 13.661,4.25 13.711,4.29 C13.9995939,4.5762181 14.086235,5.00864063 13.930186,5.38394839 C13.774137,5.75925616 13.4064474,6.00277276 13,6 Z" id="Shape" fill="#428DFF"/><path d="M13,10 L7,10 C6.44771525,10 6,9.55228475 6,9 C6,8.44771525 6.44771525,8 7,8 L13,8 C13.5522847,8 14,8.44771525 14,9 C14,9.55228475 13.5522847,10 13,10 Z" id="Shape" fill="#428DFF"/><path d="M15,56 L3,56 C1.34314575,56 2.02906125e-16,54.6568542 0,53 L0,45 C-2.02906125e-16,43.3431458 1.34314575,42 3,42 L13,42 C14.6568542,42 16,43.3431458 16,45 L16,55 C16,55.5522847 15.5522847,56 15,56 Z M3,44 C2.44771525,44 2,44.4477153 2,45 L2,53 C2,53.5522847 2.44771525,54 3,54 L14,54 L14,45 C14,44.4477153 13.5522847,44 13,44 L3,44 Z" id="Shape" fill="#428DFF"/><path d="M7,48 L5,48 C4.44771525,48 4,47.5522847 4,47 C4,46.4477153 4.44771525,46 5,46 L7,46 C7.55228475,46 8,46.4477153 8,47 C8,47.5522847 7.55228475,48 7,48 Z" id="Shape" fill="#428DFF"/><path d="M11,48 C10.735233,47.9963165 10.4816338,47.8927337 10.29,47.71 C10.2017473,47.6127393 10.1307291,47.5011393 10.08,47.38 C10.0239476,47.2613445 9.99654528,47.1311833 10,47 C10,46.4477153 10.4477153,46 11,46 C11.5522847,46 12,46.4477153 12,47 C11.99842,47.1306773 11.971241,47.2597777 11.92,47.38 C11.8692709,47.5011393 11.7982527,47.6127393 11.71,47.71 C11.518257,47.892565 11.2647269,47.9961196 11,48 Z" id="Shape" fill="#428DFF"/><path d="M11,52 L5,52 C4.44771525,52 4,51.5522847 4,51 C4,50.4477153 4.44771525,50 5,50 L11,50 C11.5522847,50 12,50.4477153 12,51 C12,51.5522847 11.5522847,52 11,52 Z" id="Shape" fill="#428DFF"/><path d="M30,45 C20.6111593,45 13,37.3888407 13,28 C13,18.6111593 20.6111593,11 30,11 C39.3888407,11 47,18.6111593 47,28 C46.989529,37.3845001 39.3845001,44.989529 30,45 Z M30,13 C21.7157288,13 15,19.7157288 15,28 C15,36.2842712 21.7157288,43 30,43 C38.2842712,43 45,36.2842712 45,28 C44.9906315,19.7196124 38.2803876,13.0093685 30,13 Z" id="Shape" fill="#428DFF"/><path d="M30,39 C23.9248678,39 19,34.0751322 19,28 C19,21.9248678 23.9248678,17 30,17 C36.0751322,17 41,21.9248678 41,28 C40.9928365,34.0721626 36.0721626,38.9928365 30,39 Z M30,19 C25.0294373,19 21,23.0294373 21,28 C21,32.9705627 25.0294373,37 30,37 C34.9705627,37 39,32.9705627 39,28 C38.9944889,23.0317218 34.9682782,19.0055111 30,19 Z" id="Shape" fill="#428DFF"/><polygon id="Shape" fill="#FFFFFF" points="2 26 2 13 2 12 4 12 4 13 4 26"/><path d="M3,21 C2.44771525,21 2,21.4477153 2,22 L2,26 L4,26 L4,22 C4,21.4477153 3.55228475,21 3,21 Z" id="Shape" fill="#428DFF"/><path d="M4,12 L2,12 L2,14 C2,14.5522847 2.44771525,15 3,15 C3.55228475,15 4,14.5522847 4,14 L4,12 Z" id="Shape" fill="#428DFF"/><path d="M2,18 C2.00388039,18.2647269 2.10743496,18.518257 2.29,18.71 L2.44,18.83 C2.49572713,18.8678773 2.55626192,18.8981446 2.62,18.92 C2.67666242,18.9488877 2.73733745,18.9691127 2.8,18.98 C2.86614452,18.9911308 2.93296115,18.9978125 3,19 C3.26472686,18.9961196 3.51825702,18.892565 3.71,18.71 C3.80039684,18.6143929 3.87167695,18.5023813 3.92,18.38 C4.07087658,18.0070263 3.98864806,17.5802212 3.71,17.29 C3.61439291,17.1996032 3.50238132,17.128323 3.38,17.08 C3.25977769,17.028759 3.13067726,17.00158 3,17 C2.73527314,17.0038804 2.48174298,17.107435 2.29,17.29 C2.10743496,17.481743 2.00388039,17.7352731 2,18 Z" id="Shape" fill="#428DFF"/><path d="M23,29 L5,29 C3.34314575,29 2,27.6568542 2,26 C2,25.4477153 2.44771525,25 3,25 C3.55228475,25 4,25.4477153 4,26 C4,26.5522847 4.44771525,27 5,27 L23,27 C23.5522847,27 24,27.4477153 24,28 C24,28.5522847 23.5522847,29 23,29 Z" id="Shape" fill="#428DFF"/><path d="M28,56 L12,56 C11.4477153,56 11,55.5522847 11,55 C11,54.4477153 11.4477153,54 12,54 L28,54 C28.5522847,54 29,53.5522847 29,53 L29,48 C29,47.4477153 29.4477153,47 30,47 C30.5522847,47 31,47.4477153 31,48 L31,53 C31,54.6568542 29.6568542,56 28,56 Z" id="Shape" fill="#428DFF"/><path d="M57,29 L43,29 C42.4477153,29 42,28.5522847 42,28 C42,27.4477153 42.4477153,27 43,27 L57,27 C57.5522847,27 58,26.5522847 58,26 L58,9 C58,8.44771525 58.4477153,8 59,8 C59.5522847,8 60,8.44771525 60,9 L60,26 C60,27.6568542 58.6568542,29 57,29 Z" id="Shape" fill="#428DFF"/><path d="M30,29 C27.9328688,29.1264835 26.1490337,27.5656278 26,25.5 C26.1490337,23.4343722 27.9328688,21.8735165 30,22 C32.0671312,21.8735165 33.8509663,23.4343722 34,25.5 C34,26.0522847 33.5522847,26.5 33,26.5 C32.4477153,26.5 32,26.0522847 32,25.5 C32,24.687 31.084,24 30,24 C28.916,24 28,24.687 28,25.5 C28,26.313 28.916,27 30,27 C30.5522847,27 31,27.4477153 31,28 C31,28.5522847 30.5522847,29 30,29 Z" id="Shape" fill="#7FACFA"/><path d="M30,34 C27.9328688,34.1264835 26.1490337,32.5656278 26,30.5 C26,29.9477153 26.4477153,29.5 27,29.5 C27.5522847,29.5 28,29.9477153 28,30.5 C28,31.313 28.916,32 30,32 C31.084,32 32,31.313 32,30.5 C32,29.687 31.084,29 30,29 C29.4477153,29 29,28.5522847 29,28 C29,27.4477153 29.4477153,27 30,27 C32.0671312,26.8735165 33.8509663,28.4343722 34,30.5 C33.8509663,32.5656278 32.0671312,34.1264835 30,34 Z" id="Shape" fill="#7FACFA"/><path d="M30,24 C29.4477153,24 29,23.5522847 29,23 L29,22 C29,21.4477153 29.4477153,21 30,21 C30.5522847,21 31,21.4477153 31,22 L31,23 C31,23.5522847 30.5522847,24 30,24 Z" id="Shape" fill="#7FACFA"/><path d="M30,35 C29.4477153,35 29,34.5522847 29,34 L29,33 C29,32.4477153 29.4477153,32 30,32 C30.5522847,32 31,32.4477153 31,33 L31,34 C31,34.5522847 30.5522847,35 30,35 Z" id="Shape" fill="#7FACFA"/></g></g></svg>
