<?xml version="1.0" encoding="UTF-8"?>
<svg xmlns="http://www.w3.org/2000/svg" xmlns:xlink="http://www.w3.org/1999/xlink" width="512" height="512" viewBox="0 0 60 60" version="1.1"><!-- Generator: Sketch 51.3 (57544) - http://www.bohemiancoding.com/sketch --><title>042 - cash growth</title><desc>Created with Sketch.</desc><defs/><g id="Page-1" stroke="none" stroke-width="1" fill="none" fill-rule="evenodd"><g id="042---cash-growth" fill="#000000" fill-rule="nonzero"><path d="M27,48 C27,47.4477153 26.5522847,47 26,47 C25.4477153,47 25,47.4477153 25,48 C25,49.932 26.721,51.547 29,51.919 L29,52 C29,52.5522847 29.4477153,53 30,53 C30.5522847,53 31,52.5522847 31,52 L31,51.919 C33.279,51.547 35,49.932 35,48 C35,46.068 33.279,44.453 31,44.081 L31,40.127 C32.15,40.41 33,41.149 33,42 C33,42.5522847 33.4477153,43 34,43 C34.5522847,43 35,42.5522847 35,42 C35,40.068 33.279,38.453 31,38.081 L31,38 C31,37.4477153 30.5522847,37 30,37 C29.4477153,37 29,37.4477153 29,38 L29,38.081 C26.721,38.453 25,40.068 25,42 C25,43.932 26.721,45.547 29,45.919 L29,49.873 C27.85,49.59 27,48.851 27,48 Z M33,48 C33,48.851 32.15,49.59 31,49.873 L31,46.127 C32.15,46.41 33,47.149 33,48 Z M27,42 C27,41.149 27.85,40.41 29,40.127 L29,43.873 C27.85,43.59 27,42.851 27,42 Z" id="Shape"/><path d="M58,30 L55.123,30 C52.9458213,29.3911292 50.8845735,28.4257218 49.023,27.143 C45.5249044,24.9089172 43.3003439,21.1420196 43.033,17 L51,17 C51.3916025,17.0001454 51.7472535,16.7716991 51.9099644,16.4155 C52.0726752,16.059301 52.0124997,15.6409062 51.756,15.345 L38.756,0.345 C38.5694222,0.129695529 38.2998679,0.00419451158 38.015,0 C37.7317358,0.0038032171 37.4615876,0.119992108 37.264,0.323 L33.9,3.977 L30.756,0.345 C30.5604391,0.135417601 30.2866511,0.0164218596 30,0.0164218596 C29.7133489,0.0164218596 29.4395609,0.135417601 29.244,0.345 L26.1,3.977 L22.736,0.323 C22.5393825,0.118586198 22.2686175,0.00213198589 21.985,1.0513812e-16 C21.7001321,0.00419451158 21.4305778,0.129695529 21.244,0.345 L8.244,15.345 C7.98750029,15.6409062 7.92732477,16.059301 8.09003563,16.4155 C8.25274648,16.7716991 8.60839746,17.0001454 9,17 L16.967,17 C16.7007818,21.1410861 14.4781884,24.907797 10.982,27.143 C9.1188979,28.4262189 7.05592247,29.3916441 4.877,30 L2,30 C0.8954305,30 1.3527075e-16,30.8954305 0,32 L0,58 C1.3527075e-16,59.1045695 0.8954305,60 2,60 L58,60 C59.1045695,60 60,59.1045695 60,58 L60,32 C60,30.8954305 59.1045695,30 58,30 Z M6,52.08 L6,37.92 C9.06599527,37.474224 11.474224,35.0659953 11.92,32 L48.08,32 C48.525776,35.0659953 50.9340047,37.474224 54,37.92 L54,52.08 C50.9340047,52.525776 48.525776,54.9340047 48.08,58 L11.92,58 C11.474224,54.9340047 9.06599527,52.525776 6,52.08 Z M2,37.921 C2.69308467,37.8228895 3.36736389,37.6206057 4,37.321 L4,52.682 C3.36736389,52.3823943 2.69308467,52.1801105 2,52.082 L2,37.921 Z M6,32 L9.9,32 C9.49551205,33.9621984 7.96219841,35.495512 6,35.9 L6,32 Z M54,32 L54,35.9 C52.0378016,35.495512 50.504488,33.9621984 50.1,32 L54,32 Z M54,54.1 L54,58 L50.1,58 C50.504488,56.0378016 52.0378016,54.504488 54,54.1 Z M56,37.317 C56.6326361,37.6166057 57.3069153,37.8188895 58,37.917 L58,52.079 C57.3069153,52.1771105 56.6326361,52.3793943 56,52.679 L56,37.317 Z M58,35.89 C57.2717868,35.7368458 56.5879001,35.4202062 56,34.964 L56,32 L58,32 L58,35.89 Z M47.931,28.822 C48.5482097,29.2480141 49.1874284,29.6412254 49.846,30 L47.123,30 C44.9458213,29.3911292 42.8845735,28.4257218 41.023,27.143 C37.5249044,24.9089172 35.3003439,21.1420196 35.033,17 L41.058,17 C41.333517,21.8109644 43.8864846,26.2022322 47.931,28.822 Z M37.978,2.5 L48.81,15 L43.457,15 L35.222,5.5 L37.978,2.5 Z M30,2.527 L40.81,15 L34,15 C33.4477153,15 33,15.4477153 33,16 C32.9609248,21.1792123 35.576443,26.0177889 39.931,28.822 C40.5482097,29.2480141 41.1874284,29.6412254 41.846,30 L18.154,30 C18.8125716,29.6412254 19.4517903,29.2480141 20.069,28.822 C24.423557,26.0177889 27.0390752,21.1792123 27,16 C27,15.4477153 26.5522847,15 26,15 L19.19,15 L30,2.527 Z M22.022,2.5 L24.778,5.5 L16.543,15 L11.19,15 L22.022,2.5 Z M12.069,28.822 C16.1135154,26.2022322 18.666483,21.8109644 18.942,17 L24.967,17 C24.7007818,21.1410861 22.4781884,24.907797 18.982,27.143 C17.1188979,28.4262189 15.0559225,29.3916441 12.877,30 L10.154,30 C10.8125716,29.6412254 11.4517903,29.2480141 12.069,28.822 Z M4,32 L4,34.965 C3.41209992,35.4212062 2.72821316,35.7378458 2,35.891 L2,32 L4,32 Z M2,54.109 C2.72821316,54.2621542 3.41209992,54.5787938 4,55.035 L4,58 L2,58 L2,54.109 Z M6,54.1 C7.96219841,54.504488 9.49551205,56.0378016 9.9,58 L6,58 L6,54.1 Z M56,58 L56,55.035 C56.5879001,54.5787938 57.2717868,54.2621542 58,54.109 L58,58 L56,58 Z" id="Shape"/><path d="M9,39 C8.44771525,39 8,39.4477153 8,40 L8,41 C8,41.5522847 8.44771525,42 9,42 C9.55228475,42 10,41.5522847 10,41 L10,40 C10,39.4477153 9.55228475,39 9,39 Z" id="Shape"/><path d="M9,44 C8.44771525,44 8,44.4477153 8,45 L8,50 C8,50.5522847 8.44771525,51 9,51 C9.55228475,51 10,50.5522847 10,50 L10,45 C10,44.4477153 9.55228475,44 9,44 Z" id="Shape"/><path d="M51,51 C51.5522847,51 52,50.5522847 52,50 L52,49 C52,48.4477153 51.5522847,48 51,48 C50.4477153,48 50,48.4477153 50,49 L50,50 C50,50.5522847 50.4477153,51 51,51 Z" id="Shape"/><path d="M51,46 C51.5522847,46 52,45.5522847 52,45 L52,40 C52,39.4477153 51.5522847,39 51,39 C50.4477153,39 50,39.4477153 50,40 L50,45 C50,45.5522847 50.4477153,46 51,46 Z" id="Shape"/><path d="M15,54 L14,54 C13.4477153,54 13,54.4477153 13,55 C13,55.5522847 13.4477153,56 14,56 L15,56 C15.5522847,56 16,55.5522847 16,55 C16,54.4477153 15.5522847,54 15,54 Z" id="Shape"/><path d="M15,34 L14,34 C13.4477153,34 13,34.4477153 13,35 C13,35.5522847 13.4477153,36 14,36 L15,36 C15.5522847,36 16,35.5522847 16,35 C16,34.4477153 15.5522847,34 15,34 Z" id="Shape"/><path d="M46,54 L45,54 C44.4477153,54 44,54.4477153 44,55 C44,55.5522847 44.4477153,56 45,56 L46,56 C46.5522847,56 47,55.5522847 47,55 C47,54.4477153 46.5522847,54 46,54 Z" id="Shape"/><path d="M46,34 L45,34 C44.4477153,34 44,34.4477153 44,35 C44,35.5522847 44.4477153,36 45,36 L46,36 C46.5522847,36 47,35.5522847 47,35 C47,34.4477153 46.5522847,34 46,34 Z" id="Shape"/><path d="M42,35 C42,34.4477153 41.5522847,34 41,34 L19,34 C18.4477153,34 18,34.4477153 18,35 C18,35.5522847 18.4477153,36 19,36 L23.7,36 C20.7582442,38.0524388 19.0052257,41.4130191 19.0052257,45 C19.0052257,48.5869809 20.7582442,51.9475612 23.7,54 L19,54 C18.4477153,54 18,54.4477153 18,55 C18,55.5522847 18.4477153,56 19,56 L41,56 C41.5522847,56 42,55.5522847 42,55 C42,54.4477153 41.5522847,54 41,54 L36.305,54 C39.2467558,51.9475612 40.9997743,48.5869809 40.9997743,45 C40.9997743,41.4130191 39.2467558,38.0524388 36.305,36 L41,36 C41.5522847,36 42,35.5522847 42,35 Z M39,45 C39,49.9705627 34.9705627,54 30,54 C25.0294373,54 21,49.9705627 21,45 C21,40.0294373 25.0294373,36 30,36 C34.9682782,36.0055111 38.9944889,40.0317218 39,45 Z" id="Shape"/></g></g></svg>
