<?xml version="1.0" encoding="UTF-8"?>
<svg xmlns="http://www.w3.org/2000/svg" xmlns:xlink="http://www.w3.org/1999/xlink" width="512" height="512" viewBox="0 0 60 60" version="1.1"><!-- Generator: Sketch 51.3 (57544) - http://www.bohemiancoding.com/sketch --><title>042 - cash growth</title><desc>Created with Sketch.</desc><defs/><g id="Page-1" stroke="none" stroke-width="1" fill="none" fill-rule="evenodd"><g id="042---cash-growth" fill-rule="nonzero"><path d="M3,31 L6,31 L6,59 L3,59 C2.44771525,59 2,58.5522847 2,58 L2,32 C2,31.4477153 2.44771525,31 3,31 Z" id="Shape" fill="#E8EDFC"/><path d="M6,31 L6,35.46 C4.90525846,36.4540165 3.47868767,37.0032462 2,37.0000143 L2,32 C2,31.4477153 2.44771525,31 3,31 L6,31 Z" id="Shape" fill="#E8EDFC"/><path d="M6,54.54 L6,59 L3,59 C2.44771525,59 2,58.5522847 2,58 L2,52.9999857 C3.47868767,52.9967538 4.90525846,53.5459835 6,54.54 Z" id="Shape" fill="#E8EDFC"/><path d="M55,31 L58,31 L58,59 L55,59 C54.4477153,59 54,58.5522847 54,58 L54,32 C54,31.4477153 54.4477153,31 55,31 Z" id="Shape" fill="#7FACFA" transform="translate(56.000000, 45.000000) rotate(-180.000000) translate(-56.000000, -45.000000) "/><path d="M54,31 L54,35.46 C55.0947415,36.4540165 56.5213123,37.0032462 58,37.0000143 L58,32 C58,31.4477153 57.5522847,31 57,31 L54,31 Z" id="Shape" fill="#7FACFA"/><path d="M54,54.54 L54,59 L57,59 C57.5522847,59 58,58.5522847 58,58 L58,52.9999857 C56.5213123,52.9967538 55.0947415,53.5459835 54,54.54 Z" id="Shape" fill="#7FACFA"/><path d="M39,31 L5,31 C5,31 17.62,28.09 17.99,16.52 C17.9932418,16.3828554 17.9408791,16.2502296 17.8448225,16.1522895 C17.7487658,16.0543494 17.6171817,15.9994216 17.48,16 L10.09,16 C9.89465104,15.9978099 9.71846973,15.8820456 9.6389266,15.703611 C9.55938347,15.5251764 9.59104931,15.3167574 9.72,15.17 L20.5,2.73 L21.62,1.44 C21.7149941,1.32891681 21.8538379,1.26496154 22,1.26496154 C22.1461621,1.26496154 22.2850059,1.32891681 22.38,1.44 L34.28,15.17 C34.4089507,15.3167574 34.4406165,15.5251764 34.3610734,15.703611 C34.2815303,15.8820456 34.105349,15.9978099 33.91,16 L26.52,16 C26.3828183,15.9994216 26.2512342,16.0543494 26.1551775,16.1522895 C26.0591209,16.2502296 26.0067582,16.3828554 26.01,16.52 C26.38,28.09 39,31 39,31 Z" id="Shape" fill="#CAD9FC"/><path d="M17.99,16.52 C17.9932418,16.3828554 17.9408791,16.2502296 17.8448225,16.1522895 C17.7487658,16.0543494 17.6171817,15.9994216 17.48,16 L10.09,16 C9.89465104,15.9978099 9.71846973,15.8820456 9.6389266,15.703611 C9.55938347,15.5251764 9.59104931,15.3167574 9.72,15.17 L20.5,2.73 L31.28,15.17 C31.4089507,15.3167574 31.4406165,15.5251764 31.3610734,15.703611 C31.2815303,15.8820456 31.105349,15.9978099 30.91,16 L23.52,16 C23.3828183,15.9994216 23.2512342,16.0543494 23.1551775,16.1522895 C23.0591209,16.2502296 23.0067582,16.3828554 23.01,16.52 C23.38,28.09 36,31 36,31 L5,31 C5,31 17.62,28.09 17.99,16.52 Z" id="Shape" fill="#E8EDFC"/><path d="M55,31 L21,31 C21,31 33.62,28.09 33.99,16.52 C33.9932418,16.3828554 33.9408791,16.2502296 33.8448225,16.1522895 C33.7487658,16.0543494 33.6171817,15.9994216 33.48,16 L26.09,16 C25.894651,15.9978099 25.7184697,15.8820456 25.6389266,15.703611 C25.5593835,15.5251764 25.5910493,15.3167574 25.72,15.17 L36.5,2.73 L37.62,1.44 C37.7149941,1.32891681 37.8538379,1.26496154 38,1.26496154 C38.1461621,1.26496154 38.2850059,1.32891681 38.38,1.44 L50.28,15.17 C50.4089507,15.3167574 50.4406165,15.5251764 50.3610734,15.703611 C50.2815303,15.8820456 50.105349,15.9978099 49.91,16 L42.52,16 C42.3828183,15.9994216 42.2512342,16.0543494 42.1551775,16.1522895 C42.0591209,16.2502296 42.0067582,16.3828554 42.01,16.52 C42.38,28.09 55,31 55,31 Z" id="Shape" fill="#CAD9FC"/><path d="M33.99,16.52 C33.9932418,16.3828554 33.9408791,16.2502296 33.8448225,16.1522895 C33.7487658,16.0543494 33.6171817,15.9994216 33.48,16 L26.09,16 C25.894651,15.9978099 25.7184697,15.8820456 25.6389266,15.703611 C25.5593835,15.5251764 25.5910493,15.3167574 25.72,15.17 L36.5,2.73 L47.28,15.17 C47.4089507,15.3167574 47.4406165,15.5251764 47.3610734,15.703611 C47.2815303,15.8820456 47.105349,15.9978099 46.91,16 L39.52,16 C39.3828183,15.9994216 39.2512342,16.0543494 39.1551775,16.1522895 C39.0591209,16.2502296 39.0067582,16.3828554 39.01,16.52 C39.38,28.09 52,31 52,31 L21,31 C21,31 33.62,28.09 33.99,16.52 Z" id="Shape" fill="#E8EDFC"/><rect id="Rectangle-path" fill="#7FACFA" x="5" y="31" width="50" height="28"/><rect id="Rectangle-path" fill="#CAD9FC" x="5" y="31" width="47" height="28"/><path d="M40,45 C40,50.5228475 35.5228475,55 30,55 C29.5042123,55.0006116 29.009213,54.9604765 28.52,54.88 C28.51,54.89 28.5,54.89 28.48,54.88 C23.6125977,54.1190798 20.0245388,49.9265206 20.0245388,45 C20.0245388,40.0734794 23.6125977,35.8809202 28.48,35.12 C28.5,35.11 28.51,35.11 28.52,35.12 C29.009213,35.0395235 29.5042123,34.9993884 30,35 C35.5228475,35 40,39.4771525 40,45 Z" id="Shape" fill="#CAD9FC"/><path d="M37,45 C36.9981224,49.9344879 33.397152,54.1299581 28.52,54.88 C28.51,54.89 28.5,54.89 28.48,54.88 C23.6125977,54.1190798 20.0245388,49.9265206 20.0245388,45 C20.0245388,40.0734794 23.6125977,35.8809202 28.48,35.12 C28.5,35.11 28.51,35.11 28.52,35.12 C33.397152,35.8700419 36.9981224,40.0655121 37,45 Z" id="Shape" fill="#E8EDFC"/><path d="M47,31 L13,31 C13,31 25.62,28.09 25.99,16.52 C25.9932418,16.3828554 25.9408791,16.2502296 25.8448225,16.1522895 C25.7487658,16.0543494 25.6171817,15.9994216 25.48,16 L18.09,16 C17.894651,15.9978099 17.7184697,15.8820456 17.6389266,15.703611 C17.5593835,15.5251764 17.5910493,15.3167574 17.72,15.17 L28.5,2.73 L29.62,1.44 C29.7149941,1.32891681 29.8538379,1.26496154 30,1.26496154 C30.1461621,1.26496154 30.2850059,1.32891681 30.38,1.44 L42.28,15.17 C42.4089507,15.3167574 42.4406165,15.5251764 42.3610734,15.703611 C42.2815303,15.8820456 42.105349,15.9978099 41.91,16 L34.52,16 C34.3828183,15.9994216 34.2512342,16.0543494 34.1551775,16.1522895 C34.0591209,16.2502296 34.0067582,16.3828554 34.01,16.52 C34.38,28.09 47,31 47,31 Z" id="Shape" fill="#CAD9FC"/><path d="M25.99,16.52 C25.9932418,16.3828554 25.9408791,16.2502296 25.8448225,16.1522895 C25.7487658,16.0543494 25.6171817,15.9994216 25.48,16 L18.09,16 C17.894651,15.9978099 17.7184697,15.8820456 17.6389266,15.703611 C17.5593835,15.5251764 17.5910493,15.3167574 17.72,15.17 L28.5,2.73 L39.28,15.17 C39.4089507,15.3167574 39.4406165,15.5251764 39.3610734,15.703611 C39.2815303,15.8820456 39.105349,15.9978099 38.91,16 L31.52,16 C31.3828183,15.9994216 31.2512342,16.0543494 31.1551775,16.1522895 C31.0591209,16.2502296 31.0067582,16.3828554 31.01,16.52 C31.38,28.09 44,31 44,31 L13,31 C13,31 25.62,28.09 25.99,16.52 Z" id="Shape" fill="#E8EDFC"/><path d="M5,58 L5,32 C5,31.4477153 5.44771525,31 6,31 L8,31 C8,31 20.62,28.09 20.99,16.52 C20.9932418,16.3828554 20.9408791,16.2502296 20.8448225,16.1522895 C20.7487658,16.0543494 20.6171817,15.9994216 20.48,16 L17.48,16 C17.6171817,15.9994216 17.7487658,16.0543494 17.8448225,16.1522895 C17.9408791,16.2502296 17.9932418,16.3828554 17.99,16.52 C17.62,28.09 5,31 5,31 L3,31 C2.44771525,31 2,31.4477153 2,32 L2,58 C2,58.5522847 2.44771525,59 3,59 L6,59 C5.44771525,59 5,58.5522847 5,58 Z" id="Shape" fill="#FFFFFF"/><path d="M23.5,2.731 L22.38,1.44 C22.2850059,1.32891681 22.1461621,1.26496154 22,1.26496154 C21.8538379,1.26496154 21.7149941,1.32891681 21.62,1.44 L20.5,2.73 L9.72,15.17 C9.59104931,15.3167574 9.55938347,15.5251764 9.6389266,15.703611 C9.71846973,15.8820456 9.89465104,15.9978099 10.09,16 L13.09,16 C12.894651,15.9978099 12.7184697,15.8820456 12.6389266,15.703611 C12.5593835,15.5251764 12.5910493,15.3167574 12.72,15.17 L23.5,2.731 Z" id="Shape" fill="#FFFFFF"/><path d="M55,60 L5,60 C4.44771525,60 4,59.5522847 4,59 L4,31 C4,30.4477153 4.44771525,30 5,30 L55,30 C55.5522847,30 56,30.4477153 56,31 L56,59 C56,59.5522847 55.5522847,60 55,60 Z M6,58 L54,58 L54,32 L6,32 L6,58 Z" id="Shape" fill="#428DFF"/><path d="M5,60 L2,60 C0.8954305,60 1.3527075e-16,59.1045695 0,58 L0,32 C-1.3527075e-16,30.8954305 0.8954305,30 2,30 L5,30 C5.55228475,30 6,30.4477153 6,31 L6,59 C6,59.5522847 5.55228475,60 5,60 Z M2,32 L2,58 L4,58 L4,32 L2,32 Z" id="Shape" fill="#428DFF"/><path d="M30,56 C23.9248678,56 19,51.0751322 19,45 C19,38.9248678 23.9248678,34 30,34 C36.0751322,34 41,38.9248678 41,45 C40.9928365,51.0721626 36.0721626,55.9928365 30,56 Z M30,36 C25.0294373,36 21,40.0294373 21,45 C21,49.9705627 25.0294373,54 30,54 C34.9705627,54 39,49.9705627 39,45 C38.9944889,40.0317218 34.9682782,36.0055111 30,36 Z" id="Shape" fill="#428DFF"/><path d="M30,46 C27.243,46 25,44.206 25,42 C25,39.794 27.243,38 30,38 C32.757,38 35,39.794 35,42 C35,42.5522847 34.5522847,43 34,43 C33.4477153,43 33,42.5522847 33,42 C33,40.916 31.626,40 30,40 C28.374,40 27,40.916 27,42 C27,43.084 28.374,44 30,44 C30.5522847,44 31,44.4477153 31,45 C31,45.5522847 30.5522847,46 30,46 Z" id="Shape" fill="#7FACFA"/><path d="M30,52 C27.243,52 25,50.206 25,48 C25,47.4477153 25.4477153,47 26,47 C26.5522847,47 27,47.4477153 27,48 C27,49.084 28.374,50 30,50 C31.626,50 33,49.084 33,48 C33,46.916 31.626,46 30,46 C29.4477153,46 29,45.5522847 29,45 C29,44.4477153 29.4477153,44 30,44 C32.757,44 35,45.794 35,48 C35,50.206 32.757,52 30,52 Z" id="Shape" fill="#7FACFA"/><path d="M30,53 C29.4477153,53 29,52.5522847 29,52 L29,38 C29,37.4477153 29.4477153,37 30,37 C30.5522847,37 31,37.4477153 31,38 L31,52 C31,52.5522847 30.5522847,53 30,53 Z" id="Shape" fill="#7FACFA"/><path d="M5,38 C4.44771525,38 4,37.5522847 4,37 C4,36.4477153 4.44771525,36 5,36 C7.76005315,35.9966939 9.99669388,33.7600532 10,31 C10,30.4477153 10.4477153,30 11,30 C11.5522847,30 12,30.4477153 12,31 C11.9955914,34.8641657 8.86416566,37.9955914 5,38 Z" id="Shape" fill="#428DFF"/><path d="M55,38 C51.1358343,37.9955914 48.0044086,34.8641657 48,31 C48,30.4477153 48.4477153,30 49,30 C49.5522847,30 50,30.4477153 50,31 C50.0033061,33.7600532 52.2399468,35.9966939 55,36 C55.5522847,36 56,36.4477153 56,37 C56,37.5522847 55.5522847,38 55,38 Z" id="Shape" fill="#428DFF"/><path d="M11,60 C10.4477153,60 10,59.5522847 10,59 C9.99669388,56.2399468 7.76005315,54.0033061 5,54 C4.44771525,54 4,53.5522847 4,53 C4,52.4477153 4.44771525,52 5,52 C8.86416566,52.0044086 11.9955914,55.1358343 12,59 C12,59.5522847 11.5522847,60 11,60 Z" id="Shape" fill="#428DFF"/><path d="M1,38 C0.44771525,38 6.76353751e-17,37.5522847 0,37 C-6.76353751e-17,36.4477153 0.44771525,36 1,36 C2.23030108,36.0015422 3.41708618,35.544867 4.329,34.719 C4.74071155,34.3732575 5.35210931,34.414919 5.71311415,34.8133155 C6.07411899,35.2117121 6.05551612,35.8242452 5.671,36.2 C4.39183356,37.359693 2.72660146,38.0014009 1,38 Z" id="Shape" fill="#428DFF"/><path d="M5,55.54 C4.75180872,55.5406465 4.51239112,55.4482334 4.329,55.281 C3.41708618,54.455133 2.23030108,53.9984578 1,54 C0.44771525,54 -3.76453835e-16,53.5522847 -4.4408921e-16,53 C-5.11724585e-16,52.4477153 0.44771525,52 1,52 C2.72660146,51.9985991 4.39183356,52.640307 5.671,53.8 C5.97651816,54.077693 6.07997177,54.5145954 5.93142193,54.8998067 C5.78287208,55.2850179 5.41286112,55.5393372 5,55.54 Z" id="Shape" fill="#428DFF"/><path d="M58,60 L55,60 C54.4477153,60 54,59.5522847 54,59 L54,31 C54,30.4477153 54.4477153,30 55,30 L58,30 C59.1045695,30 60,30.8954305 60,32 L60,58 C60,59.1045695 59.1045695,60 58,60 Z M56,58 L58,58 L58,32 L56,32 L56,58 Z" id="Shape" fill="#428DFF"/><path d="M59,38 C57.2733985,38.0014009 55.6081664,37.359693 54.329,36.2 C54.0533121,35.9631235 53.927863,35.5953102 54.0013508,35.2393413 C54.0748386,34.8833724 54.3356899,34.5953086 54.6826449,34.4869733 C55.0295999,34.378638 55.4080175,34.4670926 55.671,34.718 C56.582764,35.5442302 57.7695658,36.0012683 59,36 C59.5522847,36 60,36.4477153 60,37 C60,37.5522847 59.5522847,38 59,38 Z" id="Shape" fill="#428DFF"/><path d="M55,55.54 C54.5866659,55.5397913 54.2160536,55.2853064 54.0674081,54.8996256 C53.9187627,54.5139448 54.0227193,54.0765559 54.329,53.799 C55.6083163,52.6396703 57.2735317,51.9983252 59,52 C59.5522847,52 60,52.4477153 60,53 C60,53.5522847 59.5522847,54 59,54 C57.7696989,53.9984578 56.5829138,54.455133 55.671,55.281 C55.4876089,55.4482334 55.2481913,55.5406465 55,55.54 Z" id="Shape" fill="#428DFF"/><path d="M49,60 C48.4477153,60 48,59.5522847 48,59 C48.0044086,55.1358343 51.1358343,52.0044086 55,52 C55.5522847,52 56,52.4477153 56,53 C56,53.5522847 55.5522847,54 55,54 C52.2399468,54.0033061 50.0033061,56.2399468 50,59 C50,59.5522847 49.5522847,60 49,60 Z" id="Shape" fill="#428DFF"/><path d="M9,42 C8.44771525,42 8,41.5522847 8,41 L8,40 C8,39.4477153 8.44771525,39 9,39 C9.55228475,39 10,39.4477153 10,40 L10,41 C10,41.5522847 9.55228475,42 9,42 Z" id="Shape" fill="#428DFF"/><path d="M9,51 C8.44771525,51 8,50.5522847 8,50 L8,45 C8,44.4477153 8.44771525,44 9,44 C9.55228475,44 10,44.4477153 10,45 L10,50 C10,50.5522847 9.55228475,51 9,51 Z" id="Shape" fill="#428DFF"/><path d="M51,51 C50.4477153,51 50,50.5522847 50,50 L50,49 C50,48.4477153 50.4477153,48 51,48 C51.5522847,48 52,48.4477153 52,49 L52,50 C52,50.5522847 51.5522847,51 51,51 Z" id="Shape" fill="#428DFF"/><path d="M51,46 C50.4477153,46 50,45.5522847 50,45 L50,40 C50,39.4477153 50.4477153,39 51,39 C51.5522847,39 52,39.4477153 52,40 L52,45 C52,45.5522847 51.5522847,46 51,46 Z" id="Shape" fill="#428DFF"/><path d="M15,56 L14,56 C13.4477153,56 13,55.5522847 13,55 C13,54.4477153 13.4477153,54 14,54 L15,54 C15.5522847,54 16,54.4477153 16,55 C16,55.5522847 15.5522847,56 15,56 Z" id="Shape" fill="#428DFF"/><path d="M30,56 L19,56 C18.4477153,56 18,55.5522847 18,55 C18,54.4477153 18.4477153,54 19,54 L30,54 C30.5522847,54 31,54.4477153 31,55 C31,55.5522847 30.5522847,56 30,56 Z" id="Shape" fill="#428DFF"/><path d="M15,36 L14,36 C13.4477153,36 13,35.5522847 13,35 C13,34.4477153 13.4477153,34 14,34 L15,34 C15.5522847,34 16,34.4477153 16,35 C16,35.5522847 15.5522847,36 15,36 Z" id="Shape" fill="#428DFF"/><path d="M30,36 L19,36 C18.4477153,36 18,35.5522847 18,35 C18,34.4477153 18.4477153,34 19,34 L30,34 C30.5522847,34 31,34.4477153 31,35 C31,35.5522847 30.5522847,36 30,36 Z" id="Shape" fill="#428DFF"/><path d="M46,56 L45,56 C44.4477153,56 44,55.5522847 44,55 C44,54.4477153 44.4477153,54 45,54 L46,54 C46.5522847,54 47,54.4477153 47,55 C47,55.5522847 46.5522847,56 46,56 Z" id="Shape" fill="#428DFF"/><path d="M41,56 L30,56 C29.4477153,56 29,55.5522847 29,55 C29,54.4477153 29.4477153,54 30,54 L41,54 C41.5522847,54 42,54.4477153 42,55 C42,55.5522847 41.5522847,56 41,56 Z" id="Shape" fill="#428DFF"/><path d="M46,36 L45,36 C44.4477153,36 44,35.5522847 44,35 C44,34.4477153 44.4477153,34 45,34 L46,34 C46.5522847,34 47,34.4477153 47,35 C47,35.5522847 46.5522847,36 46,36 Z" id="Shape" fill="#428DFF"/><path d="M41,36 L30,36 C29.4477153,36 29,35.5522847 29,35 C29,34.4477153 29.4477153,34 30,34 L41,34 C41.5522847,34 42,34.4477153 42,35 C42,35.5522847 41.5522847,36 41,36 Z" id="Shape" fill="#428DFF"/><path d="M47,32 C46.9239749,32.0000328 46.8481798,31.9916484 46.774,31.975 C44.3283801,31.3252376 42.0131232,30.2586091 39.93,28.822 C35.5758248,26.0175523 32.9607067,21.1790177 33,16 C33,15.4477153 33.4477153,15 34,15 L40.81,15 L30,2.527 L19.19,15 L26,15 C26.5522847,15 27,15.4477153 27,16 C27.0390752,21.1792123 24.423557,26.0177889 20.069,28.822 C17.9858768,30.2586091 15.6706199,31.3252376 13.225,31.975 C12.6867985,32.0995402 12.1495402,31.7642015 12.025,31.226 C11.9004598,30.6877985 12.2357985,30.1505402 12.774,30.026 C14.9914934,29.4230204 17.0906126,28.4481878 18.982,27.143 C22.4781884,24.907797 24.7007818,21.1410861 24.967,17 L17,17 C16.6083975,17.0001454 16.2527465,16.7716991 16.0900356,16.4155 C15.9273248,16.059301 15.9875003,15.6409062 16.244,15.345 L29.244,0.345 C29.4395609,0.135417601 29.7133489,0.0164218596 30,0.0164218596 C30.2866511,0.0164218596 30.5604391,0.135417601 30.756,0.345 L43.756,15.345 C44.0124997,15.6409062 44.0726752,16.059301 43.9099644,16.4155 C43.7472535,16.7716991 43.3916025,17.0001454 43,17 L35.033,17 C35.2992182,21.1410861 37.5218116,24.907797 41.018,27.143 C42.9093874,28.4481878 45.0085066,29.4230204 47.226,30.026 C47.7208571,30.1411012 48.0507528,30.6089761 47.9929626,31.1137455 C47.9351724,31.6185148 47.5080666,31.9997219 47,32 Z" id="Shape" fill="#428DFF"/><path d="M37,17 L34,17 C33.4477153,17 33,16.5522847 33,16 C33,15.4477153 33.4477153,15 34,15 L37,15 C37.5522847,15 38,15.4477153 38,16 C38,16.5522847 37.5522847,17 37,17 Z" id="Shape" fill="#428DFF"/><polygon id="Shape" fill="#FFFFFF" points="8.244 15.345 16.758 5.521 21.244 0.345 22.756 1.655 18.27 6.831 9.756 16.655"/><path d="M12.275,12.222 C12.0746548,12.0480922 11.8134151,11.9609222 11.5487826,11.9796772 C11.2841501,11.9984321 11.0378155,12.1215748 10.864,12.322 L8.244,15.345 L9.756,16.655 L12.375,13.632 C12.7364773,13.2149353 12.6917211,12.5838734 12.275,12.222 Z" id="Shape" fill="#428DFF"/><path d="M22.756,1.655 L21.244,0.345 L16.1,6.277 C15.7382535,6.69452727 15.7834727,7.32625349 16.201,7.688 C16.6185273,8.04974651 17.2502535,8.00452727 17.612,7.587 L22.756,1.655 Z" id="Shape" fill="#428DFF"/><path d="M13.484,9.3 C13.3134384,9.5023512 13.2255781,9.76164612 13.238,10.026 L13.273,10.215 C13.2897281,10.2803339 13.3156538,10.3429597 13.35,10.401 C13.3744048,10.46033 13.4081669,10.5153622 13.45,10.564 C13.4921801,10.6161404 13.5383168,10.6649516 13.588,10.71 C13.7900023,10.8811792 14.0495477,10.9691244 14.314,10.956 C14.860147,10.9028116 15.2689376,10.4311639 15.244,9.883 C15.2313474,9.7519179 15.193307,9.62455064 15.132,9.508 C15.0748949,9.39045862 14.9950167,9.28542736 14.897,9.199 C14.6979751,9.02256874 14.4362767,8.93373525 14.1709752,8.95255095 C13.9056738,8.97136666 13.6591323,9.09624553 13.487,9.299 L13.484,9.3 Z" id="Shape" fill="#428DFF"/><path d="M5,32 C4.49212301,31.9992164 4.06549256,31.6178599 4.00797619,31.1132497 C3.95045983,30.6086394 4.28032662,30.1410561 4.775,30.026 C6.99249337,29.4230204 9.09161265,28.4481878 10.983,27.143 C14.478807,24.907573 16.701007,21.1408994 16.967,17 L9,17 C8.44771525,17 8,16.5522847 8,16 C8,15.4477153 8.44771525,15 9,15 L18,15 C18.5522847,15 19,15.4477153 19,16 C19.0390752,21.1792123 16.423557,26.0177889 12.069,28.822 C9.98587681,30.2586091 7.67061991,31.3252376 5.225,31.975 C5.1511464,31.9915752 5.07569076,31.9999592 5,32 Z" id="Shape" fill="#428DFF"/><path d="M26.121,6.48 C25.8409424,6.48028468 25.573599,6.3631179 25.384,6.157 L21.264,1.677 C20.8901032,1.27051842 20.9165184,0.637896788 21.323,0.264000019 C21.7294816,-0.10989675 22.3621032,-0.0834815588 22.736,0.323 L26.856,4.8 C27.1238931,5.09202648 27.1940646,5.51469791 27.0349059,5.8776231 C26.8757472,6.24054829 26.5172898,6.47524706 26.121,6.476 L26.121,6.48 Z" id="Shape" fill="#428DFF"/><path d="M55,32 C54.9239749,32.0000328 54.8481798,31.9916484 54.774,31.975 C52.3283801,31.3252376 50.0131232,30.2586091 47.93,28.822 C43.5758248,26.0175523 40.9607067,21.1790177 41,16 C41,15.4477153 41.4477153,15 42,15 L48.81,15 L37.978,2.5 L34.616,6.157 C34.2412748,6.56348158 33.6079816,6.5892252 33.2015,6.2145 C32.7950184,5.8397748 32.7692748,5.20648158 33.144,4.8 L37.264,0.323 C37.4615876,0.119992108 37.7317358,0.0038032171 38.015,0 C38.2998679,0.00419451158 38.5694222,0.129695529 38.756,0.345 L51.756,15.345 C52.0124997,15.6409062 52.0726752,16.059301 51.9099644,16.4155 C51.7472535,16.7716991 51.3916025,17.0001454 51,17 L43.033,17 C43.2992182,21.1410861 45.5218116,24.907797 49.018,27.143 C50.9093874,28.4481878 53.0085066,29.4230204 55.226,30.026 C55.7208571,30.1411012 56.0507528,30.6089761 55.9929626,31.1137455 C55.9351724,31.6185148 55.5080666,31.9997219 55,32 Z" id="Shape" fill="#428DFF"/><path d="M26,17 L23,17 C22.4477153,17 22,16.5522847 22,16 C22,15.4477153 22.4477153,15 23,15 L26,15 C26.5522847,15 27,15.4477153 27,16 C27,16.5522847 26.5522847,17 26,17 Z" id="Shape" fill="#428DFF"/></g></g></svg>
