<?xml version="1.0" encoding="UTF-8"?>
<svg xmlns="http://www.w3.org/2000/svg" xmlns:xlink="http://www.w3.org/1999/xlink" width="512" height="512" viewBox="0 0 60 60" version="1.1"><!-- Generator: Sketch 51.3 (57544) - http://www.bohemiancoding.com/sketch --><title>012 - Money Cover</title><desc>Created with Sketch.</desc><defs/><g id="Page-1" stroke="none" stroke-width="1" fill="none" fill-rule="evenodd"><g id="012---Money-Cover" fill-rule="nonzero"><path d="M44.82,35.97 C44.9402936,36.6399614 45.0005328,37.3193249 45,38 C44.9463532,42.435681 42.8042935,46.5863849 39.22,49.2 C38.3031339,49.8997879 37.8583696,51.056175 38.07,52.19 L38.96,56.61 C39.076709,57.1970173 38.9243898,57.8054503 38.5448658,58.2682372 C38.1653417,58.7310241 37.5985065,58.9995193 37,59 L32.84,59 C32.0741139,59.0053993 31.3735203,58.5694743 31.04,57.88 C30.36,56.41 28.6,54 24.44,54 C20.28,54 18.52,56.41 17.84,57.88 C17.5064797,58.5694743 16.8058861,59.0053993 16.04,59 L11.88,59 C11.2814935,58.9995193 10.7146583,58.7310241 10.3351342,58.2682372 C9.95561021,57.8054503 9.80329101,57.1970173 9.92,56.61 L10.95,51.48 C11.1561079,50.4131794 10.7744251,49.3177499 9.95,48.61 C8.73396315,47.6101541 7.69011338,46.4176656 6.86,45.08 C6.51408996,44.4260666 5.83968452,44.0122269 5.1,44 L3,44 C1.89679813,43.9967052 1.0032948,43.1032019 1,42 L1,36 C1.0032948,34.8967981 1.89679813,34.0032948 3,34 L4.14,34 C4.95716106,34.0005984 5.69127963,33.5006042 5.99,32.74 C7.05905368,30.090052 8.83317848,27.7833439 11.12,26.07 C11.034933,24.1825167 10.2838224,22.3862286 9,21 C6.24,18.24 13.63,17.17 16.39,23.25 C18.8374239,22.404786 21.4108014,21.9820893 24,22 C26.4129621,22.0008524 28.8135829,22.3442792 31.13,23.02 L44.82,35.97 Z" id="Shape" fill="#FF5364"/><path d="M45,38 C44.9463532,42.435681 42.8042935,46.5863849 39.22,49.2 C38.3031339,49.8997879 37.8583696,51.056175 38.07,52.19 L38.96,56.61 C39.076709,57.1970173 38.9243898,57.8054503 38.5448658,58.2682372 C38.1653417,58.7310241 37.5985065,58.9995193 37,59 L32.84,59 C32.0741139,59.0053993 31.3735203,58.5694743 31.04,57.88 C30.36,56.41 28.6,54 24.44,54 C23.9374851,53.996941 23.4356373,54.0370888 22.94,54.12 C20.7035305,54.4054664 18.774065,55.8279743 17.84,57.88 C17.5064797,58.5694743 16.8058861,59.0053993 16.04,59 L11.88,59 C11.2814935,58.9995193 10.7146583,58.7310241 10.3351342,58.2682372 C9.95561021,57.8054503 9.80329101,57.1970173 9.92,56.61 L10.95,51.48 C11.1561079,50.4131794 10.7744251,49.3177499 9.95,48.61 C8.73396315,47.6101541 7.69011338,46.4176656 6.86,45.08 C6.51408996,44.4260666 5.83968452,44.0122269 5.1,44 L3,44 C2.86557357,44.0020581 2.73135697,43.9886365 2.6,43.96 C2.52488358,43.9426937 2.45130576,43.9192826 2.38,43.89 C1.55980589,43.6245506 1.00307725,42.8620744 1,42 L1,36 C1.00240524,35.5093607 1.18374455,35.0364562 1.51,34.67 C1.69879618,34.4528246 1.93483285,34.2817835 2.2,34.17 C2.21,34.17 2.21,34.16 2.22,34.16 C2.46675336,34.0552643 2.73194024,34.000867 3,34 L4.14,34 C4.95716106,34.0005984 5.69127963,33.5006042 5.99,32.74 C7.05905368,30.090052 8.83317848,27.7833439 11.12,26.07 C11.034933,24.1825167 10.2838224,22.3862286 9,21 C8.14,20.14 8.26,19.45 8.93,19.08 C10.3,18.32 14,18.97 16.01,22.52 C16.1505774,22.7558356 16.2774541,22.9995726 16.39,23.25 C18.3502236,22.5663385 20.3970206,22.1623654 22.47,22.05 C22.97,22.02 23.48,22 24,22 C26.4129621,22.0008524 28.8135829,22.3442792 31.13,23.02 L44.82,35.97 C44.9402936,36.6399614 45.0005328,37.3193249 45,38 Z" id="Shape" fill="#CAD9FC"/><path d="M42,38 C41.9463532,42.435681 39.8042935,46.5863849 36.22,49.2 C35.3031339,49.8997879 34.8583696,51.056175 35.07,52.19 L35.96,56.61 C36.076709,57.1970173 35.9243898,57.8054503 35.5448658,58.2682372 C35.1653417,58.7310241 34.5985065,58.9995193 34,59 L32.84,59 C32.0741139,59.0053993 31.3735203,58.5694743 31.04,57.88 C30.36,56.41 28.6,54 24.44,54 C23.9374851,53.996941 23.4356373,54.0370888 22.94,54.12 C22.4443627,54.0370888 21.9425149,53.996941 21.44,54 C17.28,54 15.52,56.41 14.84,57.88 C14.5064797,58.5694743 13.8058861,59.0053993 13.04,59 L11.88,59 C11.2814935,58.9995193 10.7146583,58.7310241 10.3351342,58.2682372 C9.95561021,57.8054503 9.80329101,57.1970173 9.92,56.61 L10.95,51.48 C11.1561079,50.4131794 10.7744251,49.3177499 9.95,48.61 C8.73396315,47.6101541 7.69011338,46.4176656 6.86,45.08 C6.51408996,44.4260666 5.83968452,44.0122269 5.1,44 L3,44 C2.86557357,44.0020581 2.73135697,43.9886365 2.6,43.96 C2.52488358,43.9426937 2.45130576,43.9192826 2.38,43.89 C1.55980589,43.6245506 1.00307725,42.8620744 1,42 L1,36 C1.00240524,35.5093607 1.18374455,35.0364562 1.51,34.67 C1.69879618,34.4528246 1.93483285,34.2817835 2.2,34.17 C2.21,34.17 2.21,34.16 2.22,34.16 C2.46675336,34.0552643 2.73194024,34.000867 3,34 L4.14,34 C4.95716106,34.0005984 5.69127963,33.5006042 5.99,32.74 C7.05905368,30.090052 8.83317848,27.7833439 11.12,26.07 C11.034933,24.1825167 10.2838224,22.3862286 9,21 C8.14,20.14 8.26,19.45 8.93,19.08 C10.9391976,19.7772016 12.5594905,21.2921392 13.39,23.25 C14.2455563,22.9468622 15.120957,22.7029528 16.01,22.52 C17.6501783,22.170149 19.3229301,21.9958342 21,22 C21.49,22 21.98,22.01 22.47,22.05 C24.387464,22.1566103 26.2864572,22.4820561 28.13,23.02 L41.82,35.97 C41.9402936,36.6399614 42.0005328,37.3193249 42,38 Z" id="Shape" fill="#E8EDFC"/><path d="M59,7.31 L59,21.44 C58.9949804,24.4068418 57.5525697,27.1873028 55.13,28.9 L45.29,35.91 C45.115307,36.0300632 44.884693,36.0300632 44.71,35.91 L43.52,35.06 L34.87,28.9 C32.4474303,27.1873028 31.0050196,24.4068418 31,21.44 L31,7.31 C31.0005992,7.1109412 31.118079,6.93080551 31.3,6.85 L43.52,1.57 L44.8,1.02 C44.9286443,0.969991901 45.0713557,0.969991901 45.2,1.02 L58.7,6.85 C58.881921,6.93080551 58.9994008,7.1109412 59,7.31 Z" id="Shape" fill="#E8EDFC"/><path d="M56.03,7.31 L56.03,21.44 C56.0249804,24.4068418 54.5825697,27.1873028 52.16,28.9 L43.52,35.06 L34.87,28.9 C32.4474303,27.1873028 31.0050196,24.4068418 31,21.44 L31,7.31 C31.0005992,7.1109412 31.118079,6.93080551 31.3,6.85 L43.52,1.57 L55.73,6.85 C55.911921,6.93080551 56.0294008,7.1109412 56.03,7.31 Z" id="Shape" fill="#FFFFFF"/><path d="M37.188,25.643 C35.8235742,24.6786208 35.0087098,23.1148109 35,21.444 L35,9.612 L45,5.292 L55,9.612 L55,21.444 C54.991115,23.1150413 54.1763259,24.6790788 52.812,25.644 L45,31.2 L37.188,25.643 Z" id="Shape" fill="#955BA5"/><path d="M37.188,25.643 C35.8235742,24.6786208 35.0087098,23.1148109 35,21.444 L35,9.612 L45,5.292 L55,9.612 L55,21.444 C54.991115,23.1150413 54.1763259,24.6790788 52.812,25.644 L45,31.2 L37.188,25.643 Z" id="Shape" fill="#A4C2F7"/><path d="M22.514,22.049 L22.47,22.049 C21.98,22.009 21.49,21.999 21,21.999 C20.241,21.999 19.5,22.039 18.764,22.106 C18.85,22.239 18.932,22.377 19.012,22.518 C20.1656919,22.2727443 21.3364295,22.1159551 22.514,22.049 Z" id="Shape" fill="#FFFFFF"/><path d="M1.125,42.672 C1.18789515,42.8479297 1.27507185,43.014205 1.384,43.166 C1.392,43.177 1.401,43.185 1.408,43.196 C1.69037466,43.5729605 2.09644332,43.8384805 2.555,43.946 L2.6,43.96 C2.73135697,43.9886365 2.86557357,44.0020581 3,44 L5.1,44 C5.83968452,44.0122269 6.51408996,44.4260666 6.86,45.08 C7.69011338,46.4176656 8.73396315,47.6101541 9.95,48.61 C10.7744251,49.3177499 11.1561079,50.4131794 10.95,51.48 L9.92,56.61 C9.80329101,57.1970173 9.95561021,57.8054503 10.3351342,58.2682372 C10.7146583,58.7310241 11.2814935,58.9995193 11.88,59 L14.88,59 C14.2814935,58.9995193 13.7146583,58.7310241 13.3351342,58.2682372 C12.9556102,57.8054503 12.803291,57.1970173 12.92,56.61 L13.95,51.48 C14.1561079,50.4131794 13.7744251,49.3177499 12.95,48.61 C11.7339632,47.6101541 10.6901134,46.4176656 9.86,45.08 C9.51408996,44.4260666 8.83968452,44.0122269 8.1,44 L6,44 C5.86557357,44.0020581 5.73135697,43.9886365 5.6,43.96 L5.555,43.946 C5.09644332,43.8384805 4.69037466,43.5729605 4.408,43.196 C4.401,43.185 4.392,43.177 4.384,43.166 C4.27507185,43.014205 4.18789515,42.8479297 4.125,42.672 C4.113,42.638 4.104,42.604 4.093,42.572 C4.03382844,42.3869948 4.00248593,42.1942216 4,42 L4,36 C4.00029518,35.8710266 4.0133589,35.7423992 4.039,35.616 C4.052,35.551 4.075,35.49 4.094,35.426 C4.113,35.362 4.125,35.313 4.147,35.259 C4.17470759,35.1945851 4.20609263,35.131815 4.241,35.071 C4.267,35.023 4.29,34.971 4.319,34.928 C4.35273868,34.8771283 4.38912197,34.8280609 4.428,34.781 C4.456,34.745 4.48,34.704 4.51,34.67 C4.521,34.657 4.536,34.648 4.548,34.635 C4.60241067,34.5795519 4.65983078,34.5271394 4.72,34.478 C4.76626139,34.4355604 4.81465762,34.3955084 4.865,34.358 C4.96007619,34.2933412 5.06043113,34.2368079 5.165,34.189 C5.177,34.184 5.188,34.175 5.2,34.17 C5.212,34.165 5.21,34.17 5.214,34.163 C5.4621567,34.0556782 5.72963047,34.0002097 6,34 L7.14,34 C7.95716106,34.0005984 8.69127963,33.5006042 8.99,32.74 C10.0590537,30.090052 11.8331785,27.7833439 14.12,26.07 C14.034933,24.1825167 13.2838224,22.3862286 12,21 C11.9099626,20.9098689 11.8254741,20.8143602 11.747,20.714 C11.721,20.681 11.701,20.648 11.678,20.614 C11.637,20.555 11.599,20.498 11.567,20.441 C11.5456667,20.4036667 11.5266667,20.3666667 11.51,20.33 C11.4881552,20.2828339 11.4691219,20.2344158 11.453,20.185 C11.441,20.148 11.427,20.111 11.419,20.076 C11.4092472,20.0275328 11.4032295,19.9783884 11.401,19.929 C11.398018,19.888388 11.398018,19.847612 11.401,19.807 C11.405124,19.7518993 11.4144998,19.6973183 11.429,19.644 C11.437,19.618 11.449,19.595 11.459,19.571 C11.4768403,19.5264958 11.4985922,19.4836614 11.524,19.443 C11.536521,19.4232016 11.550212,19.4041678 11.565,19.386 C11.6020112,19.3372134 11.6435272,19.2920145 11.689,19.251 L11.719,19.224 C11.7840884,19.168333 11.8544169,19.1191031 11.929,19.077 C11.7092288,19.0052578 11.4855292,18.9461611 11.259,18.9 L11.215,18.892 C11.075,18.865 10.939,18.844 10.805,18.829 L10.754,18.823 C10.3584136,18.7758466 9.95800544,18.7879802 9.566,18.859 L9.528,18.867 C9.42650753,18.8885465 9.32634141,18.9159252 9.228,18.949 L9.213,18.949 C9.03420194,19.0089191 8.86757389,19.1003613 8.721,19.219 L8.691,19.246 C8.6455272,19.2870145 8.60401119,19.3322134 8.567,19.381 C8.552212,19.3991678 8.53852102,19.4182016 8.526,19.438 C8.50059221,19.4786614 8.47884035,19.5214958 8.461,19.566 C8.451,19.59 8.439,19.613 8.431,19.639 C8.41649985,19.6923183 8.40712396,19.7468993 8.403,19.802 C8.40001801,19.842612 8.40001801,19.883388 8.403,19.924 C8.40522952,19.9733884 8.4112472,20.0225328 8.421,20.071 C8.429,20.106 8.443,20.143 8.455,20.18 C8.47112193,20.2294158 8.49015523,20.2778339 8.512,20.325 C8.52866667,20.3616667 8.54766667,20.3986667 8.569,20.436 C8.601,20.493 8.639,20.55 8.68,20.609 C8.703,20.641 8.723,20.674 8.749,20.709 C8.8266682,20.8110164 8.91049072,20.9081971 9,21 C10.2838224,22.3862286 11.034933,24.1825167 11.12,26.07 C8.83317848,27.7833439 7.05905368,30.090052 5.99,32.74 C5.69127963,33.5006042 4.95716106,34.0005984 4.14,34 L3,34 C2.72963047,34.0002097 2.4621567,34.0556782 2.214,34.163 C2.214,34.163 2.207,34.17 2.2,34.17 C2.193,34.17 2.177,34.184 2.165,34.189 C2.06043113,34.2368079 1.96007619,34.2933412 1.865,34.358 C1.81465762,34.3955084 1.76626139,34.4355604 1.72,34.478 C1.65983078,34.5271394 1.60241067,34.5795519 1.548,34.635 C1.536,34.648 1.521,34.657 1.51,34.67 C1.48,34.704 1.456,34.745 1.428,34.781 C1.38912197,34.8280609 1.35273868,34.8771283 1.319,34.928 C1.29,34.973 1.267,35.028 1.241,35.071 C1.20609263,35.131815 1.17470759,35.1945851 1.147,35.259 C1.125,35.313 1.112,35.37 1.094,35.426 C1.076,35.482 1.052,35.551 1.039,35.616 C1.0133589,35.7423992 1.00029518,35.8710266 1,36 L1,42 C1.00268348,42.1935499 1.03402363,42.3856347 1.093,42.57 C1.1,42.6 1.113,42.638 1.125,42.672 Z" id="Shape" fill="#FFFFFF"/><path d="M35,30.032 C34.81491,30.031784 34.6335116,29.9802032 34.476,29.883 C31.313335,27.9821095 27.6899333,26.9849477 24,27 C23.4477153,27 23,26.5522847 23,26 C23,25.4477153 23.4477153,25 24,25 C28.0593008,24.9866834 32.0445098,26.086922 35.522,28.181 C35.9020424,28.4155253 36.0805148,28.873612 35.9593025,29.3034281 C35.8380902,29.7332442 35.4465785,30.0305899 35,30.032 Z" id="Shape" fill="#CAD9FC"/><polygon id="Shape" fill="#FFFFFF" points="30 21.509 30 8.509 30 7.048 32 7.048 32 8.509 32 21.509"/><path d="M31,16.509 C30.4477153,16.509 30,16.9567153 30,17.509 L30,21.509 L32,21.509 L32,17.509 C32,16.9567153 31.5522847,16.509 31,16.509 Z" id="Shape" fill="#428DFF"/><path d="M32,7.048 L30,7.048 L30,9.509 C30,10.0612847 30.4477153,10.509 31,10.509 C31.5522847,10.509 32,10.0612847 32,9.509 L32,7.048 Z" id="Shape" fill="#428DFF"/><path d="M30,13.509 C30.0036835,13.773767 30.1072663,14.0273662 30.29,14.219 L30.44,14.339 C30.4957027,14.3771752 30.5562328,14.4077765 30.62,14.43 C30.6764975,14.4590735 30.7372545,14.4789883 30.8,14.489 C30.8660786,14.5006162 30.9329297,14.5073013 31,14.509 C31.2647269,14.5051196 31.518257,14.401565 31.71,14.219 C32.0874019,13.8208949 32.0874019,13.1971051 31.71,12.799 C31.613866,12.7092815 31.50199,12.6380877 31.38,12.589 C31.2596626,12.5381253 31.1306349,12.5109616 31,12.509 C30.7339647,12.5062989 30.4780384,12.6107882 30.2899133,12.7989133 C30.1017882,12.9870384 29.9972989,13.2429647 30,13.509 Z" id="Shape" fill="#428DFF"/><path d="M45,37 C44.6290936,37.0002033 44.2673355,36.8848601 43.965,36.67 L34.289,29.782 C31.6076369,27.8784118 30.0103117,24.7973506 30,21.509 C30,20.9567153 30.4477153,20.509 31,20.509 C31.5522847,20.509 32,20.9567153 32,21.509 C32.0097361,24.1505786 33.2942178,26.624947 35.449,28.153 L45,34.952 L54.551,28.152 C56.7054958,26.624152 57.9899416,24.1502252 58,21.509 L58,7.705 L45,2.089 L31.4,7.966 C30.8930026,8.1869139 30.3029139,7.9549974 30.082,7.448 C29.8610861,6.9410026 30.0930026,6.3509139 30.6,6.13 L44.6,0.082 C44.8527492,-0.0269993194 45.1392508,-0.0269993194 45.392,0.082 L59.392,6.13 C59.7569212,6.28926415 59.992591,6.64983898 59.992,7.048 L59.992,21.509 C59.9816883,24.7973506 58.3843631,27.8784118 55.703,29.782 L46.028,36.669 C45.7277616,36.882894 45.3686348,36.9985273 45,37 Z" id="Shape" fill="#428DFF"/><path d="M45,32.27 C44.792029,32.26982 44.5892884,32.2048032 44.42,32.084 L36.608,26.523 C34.9803344,25.3705817 34.009086,23.503312 34,21.509 L34,9.677 C33.999409,9.27883898 34.2350788,8.91826415 34.6,8.759 L44.6,4.439 C44.8527492,4.33000068 45.1392508,4.33000068 45.392,4.439 L55.392,8.759 C55.7569212,8.91826415 55.992591,9.27883898 55.992,9.677 L55.992,21.509 C55.9825824,23.5032302 55.0114082,25.3703573 53.384,26.523 L45.58,32.084 C45.4107116,32.2048032 45.207971,32.26982 45,32.27 Z M37.769,24.894 L45,30.042 L52.231,24.9 C53.3337961,24.1217704 53.9926973,22.8587211 54,21.509 L54,10.334 L45,6.447 L36,10.334 L36,21.509 C36.0087381,22.8567225 36.6675346,24.1173365 37.769,24.894 Z" id="Shape" fill="#428DFF"/><path d="M43,24 C42.7836298,24 42.5730962,23.9298221 42.4,23.8 L38.4,20.8 C38.1141875,20.5856406 37.9644453,20.2350853 38.0071797,19.8803848 C38.0499141,19.5256842 38.2786328,19.2207259 38.6071797,19.0803848 C38.9357266,18.9400436 39.3141875,18.9856406 39.6,19.2 L42.825,21.619 L50.219,12.375 C50.564178,11.9436656 51.1936656,11.873822 51.625,12.219 C52.0563344,12.564178 52.126178,13.1936656 51.781,13.625 L43.781,23.625 C43.5911385,23.8621369 43.3037783,24.000114 43,24 Z" id="Shape" fill="#428DFF"/><path d="M37,60 L32.84,60 C31.6910109,60.0008048 30.6424911,59.3452857 30.14,58.312 C29.44,56.794 27.885,55 24.44,55 C20.995,55 19.44,56.794 18.748,58.3 C18.2456187,59.3387191 17.1938298,59.9990001 16.04,60 L11.88,60 C10.9813864,59.9995173 10.1303111,59.5962387 9.56086365,58.9010868 C8.99141624,58.2059348 8.76357205,57.2921242 8.94,56.411 L9.97,51.283 C10.1050789,50.5701987 9.84968687,49.8394726 9.3,49.366 C7.99474619,48.2960131 6.87912705,47.0137273 6,45.573 C5.82778499,45.2314014 5.48238134,45.0114944 5.1,45 L3,45 C1.34314575,45 2.02906125e-16,43.6568542 0,42 L0,36 C-2.02906125e-16,34.3431458 1.34314575,33 3,33 L4.14,33 C4.54678818,33.0012579 4.9124165,32.7520743 5.06,32.373 C6.12425429,29.7332145 7.84826166,27.41078 10.067,25.628 C9.91724972,24.1630077 9.29452297,22.7866201 8.293,21.707 C7.52593128,21.1256176 7.21529042,20.1196563 7.521,19.207 C8.0261423,18.247842 9.06228694,17.6906176 10.141,17.798 C12.9933107,17.8784961 15.5775082,19.4998408 16.891,22.033 C21.6339054,20.6543607 26.6726397,20.6644249 31.41,22.062 C31.752975,22.1620344 32.0165292,22.4374449 32.1013844,22.7844871 C32.1862396,23.1315293 32.0795042,23.4974793 31.8213844,23.7444871 C31.5632646,23.991495 31.192975,24.0820344 30.85,23.982 C26.2299888,22.6093509 21.3005251,22.6836802 16.724,24.195 C16.2345966,24.3686861 15.6936886,24.1388545 15.479,23.666 C14.6931342,21.7068523 12.9746176,20.2743167 10.906,19.854 C10.415116,19.7381913 9.9009696,19.7698471 9.428,19.945 C9.50438916,20.0739922 9.59828182,20.1917787 9.707,20.295 C11.1569383,21.8516312 12.0104732,23.870365 12.117,25.995 C12.1444852,26.333826 11.9979614,26.6634103 11.728,26.87 C9.58849476,28.47547 7.92668479,30.6333684 6.921,33.112 C6.47240286,34.2549007 5.3677777,35.0048224 4.14,35 L3,35 C2.44771525,35 2,35.4477153 2,36 L2,42 C2,42.5522847 2.44771525,43 3,43 L5.1,43 C6.20397448,43.0143547 7.21307115,43.6270889 7.735,44.6 C8.5053052,45.8393151 9.47658611,46.9417224 10.609,47.862 C11.6996334,48.8057311 12.2039561,50.259614 11.932,51.676 L10.9,56.807 C10.8423261,57.1002089 10.9188021,57.4038456 11.1084837,57.634754 C11.2981653,57.8656623 11.5811729,57.9996418 11.88,58 L16.04,58 C16.4219455,58.0071406 16.7732288,57.7916869 16.94,57.448 C17.7,55.794 19.7,53 24.44,53 C29.18,53 31.177,55.794 31.948,57.46 C32.1160226,57.7972279 32.4633059,58.0074667 32.84,58 L37,58 C37.30032,57.9994642 37.5844983,57.8639838 37.774,57.631 C37.9630456,57.4020514 38.0387313,57.1000435 37.98,56.809 L37.089,52.387 C36.8010569,50.882927 37.3856568,49.3450152 38.6,48.412 C41.9371442,45.9835842 43.9374386,42.1267204 44,38 C44.0007024,37.3783027 43.9454799,36.7578024 43.835,36.146 C43.7377979,35.6022757 44.0997757,35.0827021 44.6435,34.9855 C45.1872243,34.8882979 45.7067979,35.2502757 45.804,35.794 C45.9353475,36.5219688 46.0009452,37.2602772 46,38 C45.9453087,42.7436103 43.6614881,47.1849282 39.835,49.989 C39.215284,50.4577618 38.9124253,51.2356018 39.052,52 L39.94,56.413 C40.1157454,57.2938251 39.8875837,58.207055 39.3182171,58.9017211 C38.7488504,59.5963872 37.8981865,59.9993978 37,60 Z" id="Shape" fill="#428DFF"/><path d="M49,39 C48.4477153,39 48,38.5522847 48,38 L48,36 C47.9998703,35.6110774 47.7711301,35.2585668 47.416,35.1 C47.0825274,34.9626223 46.8488658,34.6563207 46.8044998,34.2983985 C46.7601339,33.9404763 46.9119382,33.5863946 47.2017769,33.3717549 C47.4916155,33.1571152 47.874577,33.1151765 48.204,33.262 C49.2967989,33.732836 50.0034276,34.8100907 50,36 L50,38 C50,38.5522847 49.5522847,39 49,39 Z" id="Shape" fill="#428DFF"/></g></g></svg>
