<?xml version="1.0" encoding="UTF-8"?>
<svg xmlns="http://www.w3.org/2000/svg" xmlns:xlink="http://www.w3.org/1999/xlink" width="512" height="512" viewBox="0 0 60 60" version="1.1"><!-- Generator: Sketch 51.3 (57544) - http://www.bohemiancoding.com/sketch --><title>040 - Travel Insurance</title><desc>Created with Sketch.</desc><defs/><g id="Page-1" stroke="none" stroke-width="1" fill="none" fill-rule="evenodd"><g id="040---Travel-Insurance" fill-rule="nonzero"><path d="M42,8 L42,13 L37,13 L37,9 C37,7.34314575 35.6568542,6 34,6 L26,6 C24.3431458,6 23,7.34314575 23,9 L23,13 L18,13 L18,8 C18,4.13400675 21.1340068,1 25,1 L35,1 C38.8659932,1 42,4.13400675 42,8 Z" id="Shape" fill="#E8EDFC"/><path d="M42,8 L42,13 L39,13 L39,8 C39,4.13400675 35.8659932,1 32,1 L35,1 C38.8659932,1 42,4.13400675 42,8 Z" id="Shape" fill="#CAD9FC"/><path d="M59,15 L59,44.51 L36.32,53 L5,53 C2.790861,53 1,51.209139 1,49 L1,15 C1,12.790861 2.790861,11 5,11 L55,11 C57.209139,11 59,12.790861 59,15 Z" id="Shape" fill="#CAD9FC"/><path d="M56,15 L56,44.51 L33.32,53 L5,53 C2.790861,53 1,51.209139 1,49 L1,15 C1,12.790861 2.790861,11 5,11 L52,11 C54.209139,11 56,12.790861 56,15 Z" id="Shape" fill="#E8EDFC"/><rect id="Rectangle-path" fill="#E8EDFC" x="7" y="9" width="4" height="46" rx="1"/><path d="M49,25.73 L49,10 C49,9.44771525 49.4477153,9 50,9 L52,9 C52.5522847,9 53,9.44771525 53,10 L53,27.46" id="Shape" fill="#E8EDFC"/><path d="M24,28.88 L19.461,30.474 C19.2023156,30.5658038 18.9179895,30.4318983 18.824,30.174 L15.166,19.8 C15.0741962,19.5413156 15.2081017,19.2569895 15.466,19.163 L23.953,16.163 C24.2119797,16.070543 24.4970135,16.2045714 24.591,16.463 L27.6,25" id="Shape" fill="#A4C2F7"/><path d="M30.7,37 L24.5,37 C24.2238576,37 24,36.7761424 24,36.5 L24,25.5 C24,25.2238576 24.2238576,25 24.5,25 L35.5,25 C35.7761424,25 36,25.2238576 36,25.5 L36,27.762 C36.0002444,27.8459916 35.9788946,27.928636 35.938,28.002 L31.138,36.741 C31.0501322,36.9007246 30.8822983,36.9999688 30.7,37 Z" id="Shape" fill="#A4C2F7"/><circle id="Oval" fill="#FFFFFF" cx="20" cy="44" r="4"/><circle id="Oval" fill="#FFFFFF" cx="39.5" cy="20.5" r="5.5"/><path d="M59,30.33 L59,44.46 C58.9949804,47.4268418 57.5525697,50.2073028 55.13,51.92 L45.29,58.93 C45.115307,59.0500632 44.884693,59.0500632 44.71,58.93 L43.5,58.07 L34.87,51.92 C32.4474303,50.2073028 31.0050196,47.4268418 31,44.46 L31,30.33 C31.0005992,30.1309412 31.118079,29.9508055 31.3,29.87 L43.5,24.6 L44.8,24.04 C44.9286443,23.9899919 45.0713557,23.9899919 45.2,24.04 L58.7,29.87 C58.881921,29.9508055 58.9994008,30.1309412 59,30.33 Z" id="Shape" fill="#E8EDFC"/><path d="M56,30.33 L56,44.46 C55.9949804,47.4268418 54.5525697,50.2073028 52.13,51.92 L43.5,58.07 L34.87,51.92 C32.4474303,50.2073028 31.0050196,47.4268418 31,44.46 L31,30.33 C31.0005992,30.1309412 31.118079,29.9508055 31.3,29.87 L43.5,24.6 L55.7,29.87 C55.881921,29.9508055 55.9994008,30.1309412 56,30.33 Z" id="Shape" fill="#FFFFFF"/><path d="M37.188,48.664 C35.8239601,47.6992838 35.0092071,46.1356877 35,44.465 L35,32.633 L45,28.313 L55,32.633 L55,44.465 C54.991115,46.1360413 54.1763259,47.7000788 52.812,48.665 L45,54.225 L37.188,48.664 Z" id="Shape" fill="#A4C2F7"/><path d="M18,8 L18,11 L21,11 L21,8 C21,4.13400675 24.1340068,1 28,1 L25,1 C21.1340068,1 18,4.13400675 18,8 Z" id="Shape" fill="#FFFFFF"/><path d="M5,53 L7,53 L7,54 C7,54.5522847 7.44771525,55 8,55 L10,55 C10.1774721,54.9953752 10.3503298,54.9424807 10.5,54.847 C10.1945084,54.6737333 10.0041011,54.3511832 10,54 L10,53 L8,53 C5.790861,53 4,51.209139 4,49 L4,15 C4,12.790861 5.790861,11 8,11 L10,11 L10,10 C10.0041011,9.6488168 10.1945084,9.32626671 10.5,9.153 C10.3503298,9.05751932 10.1774721,9.00462484 10,9 L8,9 C7.44771525,9 7,9.44771525 7,10 L7,11 L5,11 C2.790861,11 1,12.790861 1,15 L1,49 C1,51.209139 2.790861,53 5,53 Z" id="Shape" fill="#FFFFFF"/><path d="M45,60 C44.6289221,60.0003112 44.2670352,59.8845773 43.965,59.669 L34.289,52.781 C31.6077945,50.8777289 30.0104682,47.797038 30,44.509 L30,30.047 C29.999409,29.648839 30.2350788,29.2882641 30.6,29.129 L44.6,23.082 C44.8525505,22.9720423 45.1394495,22.9720423 45.392,23.082 L59.392,29.129 C59.7569212,29.2882641 59.992591,29.648839 59.992,30.047 L59.992,44.509 C59.9815318,47.797038 58.3842055,50.8777289 55.703,52.781 L46.027,59.669 C45.7271893,59.8829945 45.3683453,59.9986492 45,60 Z M32,30.705 L32,44.505 C32.0097266,47.1463069 33.2942465,49.6203764 35.449,51.148 L45,57.951 L54.551,51.151 C56.705467,49.6235813 57.989951,47.1499534 58,44.509 L58,30.709 L45,25.089 L32,30.705 Z" id="Shape" fill="#428DFF"/><path d="M45,55.269 C44.792029,55.26882 44.5892884,55.2038032 44.42,55.083 L36.608,49.522 C34.980878,48.3695623 34.0097397,46.5028766 34,44.509 L34,32.677 C33.999409,32.278839 34.2350788,31.9182641 34.6,31.759 L44.6,27.439 C44.8527492,27.3300007 45.1392508,27.3300007 45.392,27.439 L55.392,31.759 C55.7569212,31.9182641 55.992591,32.278839 55.992,32.677 L55.992,44.509 C55.9824167,46.5031892 55.0112795,48.3702451 53.384,49.523 L45.572,55.083 C45.404939,55.2022308 45.2052365,55.2671691 45,55.269 Z M37.769,47.894 L45,53.042 L52.231,47.894 C53.3323369,47.117224 53.9910962,45.8566812 54,44.509 L54,33.334 L45,29.446 L36,33.334 L36,44.509 C36.0087381,45.8567225 36.6675346,47.1173365 37.769,47.894 Z" id="Shape" fill="#428DFF"/><path d="M43,47 C42.7836298,47 42.5730962,46.9298221 42.4,46.8 L38.4,43.8 C37.9581722,43.4686292 37.8686292,42.8418278 38.2,42.4 C38.5313708,41.9581722 39.1581722,41.8686292 39.6,42.2 L42.824,44.618 L50.224,35.375 C50.5700579,34.9477006 51.1961792,34.8799554 51.6256245,35.2233466 C52.0550699,35.5667379 52.1267114,36.1924254 51.786,36.624 L43.786,46.624 C43.5952448,46.8628859 43.3056993,47.0013962 43,47 Z" id="Shape" fill="#428DFF"/><polygon id="Shape" fill="#FFFFFF" points="2 15 2 28 2 49 0 49 0 28 0 15"/><path d="M1,20 C1.55228475,20 2,19.5522847 2,19 L2,15 L0,15 L0,19 C6.76353751e-17,19.5522847 0.44771525,20 1,20 Z" id="Shape" fill="#428DFF"/><path d="M0,49 L2,49 L2,27 C2,26.4477153 1.55228475,26 1,26 C0.44771525,26 6.76353751e-17,26.4477153 0,27 L0,49 Z" id="Shape" fill="#428DFF"/><path d="M2,23 C1.99611961,22.7352731 1.89256504,22.481743 1.71,22.29 L1.56,22.17 C1.50427287,22.1321227 1.44373808,22.1018554 1.38,22.08 C1.32333758,22.0511123 1.26266255,22.0308873 1.2,22.02 C1.13385548,22.0088692 1.06703885,22.0021875 1,22 C0.735273141,22.0038804 0.481742984,22.107435 0.29,22.29 C0.199603156,22.3856071 0.12832305,22.4976187 0.08,22.62 C-0.0708765757,22.9929737 0.0113519394,23.4197788 0.29,23.71 C0.385607086,23.8003968 0.497618681,23.871677 0.62,23.92 C0.740222313,23.971241 0.869322743,23.99842 1,24 C1.26472686,23.9961196 1.51825702,23.892565 1.71,23.71 C1.89256504,23.518257 1.99611961,23.2647269 2,23 Z" id="Shape" fill="#428DFF"/><path d="M1,16 C0.44771525,16 6.76353751e-17,15.5522847 0,15 C0.00330611633,12.2399468 2.23994685,10.0033061 5,10 L7,10 C7.55228475,10 8,10.4477153 8,11 C8,11.5522847 7.55228475,12 7,12 L5,12 C3.34314575,12 2,13.3431458 2,15 C2,15.5522847 1.55228475,16 1,16 Z" id="Shape" fill="#428DFF"/><path d="M7,54 L5,54 C2.23994685,53.9966939 0.00330611633,51.7600532 0,49 C-6.76353751e-17,48.4477153 0.44771525,48 1,48 C1.55228475,48 2,48.4477153 2,49 C2,50.6568542 3.34314575,52 5,52 L7,52 C7.55228475,52 8,52.4477153 8,53 C8,53.5522847 7.55228475,54 7,54 Z" id="Shape" fill="#428DFF"/><path d="M59,45.51 C58.4477153,45.51 58,45.0622847 58,44.51 L58,15 C58,13.3431458 56.6568542,12 55,12 L53,12 C52.4477153,12 52,11.5522847 52,11 C52,10.4477153 52.4477153,10 53,10 L55,10 C57.7600532,10.0033061 59.9966939,12.2399468 60,15 L60,44.51 C60,45.0622847 59.5522847,45.51 59,45.51 Z" id="Shape" fill="#428DFF"/><path d="M36.32,54 L11,54 C10.4477153,54 10,53.5522847 10,53 C10,52.4477153 10.4477153,52 11,52 L36.32,52 C36.8722847,52 37.32,52.4477153 37.32,53 C37.32,53.5522847 36.8722847,54 36.32,54 Z" id="Shape" fill="#428DFF"/><path d="M49,12 L11,12 C10.4477153,12 10,11.5522847 10,11 C10,10.4477153 10.4477153,10 11,10 L49,10 C49.5522847,10 50,10.4477153 50,11 C50,11.5522847 49.5522847,12 49,12 Z" id="Shape" fill="#428DFF"/><path d="M42,12 L37,12 C36.4477153,12 36,11.5522847 36,11 L36,9 C36,7.8954305 35.1045695,7 34,7 L26,7 C24.8954305,7 24,7.8954305 24,9 L24,11 C24,11.5522847 23.5522847,12 23,12 L18,12 C17.4477153,12 17,11.5522847 17,11 L17,8 C17.0049599,3.58377808 20.5837781,0.00495988455 25,-8.8817842e-16 L35,-8.8817842e-16 C39.4162219,0.00495988455 42.9950401,3.58377808 43,8 L43,11 C43,11.2652165 42.8946432,11.5195704 42.7071068,11.7071068 C42.5195704,11.8946432 42.2652165,12 42,12 Z M38,10 L41,10 L41,8 C40.9966926,4.68766243 38.3123376,2.00330738 35,2 L25,2 C21.6876624,2.00330738 19.0033074,4.68766243 19,8 L19,10 L22,10 L22,9 C22,6.790861 23.790861,5 26,5 L34,5 C36.209139,5 38,6.790861 38,9 L38,10 Z" id="Shape" fill="#428DFF"/><path d="M10,56 L8,56 C6.8954305,56 6,55.1045695 6,54 L6,10 C6,8.8954305 6.8954305,8 8,8 L10,8 C11.1045695,8 12,8.8954305 12,10 L12,54 C12,55.1045695 11.1045695,56 10,56 Z M8,10 L8,54 L10,54 L10,10 L8,10 Z" id="Shape" fill="#428DFF"/><path d="M53,28.46 C52.4477153,28.46 52,28.0122847 52,27.46 L52,10 L50,10 L50,25.73 C50,26.2822847 49.5522847,26.73 49,26.73 C48.4477153,26.73 48,26.2822847 48,25.73 L48,10 C48,8.8954305 48.8954305,8 50,8 L52,8 C53.1045695,8 54,8.8954305 54,10 L54,27.46 C54,28.0122847 53.5522847,28.46 53,28.46 Z" id="Shape" fill="#428DFF"/><path d="M18.99,31.641 C18.5658006,31.6408815 18.1878342,31.3731386 18.047,30.973 L14.057,19.663 C13.9686638,19.4129017 13.9833063,19.137954 14.097706,18.8986525 C14.2121056,18.6593511 14.4168895,18.4753017 14.667,18.387 L24.097,15.057 C24.3472275,14.9687117 24.6222853,14.983494 24.8616092,15.0980919 C25.1009331,15.2126897 25.2848991,15.4177065 25.373,15.668 L28.543,24.668 C28.7263585,25.1890807 28.4525807,25.7601415 27.9315,25.9435 C27.4104193,26.1268585 26.8393585,25.8530807 26.656,25.332 L23.819,17.276 L16.275,19.94 L19.6,29.366 L23.668,27.937 C24.0084871,27.804124 24.3943435,27.8675914 24.6743315,28.1025258 C24.9543196,28.3374602 25.0838313,28.7064317 25.0121042,29.0648207 C24.9403771,29.4232098 24.6788388,29.7139174 24.33,29.823 L19.32,31.583 C19.2141554,31.6211724 19.1025174,31.6407936 18.99,31.641 Z" id="Shape" fill="#428DFF"/><path d="M31,38 L24,38 C23.4477153,38 23,37.5522847 23,37 L23,25 C23,24.4477153 23.4477153,24 24,24 L36,24 C36.5522847,24 37,24.4477153 37,25 L37,27.89 C37,28.4422847 36.5522847,28.89 36,28.89 C35.4477153,28.89 35,28.4422847 35,27.89 L35,26 L25,26 L25,36 L31,36 C31.5522847,36 32,36.4477153 32,37 C32,37.5522847 31.5522847,38 31,38 Z" id="Shape" fill="#428DFF"/><path d="M20,49 C17.2385763,49 15,46.7614237 15,44 C15,41.2385763 17.2385763,39 20,39 C22.7614237,39 25,41.2385763 25,44 C24.9966939,46.7600532 22.7600532,48.9966939 20,49 Z M20,41 C18.3431458,41 17,42.3431458 17,44 C17,45.6568542 18.3431458,47 20,47 C21.6568542,47 23,45.6568542 23,44 C23,42.3431458 21.6568542,41 20,41 Z" id="Shape" fill="#428DFF"/><path d="M39.5,27 C36.2871684,26.9993776 33.5567768,24.651556 33.0748124,21.4750804 C32.592848,18.2986048 34.5039182,15.2465374 37.5719639,14.2929219 C40.6400097,13.3393064 43.9445016,14.7702633 45.3481307,17.6602654 C46.7517599,20.5502676 45.8333846,24.0322054 43.187,25.854 C42.8926879,26.0607423 42.5100223,26.0935068 42.1848485,25.939806 C41.8596746,25.7861052 41.6420903,25.4696189 41.6150235,25.1109696 C41.5879566,24.7523202 41.7555772,24.406763 42.054,24.206 C43.9537499,22.8925401 44.5507114,20.3541398 43.4354866,18.3316413 C42.3202617,16.3091428 39.8549851,15.4592896 37.7303505,16.3649134 C35.605716,17.2705373 34.5116324,19.6375651 35.1984256,21.8426823 C35.8852187,24.0477995 38.1298739,25.3749629 40.393,24.914 C40.7435477,24.8162657 41.1195161,24.9166825 41.3746494,25.1761872 C41.6297827,25.4356919 41.7237984,25.8133119 41.6201233,26.1621488 C41.5164483,26.5109856 41.2314515,26.7759624 40.876,26.854 C40.852,26.861 40.826,26.867 40.801,26.872 C40.3723897,26.9559364 39.9367501,26.9987972 39.5,27 Z" id="Shape" fill="#428DFF"/></g></g></svg>
