<svg height="512pt" viewBox="-15 0 512 512.00001" width="512pt" xmlns="http://www.w3.org/2000/svg"><g fill="#a4c2f7"><path d="m426.667969 452.265625-26.539063 39.765625c-4.738281 7.152344-12.753906 11.449219-21.332031 11.433594h-344.664063c-6.582031.019531-12.914062-2.519532-17.664062-7.082032l56.152344-49.917968v-2.644532l4.179687-.085937h342.953125zm0 0"/><path d="m419.753906 443.734375h-342.953125l-4.179687.085937-4.355469-341.421874-59.730469 59.734374v-93.867187l59.730469-59.730469zm0 0"/><path d="m72.621094 443.820312v2.644532l-56.152344 49.917968c-5.054688-4.835937-7.917969-11.519531-7.933594-18.515624v-315.734376l59.730469-59.734374zm0 0"/></g><path d="m457.214844 452.265625h-303.613282c-69.378906-31.488281-82.773437-174.761719-85.078124-247.464844-.855469-25.769531-.257813-42.667969-.257813-42.667969v-59.734374h349.867187v59.734374s-6.398437 185.34375 52.738282 262.914063c3.894531 5.152344 4.527344 12.074219 1.632812 17.851563-2.898437 5.777343-8.824218 9.410156-15.289062 9.367187zm0 0" fill="#d4e1f4"/><path d="m426.582031 452.265625h-272.980469c-69.378906-31.488281-82.773437-174.761719-85.078124-247.464844-.855469-25.769531-.257813-42.667969-.257813-42.667969v-59.734374h319.234375v59.734374s-6.402344 185.34375 52.734375 262.914063c3.898437 5.152344 4.53125 12.074219 1.632813 17.851563-2.898438 5.777343-8.824219 9.410156-15.285157 9.367187zm0 0" fill="#f5f5f5"/><path d="m153.601562 452.265625h-68.269531c-9.414062-.027344-17.035156-7.652344-17.066406-17.066406v-230.398438h.257813c2.304687 72.703125 15.699218 215.976563 85.078124 247.464844zm0 0" fill="#7fabfa"/><path d="m392.535156 8.535156h-324.269531v93.863282h349.867187v-68.265626c0-14.136718-11.460937-25.597656-25.597656-25.597656zm0 0" fill="#e64c3c"/><path d="m410.625 16.042969-86.359375 86.355469h-51.199219l93.867188-93.863282h25.601562c6.789063-.003906 13.296875 2.699219 18.089844 7.507813zm0 0" fill="#e3e7f2"/><path d="m366.933594 8.535156-93.867188 93.863282h-51.199218l93.867187-93.863282zm0 0" fill="#a4c2f7"/><path d="m315.734375 8.535156-93.867187 93.863282h-51.199219l93.867187-93.863282zm0 0" fill="#e3e7f2"/><path d="m264.535156 8.535156-93.867187 93.863282h-51.199219l93.863281-93.863282zm0 0" fill="#a4c2f7"/><path d="m213.332031 8.535156-93.863281 93.863282h-51.203125l93.867187-93.863282zm0 0" fill="#e3e7f2"/><path d="m162.132812 8.535156-93.867187 93.863282v-51.199219l42.667969-42.664063zm0 0" fill="#a4c2f7"/><path d="m110.933594 8.535156-42.667969 42.664063v-42.664063zm0 0" fill="#e3e7f2"/><path d="m418.132812 34.132812v25.601563l-42.664062 42.664063h-51.203125l86.359375-86.355469c4.808594 4.792969 7.507812 11.300781 7.507812 18.089843zm0 0" fill="#a4c2f7"/><path d="m418.132812 59.734375v42.664063h-42.664062zm0 0" fill="#e3e7f2"/><path d="m375.46875 273.066406c0 70.691406-57.308594 128-128 128-70.695312 0-128-57.308594-128-128s57.304688-128 128-128c70.691406 0 128 57.308594 128 128zm0 0" fill="#e3e7f2"/><path d="m341.332031 273.066406c0 51.839844-42.023437 93.867188-93.863281 93.867188-51.84375 0-93.867188-42.027344-93.867188-93.867188s42.023438-93.867187 93.867188-93.867187c51.839844 0 93.863281 42.027343 93.863281 93.867187zm0 0" fill="#ecf0f1"/><path d="m307.199219 273.066406c0 32.988282-26.742188 59.734375-59.730469 59.734375-32.992188 0-59.734375-26.746093-59.734375-59.734375 0-32.988281 26.742187-59.734375 59.734375-59.734375 32.988281 0 59.730469 26.746094 59.730469 59.734375zm0 0" fill="#e3e7f2"/><path d="m273.066406 273.066406c0 14.140625-11.460937 25.601563-25.597656 25.601563-14.140625 0-25.601562-11.460938-25.601562-25.601563 0-14.136718 11.460937-25.601562 25.601562-25.601562 14.136719 0 25.597656 11.464844 25.597656 25.601562zm0 0" fill="#ecf0f1"/><path d="m34.132812 503.464844h25.601563c-6.582031.019531-12.917969-2.519532-17.664063-7.082032-5.054687-4.835937-7.921874-11.519531-7.9375-18.515624v-409.601563l59.734376-59.730469h-25.601563l-59.730469 59.730469v409.601563c.015625 6.996093 2.878906 13.679687 7.933594 18.515624 4.75 4.5625 11.082031 7.101563 17.664062 7.082032zm0 0" fill="#fff"/><path d="m0 477.867188v-409.601563h17.066406v409.601563zm0 0" fill="#fff"/><path d="m5.292969 417.449219c.480469.246093 1 .421875 1.535156.511719.5625.097656 1.132813.152343 1.707031.171874 2.257813-.03125 4.421875-.917968 6.058594-2.472656.769531-.816406 1.378906-1.773437 1.789062-2.816406 1.289063-3.183594.585938-6.824219-1.789062-9.300781-.816406-.773438-1.773438-1.382813-2.816406-1.792969-1.027344-.4375-2.128906-.667969-3.242188-.683594-2.261718.035156-4.421875.917969-6.058594 2.476563-3.300781 3.363281-3.300781 8.75 0 12.117187l1.277344 1.023438c.476563.324218.992188.582031 1.539063.765625zm0 0" fill="#428dff"/><path d="m34.132812 512h344.746094c11.414063.011719 22.078125-5.695312 28.402344-15.199219l23.953125-36h26.015625c9.707031.023438 18.589844-5.457031 22.921875-14.144531 4.328125-8.6875 3.355469-19.082031-2.507813-26.816406-56.59375-74.195313-51.066406-255.589844-50.996093-257.707032v-128c0-18.851562-15.28125-34.132812-34.132813-34.132812h-324.269531c-1.117187 0-2.226563.222656-3.257813.65625-1.039062.429688-1.984374 1.058594-2.78125 1.851562l-59.734374 59.734376c-1.59375 1.597656-2.492188 3.765624-2.492188 6.023437v307.199219c0 4.714844 3.820312 8.535156 8.535156 8.535156 4.710938 0 8.53125-3.820312 8.53125-8.535156v-209.796875l42.667969-42.667969v38.84375c-.085937 2.492188-.554687 18.679688.136719 42.300781-.058594.214844-.105469.433594-.136719.65625v230.398438c.007813 3.296875.65625 6.5625 1.910156 9.609375l-43.519531 38.707031c-.671875-1.808594-1.027344-3.71875-1.058594-5.648437v-34.132813c0-4.714844-3.820312-8.535156-8.53125-8.535156-4.714844 0-8.535156 3.820312-8.535156 8.535156v34.132813c0 18.851562 15.28125 34.132812 34.132812 34.132812zm358.90625-24.667969c-3.15625 4.734375-8.46875 7.585938-14.160156 7.601563h-344.746094c-.960937-.015625-1.921874-.113282-2.867187-.289063l41.773437-37.128906c3.75 2.125 7.984376 3.257813 12.292969 3.285156h325.394531zm71.046876-57.132812c1.976562 2.503906 2.3125 5.933593.851562 8.773437-1.410156 2.949219-4.40625 4.808594-7.679688 4.761719h-301.746093c-85.894531-42.035156-78.796875-278.914063-78.710938-281.601563v-51.199218h332.800781v50.910156c-.257812 7.6875-5.804687 189.292969 54.484376 268.355469zm-322.550782-413.132813-64.734375 64.734375v-27.066406l37.664063-37.667969zm51.199219 0-76.800781 76.800782h-27.066406l76.800781-76.800782zm51.199219 0-76.800782 76.800782h-27.066406l76.800782-76.800782zm51.199218 0-76.796874 76.800782h-27.070313l76.800781-76.800782zm51.203126 0-76.800782 76.800782h-27.070312l76.800781-76.800782zm-269.535157 13.535156v-13.535156h13.535157zm332.160157-.855468c.40625 1.429687.621093 2.902344.640624 4.386718v22.066407l-37.667968 37.667969h-27.066406zm.640624 64.121094h-13.535156l13.535156-13.535157zm-12.707031-76.160157-76.160156 76.160157h-27.066406l76.796875-76.800782h22.070312c1.472656.019532 2.941406.234375 4.359375.640625zm-379.828125 54.09375 42.667969-42.667969v69.734376l-42.667969 42.667968zm109.390625 371.933594h-41.125c-4.710937 0-8.53125-3.820313-8.53125-8.535156v-92.695313c9.925781 40.472656 25.4375 78.1875 49.65625 101.230469zm0 0" fill="#428dff"/><path d="m392.535156 153.601562h-13.535156l11.035156-11.035156c3.230469-3.347656 3.1875-8.671875-.105468-11.960937-3.292969-3.292969-8.613282-3.339844-11.960938-.105469l-11.035156 11.035156v-13.535156c0-4.710938-3.820313-8.535156-8.53125-8.535156-4.714844 0-8.535156 3.824218-8.535156 8.535156v30.601562l-12.21875 12.21875c-55.492188-48.972656-139.847657-45.027343-190.527344 8.910157-50.675782 53.9375-49.363282 138.375 2.972656 190.710937 52.335938 52.332032 136.769531 53.648438 190.710938 2.96875 53.9375-50.675781 57.882812-135.03125 8.910156-190.523437l12.21875-12.21875h30.601562c4.710938 0 8.53125-3.820313 8.53125-8.535157 0-4.710937-3.820312-8.53125-8.53125-8.53125zm-25.601562 119.464844c.183594 56.417969-39 105.324219-94.097656 117.449219-55.101563 12.125-111.195313-15.816406-134.710938-67.097656-23.515625-51.285157-8.085938-112.023438 37.054688-145.863281 45.140624-33.839844 107.769531-31.621094 150.402343 5.332031l-12.058593 12.058593c-42.003907-35.539062-104.558594-31.628906-141.8125 8.863282-37.253907 40.488281-35.949219 103.152344 2.957031 142.058594 38.902343 38.90625 101.566406 40.210937 142.058593 2.957031 40.488282-37.253907 44.398438-99.808594 8.863282-141.8125l12.058594-12.058594c18.882812 21.640625 29.285156 49.390625 29.285156 78.113281zm-68.265625 0c.074219 23.714844-16.097657 44.398438-39.132813 50.046875-23.035156 5.648438-46.9375-5.210937-57.84375-26.269531-10.902344-21.0625-5.96875-46.851562 11.941406-62.398438 17.90625-15.550781 44.132813-16.816406 63.453126-3.0625l-12.390626 12.390626c-5.199218-3.136719-11.152343-4.808594-17.226562-4.839844-18.851562 0-34.136719 15.28125-34.136719 34.132812 0 18.851563 15.285157 34.132813 34.136719 34.132813s34.132812-15.28125 34.132812-34.132813c-.03125-6.074218-1.703124-12.027344-4.839843-17.230468l12.390625-12.386719c6.1875 8.636719 9.515625 18.992187 9.515625 29.617187zm-34.132813 0c0 9.425782-7.640625 17.066406-17.066406 17.066406s-17.066406-7.640624-17.066406-17.066406c0-9.425781 7.640625-17.066406 17.066406-17.066406 1.472656.019531 2.941406.234375 4.359375.640625l-10.394531 10.394531c-2.21875 2.140625-3.109375 5.3125-2.328125 8.296875s3.113281 5.3125 6.097656 6.09375c2.980469.78125 6.15625-.109375 8.296875-2.324219l10.394531-10.394531c.402344 1.417969.621094 2.882813.640625 4.359375zm24.746094-53.863281c-28.558594-22.191406-69.449219-18.355469-93.382812 8.761719-23.929688 27.117187-22.648438 68.171875 2.925781 93.746094 25.574219 25.574218 66.625 26.855468 93.746093 2.921874 27.117188-23.929687 30.953126-64.820312 8.757813-93.378906l12.171875-12.167968c28.828125 35.257812 24.945312 86.925781-8.828125 117.480468-33.773437 30.554688-85.574219 29.261719-117.777344-2.945312-32.203125-32.203125-33.5-84.003906-2.945312-117.777344 30.554687-33.769531 82.226562-37.652344 117.484375-8.824219zm0 0" fill="#428dff"/></svg>