<svg height="512pt" viewBox="0 -8 512.004 512" width="512pt" xmlns="http://www.w3.org/2000/svg"><path d="m479.574219 424.066406-322.21875 62.804688c-1.269531.269531-2.585938.242187-3.839844-.085938-1.066406-.324218-2.074219-.816406-2.988281-1.449218l-126.292969-96.597657c-2.167969-1.671875-3.402344-4.285156-3.316406-7.023437.082031-2.734375 1.476562-5.265625 3.742187-6.800782 1.027344-.695312 2.191406-1.160156 3.414063-1.367187l137.558593-22.269531 129.535157-21.078125 26.28125-4.265625c1.8125-.277344 3.660156.019531 5.292969.851562l155.21875 81.324219c3.230468 1.683594 5.035156 5.226563 4.496093 8.828125-.539062 3.601562-3.304687 6.464844-6.882812 7.128906zm0 0" fill="#a4c2f7"/><path d="m428.289062 433.109375-274.773437 53.675781c-1.066406-.324218-2.074219-.816406-2.988281-1.449218l-126.292969-96.597657c-2.167969-1.671875-3.402344-4.285156-3.316406-7.023437.082031-2.734375 1.476562-5.265625 3.742187-6.800782l89.6875-14.507812 129.535156-21.078125 26.28125-4.265625c1.8125-.277344 3.660157.023438 5.292969.855469l155.136719 81.320312c3.214844 1.660157 5.023438 5.175781 4.503906 8.757813-.519531 3.582031-3.253906 6.4375-6.808594 7.113281zm0 0" fill="#e3e7f2"/><path d="m377.601562 409.21875-211.714843 41.214844c-.671875.140625-1.359375.199218-2.046875.171875-1.722656-.101563-3.382813-.695313-4.777344-1.707031l-51.199219-39.167969c-2.148437-1.636719-3.386719-4.195313-3.335937-6.890625.050781-2.699219 1.386718-5.210938 3.589844-6.761719 1.050781-.800781 2.28125-1.328125 3.585937-1.539063l70.226563-11.433593 105.730468-17.066407 27.988282-4.609374c1.847656-.28125 3.734374.046874 5.375.941406l58.964843 30.890625c3.230469 1.683593 5.035157 5.226562 4.496094 8.828125-.539063 3.601562-3.304687 6.464844-6.882813 7.128906zm0 0" fill="#7fabfa"/><path d="m341.417969 415.957031-177.578125 34.648438c-1.722656-.101563-3.382813-.695313-4.777344-1.707031l-51.199219-39.167969c-2.148437-1.636719-3.386719-4.195313-3.335937-6.890625.050781-2.699219 1.386718-5.210938 3.589844-6.761719l37.546874-6.144531 105.726563-17.066406 27.992187-4.609376c1.835938-.269531 3.710938.027344 5.375.851563l58.964844 30.976563c3.160156 1.699218 4.921875 5.191406 4.40625 8.742187s-3.195312 6.402344-6.710937 7.128906zm0 0" fill="#a4c2f7"/><path d="m469.761719 8.578125c-8.582031.292969-17.132813 1.144531-25.601563 2.558594-62.378906 10.242187-167.765625 56.917969-230.828125 246.101562-9.816406-6.519531-20.082031-12.335937-30.71875-17.40625-21.785156-11.023437-45.265625-18.320312-69.460937-21.589843-28.269532-4.429688-57.074219 3.566406-79.019532 21.929687 1.195313-1.023437 13.570313 5.375 14.847657 5.886719 12.597656 5.566406 24.800781 11.980468 36.523437 19.203125 30.234375 18.554687 55.601563 44.066406 73.984375 74.410156 11.265625 18.859375 20.480469 49.832031 39.9375 63.742187 6.457031 4.882813 14.347657 7.492188 22.441407 7.425782 17.324218 0 36.949218.597656 50.089843-12.628906 16.128907-16.128907 16.382813-39.765626 21.332031-60.671876 24.691407-98.335937 71.734376-189.652343 137.472657-266.839843 4.011719-4.863281 8.109375-9.640625 12.289062-14.335938 8.433594-9.496093 17.375-18.527343 26.792969-27.050781 1.28125-1.109375 3.5-3.496094 6.144531-6.226562 2.425781-2.472657 3.113281-6.164063 1.75-9.34375-1.367187-3.179688-4.519531-5.21875-7.976562-5.164063zm0 0" fill="#a4c2f7"/><path d="m444.160156 11.136719c-.214844 1.757812-1.027344 3.382812-2.304687 4.609375-2.644531 2.730468-4.863281 5.121094-6.144531 6.3125-9.4375 8.472656-18.382813 17.476562-26.792969 26.96875-4.183594 4.777344-8.277344 9.554687-12.289063 14.335937-65.757812 77.207031-112.800781 168.550781-137.472656 266.921875-4.949219 20.90625-5.203125 44.457032-21.332031 60.585938-10.652344 9.070312-24.449219 13.578125-38.398438 12.542968-19.457031-13.910156-28.671875-44.882812-39.9375-63.742187-18.382812-30.34375-43.75-55.855469-73.984375-74.410156-11.722656-7.222657-23.925781-13.636719-36.523437-19.203125-1.277344-.511719-13.652344-6.910156-14.847657-5.886719 21.945313-18.363281 50.75-26.359375 79.019532-21.929687 24.195312 3.269531 47.675781 10.566406 69.460937 21.589843 10.636719 5.070313 20.902344 10.886719 30.71875 17.40625 63.0625-189.183593 168.449219-235.859375 230.828125-246.101562zm0 0" fill="#e3e7f2"/><path d="m29.714844 374.914062c-2.269532 1.535157-3.664063 4.066407-3.746094 6.800782-.085938 2.738281 1.148438 5.351562 3.316406 7.023437l126.292969 96.597657c.917969.632812 1.921875 1.125 2.988281 1.449218 1.257813.328125 2.570313.355469 3.839844.085938l16.5625-3.226563-124.082031-94.90625c-2.167969-1.671875-3.402344-4.285156-3.320313-7.023437.085938-2.734375 1.480469-5.265625 3.746094-6.800782 1.027344-.695312 2.191406-1.160156 3.414062-1.367187l137.539063-22.269531c-2.019531-4.132813-4.035156-8.117188-6.125-11.605469-18.382813-30.34375-43.75-55.855469-73.984375-74.410156-11.726562-7.222657-23.925781-13.636719-36.523438-19.203125-1.28125-.511719-13.652343-6.910156-14.847656-5.886719 14.539063-12.644531 32.710938-20.363281 51.910156-22.042969-27.796874-4.023437-55.992187 3.992188-77.511718 22.042969 1.195312-1.023437 13.570312 5.375 14.851562 5.886719 12.59375 5.566406 24.796875 11.980468 36.519532 19.203125 30.238281 18.554687 55.601562 44.066406 73.984374 74.410156 2.089844 3.488281 4.105469 7.472656 6.128907 11.605469l-137.542969 22.269531c-1.21875.207031-2.382812.671875-3.410156 1.367187zm0 0" fill="#fff"/><path d="m13.714844 369.929688 88.121094 67.386718 56.945312 43.546875-10.359375 13.550781-56.953125-43.546874-88.113281-67.386719zm0 0" fill="#fff"/><g fill="#428dff"><path d="m60.039062 410.078125c-.546874.179687-1.070312.4375-1.550781.761719-.488281.230468-.9375.539062-1.332031.914062-.421875.386719-.816406.800782-1.175781 1.242188-1.347657 1.816406-1.957031 4.070312-1.707031 6.316406.734374 4.625 4.96875 7.863281 9.625 7.363281 1.105468-.183593 2.167968-.570312 3.132812-1.140625.96875-.554687 1.820312-1.292968 2.507812-2.167968 2.105469-2.742188 2.347657-6.484376.613282-9.476563-1.730469-2.992187-5.097656-4.640625-8.523438-4.179687zm0 0"/><path d="m301.628906 339.550781c.144532-.605469.316406-1.21875.460938-1.824219l20.734375-3.347656 155.152343 81.273438-322.242187 62.871094-60.671875-46.351563c-2.421875-1.851563-5.648438-2.269531-8.464844-1.097656s-4.789062 3.753906-5.183594 6.777343c-.394531 3.023438.855469 6.027344 3.28125 7.878907l63.726563 48.726562c1.492187 1.125 3.308594 1.726563 5.179687 1.714844.546876 0 1.097657-.054687 1.636719-.160156l349.867188-68.269531c3.554687-.691407 6.285156-3.554688 6.808593-7.140626.523438-3.582031-1.273437-7.105468-4.480468-8.789062l-179.199219-93.867188c-1.632813-.851562-3.5-1.148437-5.316406-.855468l-16.128907 2.5625c25.769532-89.484375 70.246094-172.476563 130.484376-243.492188 3.984374-4.765625 8.035156-9.488281 12.160156-14.164062 8.226562-9.257813 16.957031-18.050782 26.15625-26.34375.980468-.851563 2.457031-2.40625 4.265625-4.265625l2.285156-2.363281c4.914063-5 6.265625-12.496094 3.414063-18.902344-2.710938-6.382813-9.105469-10.410156-16.035157-10.1015628-53.734375 1.7734378-185.359375 29.3124998-260.742187 244.1874998-29.246094-17.644531-119.058594-64-180.257813-10.460937-2.679687 2.339844-3.625 6.09375-2.375 9.425781 1.25 3.328125 4.433594 5.535156 7.988281 5.535156h.058594c3.277344 1.289063 6.488282 2.746094 9.617188 4.359375l1.769531.851563c12.21875 5.394531 24.046875 11.636719 35.394531 18.679687 29.144532 17.773438 53.570313 42.316406 71.203125 71.542969.117188.199219.230469.445313.347657.648437l-145.355469 23.492188c-4.652344.757812-7.808594 5.136719-7.058594 9.789062.363281 2.144532 1.535156 4.066407 3.277344 5.367188l27.113281 20.738281c3.742188 2.863281 9.097656 2.148438 11.960938-1.597656 2.863281-3.742187 2.148437-9.101563-1.59375-11.964844l-11.410157-8.652343 131.25-21.246094c.351563.734375.691407 1.40625 1.042969 2.148437 2.125 4.472657 4.34375 9.132813 6.730469 13.78125l-77.652344 12.628907c-3.363281.546874-6.078125 3.039062-6.910156 6.34375-.828125 3.304687.382812 6.785156 3.089843 8.855468l69.972657 53.503906c1.476562 1.136719 3.289062 1.753907 5.152343 1.757813.546876.003906 1.09375-.046875 1.628907-.152344l239.363281-46.6875c3.554688-.691406 6.28125-3.554687 6.808594-7.140625.523437-3.582031-1.273438-7.105468-4.480469-8.789062l-83.03125-43.519532c-1.636719-.855468-3.507813-1.15625-5.332031-.855468l-18.636719 3.046875c.101563-.5625.214844-1.144531.316406-1.707031.871094-4.855469 1.742188-9.652344 2.859375-14.378907zm-211.628906-81.507812c-12.011719-7.445313-24.53125-14.039063-37.46875-19.730469l-.792969-.394531c63.007813-37.433594 155.792969 25.652343 156.789063 26.335937 2.210937 1.523438 5.003906 1.917969 7.546875 1.070313 2.542969-.851563 4.539062-2.847657 5.390625-5.390625 71.339844-214.160156 197.597656-241.167969 248.421875-242.8125l-2.363281 2.4375c-1.441407 1.503906-2.628907 2.75-3.414063 3.472656-9.664063 8.722656-18.839844 17.96875-27.484375 27.699219-4.214844 4.78125-8.367188 9.617187-12.449219 14.507812-64.757812 76.242188-111.636719 166.007813-137.199219 262.714844-.042968.148437-.078124.28125-.113281.429687-.605469 2.40625-1.261719 4.8125-1.839843 7.226563-1.1875 4.992187-2.117188 10.121094-3.046876 15.28125-.804687 4.449219-1.613281 8.808594-2.5625 13.03125l-.050781.222656c-1.695312 10.433594-6.347656 20.160157-13.40625 28.03125-10.136719 10.128907-26.171875 10.171875-42.058593 10.128907h-2.03125c-14.507813 0-24.398438-9.949219-32.496094-23.175782-.160156-.324218-.347656-.636718-.5625-.929687-4.199219-7.015625-7.945313-14.867188-11.640625-22.648438-3.472657-7.3125-6.75-14.222656-10.359375-20.242187-19.03125-31.558594-45.390625-58.066406-76.851563-77.265625zm227.03125 111.835937 58.972656 30.90625-211.738281 41.3125-51.199219-39.152344 64.625-10.503906c10.144532 14.984375 23.695313 26.929688 44.175782 26.929688h4.019531c17.015625 0 37.546875-.527344 52.15625-15.144532 8.121093-8.589843 13.835937-19.167968 16.5625-30.667968zm0 0"/><path d="m303.0625 162.296875c1.261719.710937 2.6875 1.078125 4.136719 1.074219 3.105469.003906 5.960937-1.679688 7.46875-4.394532 40.625-73.113281 89.597656-98.574218 90.238281-98.910156 4.214844-2.121094 5.914062-7.257812 3.792969-11.472656-2.121094-4.214844-7.257813-5.914062-11.472657-3.792969-2.183593 1.09375-54.058593 27.691407-97.511718 105.898438-1.09375 1.980469-1.355469 4.316406-.726563 6.492187.625 2.175782 2.089844 4.011719 4.074219 5.105469zm0 0"/><path d="m277.785156 205.1875c2.027344 1.011719 4.371094 1.175781 6.519532.460938 2.148437-.71875 3.921874-2.257813 4.933593-4.285157l8.53125-17.066406c2.109375-4.21875.394531-9.347656-3.820312-11.453125-4.21875-2.105469-9.347657-.394531-11.453125 3.824219l-8.535156 17.066406c-1.011719 2.023437-1.175782 4.371094-.460938 6.519531.71875 2.144532 2.257812 3.921875 4.285156 4.933594zm0 0"/></g></svg>