<svg height="512pt" viewBox="0 0 512 512.00002" width="512pt" xmlns="http://www.w3.org/2000/svg"><path d="m102.398438 426.667969c-4.710938 0-8.53125 3.820312-8.53125 8.53125 0 4.714843 3.820312 8.535156 8.53125 8.535156h110.933593c4.714844 0 8.535157-3.820313 8.535157-8.535156 0-4.710938-3.820313-8.53125-8.535157-8.53125zm0 0"/><path d="m486.398438 0h-460.796876c-14.140624 0-25.601562 11.460938-25.601562 25.601562v460.796876c0 14.140624 11.460938 25.601562 25.601562 25.601562h384c4.710938 0 8.53125-3.820312 8.53125-8.535156 0-4.710938-3.820312-8.53125-8.53125-8.53125h-384c-4.714843 0-8.535156-3.820313-8.535156-8.535156v-112.5c2.734375 1.007812 5.621094 1.539062 8.535156 1.566406h8.53125c4.714844 0 8.535157 3.824218 8.535157 8.535156v51.199219c-.003907 3.558593 2.199219 6.746093 5.527343 7.996093.964844.355469 1.980469.535157 3.003907.539063 2.460937-.003906 4.800781-1.066406 6.417969-2.917969l54.613281-62.429687c1.625-1.863281 3.980469-2.925781 6.449219-2.921875h120.253906v42.667968c0 14.140626 11.460937 25.601563 25.601562 25.601563h128.785156c2.460938-.003906 4.800782 1.058594 6.421876 2.910156l54.613281 62.4375c1.625 1.859375 3.976562 2.921875 6.445312 2.917969 1.023438-.003906 2.039063-.183594 3.003907-.539062 3.328124-1.25 5.53125-4.4375 5.527343-7.996094v-51.199219c0-4.710937 3.820313-8.53125 8.535157-8.53125h8.53125c14.140624 0 25.601562-11.460937 25.601562-25.601563v-102.398437c0-14.140625-11.460938-25.601563-25.601562-25.601563h-213.332032v-42.667968c0-14.136719-11.460937-25.597656-25.601562-25.597656h-221.863282c-2.914062.027343-5.800781.558593-8.535156 1.570312v-138.105469h477.867188v179.203125c0 4.710938 3.820312 8.53125 8.53125 8.53125 4.714844 0 8.535156-3.820312 8.535156-8.53125v-238.933594c0-14.140624-11.460938-25.601562-25.601562-25.601562zm8.535156 315.734375v102.398437c0 4.714844-3.820313 8.535157-8.535156 8.535157h-8.53125c-14.140626 0-25.601563 11.460937-25.601563 25.597656v28.492187l-39.679687-45.363281c-4.863282-5.550781-11.886719-8.730469-19.265626-8.726562h-128.785156c-4.714844 0-8.535156-3.820313-8.535156-8.535157v-102.398437c0-4.714844 3.820312-8.535156 8.535156-8.535156h221.863282c4.714843 0 8.535156 3.820312 8.535156 8.535156zm-469.332032-76.800781h221.863282c4.714844 0 8.535156 3.820312 8.535156 8.53125v44.128906c-.296875.101562-.5625.261719-.851562.375-.453126.1875-.855469.390625-1.332032.597656-.96875.449219-1.90625.953125-2.808594 1.519532-.402343.253906-.808593.492187-1.203124.773437-1.019532.722656-1.980469 1.519531-2.882813 2.382813-.179687.179687-.386719.316406-.566406.496093-1.039063 1.054688-1.988281 2.195313-2.839844 3.410157-.230469.34375-.425781.710937-.648437 1.066406-.585938.929687-1.109376 1.898437-1.570313 2.894531-.214844.46875-.402344.9375-.589844 1.417969-.382812 1.003906-.703125 2.03125-.953125 3.078125-.121094.46875-.257812.921875-.34375 1.402343-.308594 1.554688-.46875 3.136719-.476562 4.726563v42.664063h-120.253906c-7.378907 0-14.402344 3.183593-19.265626 8.738281l-39.679687 45.355469v-28.492188c0-14.136719-11.460937-25.601562-25.601563-25.601562h-8.53125c-4.714843 0-8.535156-3.820313-8.535156-8.53125v-102.402344c0-4.710938 3.820313-8.53125 8.535156-8.53125zm-8.535156-170.667969v-42.664063c0-4.714843 3.820313-8.535156 8.535156-8.535156h460.796876c4.714843 0 8.535156 3.820313 8.535156 8.535156v42.664063zm0 0"/><path d="m51.199219 42.667969c0 4.710937-3.820313 8.53125-8.53125 8.53125-4.714844 0-8.535157-3.820313-8.535157-8.53125 0-4.714844 3.820313-8.535157 8.535157-8.535157 4.710937 0 8.53125 3.820313 8.53125 8.535157zm0 0"/><path d="m85.332031 42.667969c0 4.710937-3.820312 8.53125-8.53125 8.53125-4.714843 0-8.535156-3.820313-8.535156-8.53125 0-4.714844 3.820313-8.535157 8.535156-8.535157 4.710938 0 8.53125 3.820313 8.53125 8.535157zm0 0"/><path d="m119.464844 42.667969c0 4.710937-3.820313 8.53125-8.53125 8.53125-4.714844 0-8.535156-3.820313-8.535156-8.53125 0-4.714844 3.820312-8.535157 8.535156-8.535157 4.710937 0 8.53125 3.820313 8.53125 8.535157zm0 0"/><path d="m352.367188 407.101562c1.601562 1.597657 3.769531 2.496094 6.03125 2.5h.609374c2.46875-.183593 4.738282-1.429687 6.21875-3.414062l51.199219-68.265625c2.828125-3.773437 2.066407-9.121094-1.707031-11.949219-3.769531-2.828125-9.117188-2.0625-11.945312 1.707032l-45.296876 60.398437-18.644531-18.644531c-3.347656-3.234375-8.667969-3.1875-11.960937.105468-3.292969 3.289063-3.339844 8.613282-.105469 11.960938zm0 0"/><path d="m42.667969 341.332031h170.664062c4.714844 0 8.535157-3.820312 8.535157-8.53125 0-4.714843-3.820313-8.535156-8.535157-8.535156h-170.664062c-4.714844 0-8.535157 3.820313-8.535157 8.535156 0 4.710938 3.820313 8.53125 8.535157 8.53125zm0 0"/><path d="m42.667969 307.199219h170.664062c4.714844 0 8.535157-3.820313 8.535157-8.53125 0-4.714844-3.820313-8.535157-8.535157-8.535157h-170.664062c-4.714844 0-8.535157 3.820313-8.535157 8.535157 0 4.710937 3.820313 8.53125 8.535157 8.53125zm0 0"/><path d="m42.667969 273.066406h187.730469c4.714843 0 8.535156-3.820312 8.535156-8.53125 0-4.714844-3.820313-8.535156-8.535156-8.535156h-187.730469c-4.714844 0-8.535157 3.820312-8.535157 8.535156 0 4.710938 3.820313 8.53125 8.535157 8.53125zm0 0"/><path d="m51.199219 102.398438c-9.425781 0-17.066407 7.640624-17.066407 17.066406v68.269531c0 9.425781 7.640626 17.066406 17.066407 17.066406h102.402343c9.425782 0 17.066407-7.640625 17.066407-17.066406v-68.269531c0-9.425782-7.640625-17.066406-17.066407-17.066406zm0 85.335937v-68.269531h102.402343v68.269531zm0 0"/><path d="m477.867188 119.464844c0-9.425782-7.640626-17.066406-17.066407-17.066406h-256c-9.425781 0-17.066406 7.640624-17.066406 17.066406v68.269531c0 9.425781 7.640625 17.066406 17.066406 17.066406h256c9.425781 0 17.066407-7.640625 17.066407-17.066406zm-17.066407 25.601562h-187.734375v-25.601562h187.734375zm-256-25.601562h51.199219v68.269531h-51.199219zm68.265625 68.269531v-25.601563h187.734375v25.601563zm0 0"/><path d="m469.332031 221.867188h-170.664062c-4.714844 0-8.535157 3.820312-8.535157 8.53125 0 4.714843 3.820313 8.535156 8.535157 8.535156h170.664062c4.714844 0 8.535157-3.820313 8.535157-8.535156 0-4.710938-3.820313-8.53125-8.535157-8.53125zm0 0"/><path d="m469.332031 256h-170.664062c-4.714844 0-8.535157 3.820312-8.535157 8.535156 0 4.710938 3.820313 8.53125 8.535157 8.53125h170.664062c4.714844 0 8.535157-3.820312 8.535157-8.53125 0-4.714844-3.820313-8.535156-8.535157-8.535156zm0 0"/></svg>