<svg height="512pt" viewBox="0 0 512 512.00002" width="512pt" xmlns="http://www.w3.org/2000/svg"><path d="m25.601562 8.535156h460.796876c9.425781 0 17.066406 7.640625 17.066406 17.066406v460.796876c0 9.425781-7.640625 17.066406-17.066406 17.066406h-460.796876c-9.425781 0-17.066406-7.640625-17.066406-17.066406v-460.796876c0-9.425781 7.640625-17.066406 17.066406-17.066406zm0 0" fill="#d4e1f4"/><path d="m25.601562 8.535156h435.199219c9.425781 0 17.066407 7.640625 17.066407 17.066406v460.796876c0 9.425781-7.640626 17.066406-17.066407 17.066406h-435.199219c-9.425781 0-17.066406-7.640625-17.066406-17.066406v-460.796876c0-9.425781 7.640625-17.066406 17.066406-17.066406zm0 0" fill="#e3e7f2"/><path d="m503.464844 315.734375v102.398437c-.027344 9.414063-7.652344 17.039063-17.066406 17.066407h-8.53125c-9.414063.027343-17.039063 7.652343-17.066407 17.066406v51.199219l-25.601562-29.265625-29.011719-33.195313c-3.265625-3.691406-7.957031-5.804687-12.886719-5.804687h-128.765625c-9.414062-.027344-17.039062-7.652344-17.070312-17.066407v-102.398437c.03125-9.414063 7.65625-17.039063 17.070312-17.066406h221.863282c9.414062.027343 17.039062 7.652343 17.066406 17.066406zm0 0" fill="#a4c2f7"/><path d="m477.867188 315.734375v102.398437c-.027344 9.414063-7.652344 17.039063-17.066407 17.066407h-8.535156c-9.414063.027343-17.039063 7.652343-17.066406 17.066406v21.933594l-29.011719-33.195313c-3.265625-3.691406-7.957031-5.804687-12.886719-5.804687h-128.765625c-9.414062-.027344-17.039062-7.652344-17.070312-17.066407v-102.398437c.03125-9.414063 7.65625-17.039063 17.070312-17.066406h196.265625c9.414063.027343 17.039063 7.652343 17.066407 17.066406zm0 0" fill="#d4e1f4"/><path d="m503.464844 25.601562v51.199219h-494.929688v-51.199219c.027344-9.414062 7.652344-17.039062 17.066406-17.066406h460.796876c9.414062.027344 17.039062 7.652344 17.066406 17.066406zm0 0" fill="#a4c2f7"/><path d="m477.867188 25.601562v51.199219h-469.332032v-51.199219c.027344-9.414062 7.652344-17.039062 17.066406-17.066406h435.199219c9.414063.027344 17.039063 7.652344 17.066407 17.066406zm0 0" fill="#d4e1f4"/><path d="m247.464844 230.398438h-221.863282c-9.425781 0-17.066406 7.640624-17.066406 17.066406v102.402344c0 9.425781 7.640625 17.066406 17.066406 17.066406h8.53125c9.425782 0 17.066407 7.640625 17.066407 17.066406v51.199219l54.613281-62.4375c3.246094-3.710938 7.9375-5.835938 12.867188-5.828125h128.785156v-51.199219c0-9.425781 7.644531-17.066406 17.070312-17.066406v-51.203125c0-9.425782-7.644531-17.066406-17.070312-17.066406zm0 0" fill="#e3e7f2"/><path d="m51.199219 110.933594h102.402343c4.710938 0 8.53125 3.820312 8.53125 8.53125v68.269531c0 4.710937-3.820312 8.53125-8.53125 8.53125h-102.402343c-4.710938 0-8.53125-3.820313-8.53125-8.53125v-68.269531c0-4.710938 3.820312-8.53125 8.53125-8.53125zm0 0" fill="#e3e7f2"/><path d="m469.332031 119.464844v34.136718h-204.796875v-42.667968h196.265625c4.710938 0 8.53125 3.820312 8.53125 8.53125zm0 0" fill="#e3e7f2"/><path d="m469.332031 153.601562v34.132813c0 4.710937-3.820312 8.53125-8.53125 8.53125h-196.265625v-42.664063zm0 0" fill="#a4c2f7"/><path d="m264.535156 110.933594v85.332031h-59.734375c-4.714843 0-8.535156-3.820313-8.535156-8.53125v-68.269531c0-4.710938 3.820313-8.53125 8.535156-8.53125zm0 0" fill="#e3e7f2"/><path d="m51.199219 42.667969c0 4.710937-3.820313 8.53125-8.53125 8.53125-4.714844 0-8.535157-3.820313-8.535157-8.53125 0-4.714844 3.820313-8.535157 8.535157-8.535157 4.710937 0 8.53125 3.820313 8.53125 8.535157zm0 0" fill="#428dff"/><path d="m85.332031 42.667969c0 4.710937-3.820312 8.53125-8.53125 8.53125-4.714843 0-8.535156-3.820313-8.535156-8.53125 0-4.714844 3.820313-8.535157 8.535156-8.535157 4.710938 0 8.53125 3.820313 8.53125 8.535157zm0 0" fill="#428dff"/><path d="m119.464844 42.667969c0 4.710937-3.820313 8.53125-8.53125 8.53125-4.714844 0-8.535156-3.820313-8.535156-8.53125 0-4.714844 3.820312-8.535157 8.535156-8.535157 4.710937 0 8.53125 3.820313 8.53125 8.535157zm0 0" fill="#428dff"/><path d="m34.132812 486.398438v-460.796876c.027344-9.414062 7.652344-17.039062 17.066407-17.066406h-25.597657c-9.414062.027344-17.039062 7.652344-17.066406 17.066406v460.796876c.027344 9.414062 7.652344 17.039062 17.066406 17.066406h25.597657c-9.414063-.027344-17.039063-7.652344-17.066407-17.066406zm0 0" fill="#fff"/><path d="m17.066406 76.800781v409.597657h-17.066406v-409.597657zm0 0" fill="#fff"/><g fill="#428dff"><path d="m486.398438 290.132812h-213.332032v-42.667968c0-14.136719-11.460937-25.597656-25.601562-25.597656h-221.863282c-2.914062.027343-5.800781.558593-8.535156 1.570312v-44.238281c0-4.710938-3.820312-8.53125-8.53125-8.53125-4.714844 0-8.535156 3.820312-8.535156 8.53125v307.199219c0 14.140624 11.460938 25.601562 25.601562 25.601562h384c4.710938 0 8.53125-3.820312 8.53125-8.535156 0-4.710938-3.820312-8.53125-8.53125-8.53125h-384c-4.714843 0-8.535156-3.820313-8.535156-8.535156v-112.5c2.734375 1.007812 5.621094 1.539062 8.535156 1.566406h8.53125c4.714844 0 8.535157 3.824218 8.535157 8.535156v51.199219c-.003907 3.558593 2.199219 6.746093 5.527343 7.996093.964844.355469 1.980469.535157 3.003907.539063 2.460937-.003906 4.800781-1.066406 6.417969-2.917969l54.613281-62.429687c1.625-1.863281 3.980469-2.925781 6.449219-2.921875h120.253906v42.667968c0 14.140626 11.460937 25.601563 25.601562 25.601563h128.785156c2.460938-.003906 4.800782 1.058594 6.421876 2.910156l54.613281 62.4375c1.625 1.859375 3.976562 2.921875 6.445312 2.917969 1.023438-.003906 2.039063-.183594 3.003907-.539062 3.328124-1.25 5.53125-4.4375 5.527343-7.996094v-51.199219c0-4.710937 3.820313-8.53125 8.535157-8.53125h8.53125c14.140624 0 25.601562-11.460937 25.601562-25.601563v-102.398437c0-14.140625-11.460938-25.601563-25.601562-25.601563zm-367.71875 68.265626c-7.378907 0-14.402344 3.183593-19.265626 8.738281l-39.679687 45.355469v-28.492188c0-14.136719-11.460937-25.601562-25.601563-25.601562h-8.53125c-4.714843 0-8.535156-3.820313-8.535156-8.53125v-102.402344c0-4.710938 3.820313-8.53125 8.535156-8.53125h221.863282c4.714844 0 8.535156 3.820312 8.535156 8.53125v44.128906c-.296875.101562-.5625.261719-.851562.375-.453126.1875-.855469.390625-1.332032.597656-.96875.449219-1.90625.953125-2.808594 1.519532-.402343.253906-.808593.492187-1.203124.773437-1.019532.722656-1.980469 1.519531-2.882813 2.382813-.179687.179687-.386719.316406-.566406.496093-1.039063 1.054688-1.988281 2.195313-2.839844 3.410157-.230469.34375-.425781.710937-.648437 1.066406-.585938.929687-1.109376 1.898437-1.570313 2.894531-.214844.46875-.402344.9375-.589844 1.417969-.382812 1.003906-.703125 2.03125-.953125 3.078125-.121094.46875-.257812.921875-.34375 1.402343-.308594 1.554688-.46875 3.136719-.476562 4.726563v42.664063zm376.253906 59.734374c0 4.714844-3.820313 8.535157-8.535156 8.535157h-8.53125c-14.140626 0-25.601563 11.460937-25.601563 25.597656v28.492187l-39.679687-45.363281c-4.863282-5.550781-11.886719-8.730469-19.265626-8.726562h-128.785156c-4.714844 0-8.535156-3.820313-8.535156-8.535157v-102.398437c0-4.714844 3.820312-8.535156 8.535156-8.535156h221.863282c4.714843 0 8.535156 3.820312 8.535156 8.535156zm0 0"/><path d="m102.398438 426.667969c-4.710938 0-8.53125 3.820312-8.53125 8.53125 0 4.714843 3.820312 8.535156 8.53125 8.535156h110.933593c4.714844 0 8.535157-3.820313 8.535157-8.535156 0-4.710938-3.820313-8.53125-8.535157-8.53125zm0 0"/><path d="m8.535156 153.601562c2.257813-.035156 4.421875-.917968 6.058594-2.476562 3.296875-3.363281 3.296875-8.753906 0-12.117188l-1.28125-1.023437c-.476562-.324219-.992188-.582031-1.535156-.769531-.484375-.246094-1.003906-.417969-1.539063-.511719-.5625-.09375-1.132812-.152344-1.703125-.167969-2.261718.03125-4.425781.914063-6.058594 2.472656-.773437.816407-1.382812 1.773438-1.792968 2.816407-1.289063 3.183593-.5859378 6.824219 1.792968 9.300781.8125.773438 1.769532 1.378906 2.8125 1.792969 1.027344.4375 2.128907.667969 3.246094.683593zm0 0"/><path d="m486.398438 0h-460.796876c-14.140624 0-25.601562 11.460938-25.601562 25.601562v85.332032c0 4.710937 3.820312 8.53125 8.535156 8.53125 4.710938 0 8.53125-3.820313 8.53125-8.53125v-25.601563h477.867188v179.203125c0 4.710938 3.820312 8.53125 8.53125 8.53125 4.714844 0 8.535156-3.820312 8.535156-8.53125v-238.933594c0-14.140624-11.460938-25.601562-25.601562-25.601562zm-469.332032 68.265625v-42.664063c0-4.714843 3.820313-8.535156 8.535156-8.535156h460.796876c4.714843 0 8.535156 3.820313 8.535156 8.535156v42.664063zm0 0"/><path d="m402.773438 327.679688-45.296876 60.398437-18.644531-18.644531c-3.347656-3.234375-8.667969-3.1875-11.960937.105468-3.292969 3.289063-3.339844 8.613282-.105469 11.960938l25.601563 25.601562c1.601562 1.597657 3.769531 2.496094 6.03125 2.5h.609374c2.46875-.183593 4.738282-1.429687 6.21875-3.414062l51.199219-68.265625c2.828125-3.773437 2.066407-9.121094-1.707031-11.949219-3.769531-2.828125-9.117188-2.0625-11.945312 1.707032zm0 0"/><path d="m213.332031 324.265625h-170.664062c-4.714844 0-8.535157 3.820313-8.535157 8.535156 0 4.710938 3.820313 8.53125 8.535157 8.53125h170.664062c4.714844 0 8.535157-3.820312 8.535157-8.53125 0-4.714843-3.820313-8.535156-8.535157-8.535156zm0 0"/><path d="m213.332031 290.132812h-170.664062c-4.714844 0-8.535157 3.820313-8.535157 8.535157 0 4.710937 3.820313 8.53125 8.535157 8.53125h170.664062c4.714844 0 8.535157-3.820313 8.535157-8.53125 0-4.714844-3.820313-8.535157-8.535157-8.535157zm0 0"/><path d="m230.398438 256h-187.730469c-4.714844 0-8.535157 3.820312-8.535157 8.535156 0 4.710938 3.820313 8.53125 8.535157 8.53125h187.730469c4.714843 0 8.535156-3.820312 8.535156-8.53125 0-4.714844-3.820313-8.535156-8.535156-8.535156zm0 0"/><path d="m153.601562 204.800781c9.425782 0 17.066407-7.640625 17.066407-17.066406v-68.269531c0-9.425782-7.640625-17.066406-17.066407-17.066406h-102.402343c-9.425781 0-17.066407 7.640624-17.066407 17.066406v68.269531c0 9.425781 7.640626 17.066406 17.066407 17.066406zm-102.402343-85.335937h102.402343v68.269531h-102.402343zm0 0"/><path d="m477.867188 119.464844c0-9.425782-7.640626-17.066406-17.066407-17.066406h-256c-9.425781 0-17.066406 7.640624-17.066406 17.066406v68.269531c0 9.425781 7.640625 17.066406 17.066406 17.066406h256c9.425781 0 17.066407-7.640625 17.066407-17.066406zm-17.066407 25.601562h-187.734375v-25.601562h187.734375zm-256-25.601562h51.199219v68.269531h-51.199219zm68.265625 68.269531v-25.601563h187.734375v25.601563zm0 0"/><path d="m469.332031 221.867188h-170.664062c-4.714844 0-8.535157 3.820312-8.535157 8.53125 0 4.714843 3.820313 8.535156 8.535157 8.535156h170.664062c4.714844 0 8.535157-3.820313 8.535157-8.535156 0-4.710938-3.820313-8.53125-8.535157-8.53125zm0 0"/><path d="m469.332031 256h-170.664062c-4.714844 0-8.535157 3.820312-8.535157 8.535156 0 4.710938 3.820313 8.53125 8.535157 8.53125h170.664062c4.714844 0 8.535157-3.820312 8.535157-8.53125 0-4.714844-3.820313-8.535156-8.535157-8.535156zm0 0"/></g></svg>