<svg height="853.33331pt" viewBox="-26 -26 853.33331 853.33331" width="853.33331pt" xmlns="http://www.w3.org/2000/svg"><path d="m758.25-1.75h-720c-22.089844 0-40 17.910156-40 40v720c0 22.089844 17.910156 40 40 40h720c22.089844 0 40-17.910156 40-40v-720c0-22.089844-17.910156-40-40-40zm-733.335938 40c0-7.363281 5.972657-13.335938 13.335938-13.335938h720c7.363281 0 13.335938 5.972657 13.335938 13.335938v66.664062h-746.671876zm746.671876 93.332031v533.339844h-746.671876v-533.339844zm0 626.667969c0 7.363281-5.972657 13.335938-13.335938 13.335938h-720c-7.363281 0-13.335938-5.972657-13.335938-13.335938v-66.664062h746.671876zm0 0"/><path d="m92.980469 310.878906c2.175781 4.355469 6.550781 7.175782 11.417969 7.367188 4.863281.191406 9.4375-2.289063 11.941406-6.464844l28.582031-47.621094 28.566406 47.621094c2.410157 4.019531 6.75 6.46875 11.425781 6.46875h.523438c4.859375-.183594 9.238281-3.007812 11.417969-7.359375l39.992187-80c2.128906-4.265625 1.828125-9.339844-.804687-13.3125-2.625-3.976563-7.171875-6.246094-11.933594-5.957031-4.753906.28125-8.992187 3.085937-11.121094 7.351562l-29.136719 58.261719-27.503906-45.847656c-2.589844-3.765625-6.867187-6.011719-11.425781-6.011719-4.570313 0-8.839844 2.246094-11.425781 6.011719l-27.511719 45.847656-29.066406-58.277344c-2.128907-4.261719-6.371094-7.0625-11.128907-7.351562-4.753906-.292969-9.304687 1.980469-11.933593 5.957031-2.625 3.972656-2.929688 9.050781-.808594 13.316406zm0 0"/><path d="m306.316406 310.878906c2.179688 4.355469 6.554688 7.171875 11.417969 7.363282 4.871094.167968 9.453125-2.296876 12-6.460938l28.515625-47.621094 28.574219 47.621094c2.414062 4.019531 6.742187 6.46875 11.425781 6.46875h.519531c4.863281-.183594 9.242188-3.007812 11.414063-7.359375l40-80c2.128906-4.265625 1.820312-9.339844-.804688-13.3125-2.632812-3.976563-7.179687-6.246094-11.929687-5.957031-4.765625.28125-9.003907 3.085937-11.132813 7.351562l-29.136718 58.261719-27.5-45.847656c-2.585938-3.765625-6.859376-6.011719-11.429688-6.011719s-8.835938 2.246094-11.425781 6.011719l-27.503907 45.847656-29.074218-58.277344c-3.285156-6.589843-11.300782-9.261719-17.882813-5.96875-6.59375 3.285157-9.269531 11.296875-5.976562 17.890625zm0 0"/><path d="m519.582031 310.878906c2.179688 4.355469 6.554688 7.171875 11.414063 7.363282 4.871094.164062 9.453125-2.304688 12-6.460938l28.589844-47.621094 28.570312 47.621094c2.410156 4.019531 6.746094 6.46875 11.429688 6.46875h.523437c4.851563-.183594 9.230469-3.007812 11.410156-7.359375l39.996094-80c3.292969-6.589844.613281-14.601563-5.96875-17.894531-6.589844-3.289063-14.609375-.613282-17.894531 5.976562l-29.136719 58.261719-27.503906-45.847656c-2.589844-3.765625-6.859375-6.011719-11.425781-6.011719-4.566407 0-8.839844 2.246094-11.425782 6.011719l-27.511718 45.847656-29.066407-58.277344c-3.285156-6.589843-11.296875-9.261719-17.890625-5.96875-6.589844 3.285157-9.265625 11.296875-5.976562 17.890625zm0 0"/><path d="m731.582031 358.25c7.367188 0 13.339844-5.972656 13.339844-13.328125v-173.335937c0-7.367188-5.972656-13.335938-13.339844-13.335938-7.359375 0-13.332031 5.96875-13.332031 13.335938v173.335937c0 7.355469 5.972656 13.328125 13.332031 13.328125zm0 0"/><path d="m118.25 611.585938h-53.328125c-7.371094 0-13.339844 5.972656-13.339844 13.328124 0 7.371094 5.96875 13.335938 13.339844 13.335938h53.328125c7.363281 0 13.332031-5.964844 13.332031-13.335938 0-7.355468-5.96875-13.328124-13.332031-13.328124zm0 0"/><path d="m424.914062 611.585938h-173.332031c-7.359375 0-13.332031 5.972656-13.332031 13.328124 0 7.371094 5.972656 13.335938 13.332031 13.335938h173.332031c7.371094 0 13.335938-5.964844 13.335938-13.335938 0-7.355468-5.964844-13.328124-13.335938-13.328124zm0 0"/><path d="m64.921875 584.914062h26.664063c7.359374 0 13.328124-5.96875 13.328124-13.328124 0-7.367188-5.96875-13.335938-13.328124-13.335938h-26.664063c-7.371094 0-13.339844 5.96875-13.339844 13.335938 0 7.359374 5.96875 13.328124 13.339844 13.328124zm0 0"/><path d="m731.582031 451.582031h-133.332031c-7.363281 0-13.335938 5.96875-13.335938 13.339844 0 7.355469 5.972657 13.328125 13.335938 13.328125h133.332031c7.367188 0 13.339844-5.972656 13.339844-13.328125 0-7.371094-5.972656-13.339844-13.339844-13.339844zm0 0"/><path d="m518.25 611.585938h-26.664062c-7.367188 0-13.335938 5.972656-13.335938 13.328124 0 7.371094 5.96875 13.335938 13.335938 13.335938h26.664062c7.363281 0 13.332031-5.964844 13.332031-13.335938 0-7.355468-5.96875-13.328124-13.332031-13.328124zm0 0"/><path d="m478.25 531.582031h26.664062c7.371094 0 13.335938-5.96875 13.335938-13.332031s-5.964844-13.335938-13.335938-13.335938h-26.664062c-7.363281 0-13.328125 5.972657-13.328125 13.335938s5.964844 13.332031 13.328125 13.332031zm0 0"/><path d="m731.582031 558.25h-26.667969c-7.355468 0-13.328124 5.96875-13.328124 13.335938 0 7.359374 5.972656 13.328124 13.328124 13.328124h26.667969c7.367188 0 13.339844-5.96875 13.339844-13.328124 0-7.367188-5.972656-13.335938-13.339844-13.335938zm0 0"/><path d="m731.582031 611.585938h-93.332031c-7.363281 0-13.335938 5.972656-13.335938 13.328124 0 7.371094 5.972657 13.335938 13.335938 13.335938h93.332031c7.367188 0 13.339844-5.964844 13.339844-13.335938 0-7.355468-5.972656-13.328124-13.339844-13.328124zm0 0"/><path d="m478.25 424.914062h253.332031c7.367188 0 13.339844-5.964843 13.339844-13.328124 0-7.367188-5.972656-13.335938-13.339844-13.335938h-253.332031c-7.363281 0-13.328125 5.96875-13.328125 13.335938 0 7.363281 5.964844 13.328124 13.328125 13.328124zm0 0"/><path d="m304.914062 571.585938c0-7.367188-5.96875-13.335938-13.328124-13.335938h-106.671876c-7.363281 0-13.328124 5.96875-13.328124 13.335938 0 7.359374 5.964843 13.328124 13.328124 13.328124h106.671876c7.359374 0 13.328124-5.96875 13.328124-13.328124zm0 0"/><path d="m64.921875 424.914062h80c7.355469 0 13.328125-5.964843 13.328125-13.328124 0-7.367188-5.972656-13.335938-13.328125-13.335938h-80c-7.371094 0-13.339844 5.96875-13.339844 13.335938 0 7.363281 5.96875 13.328124 13.339844 13.328124zm0 0"/><path d="m184.914062 411.585938c0 7.363281 5.972657 13.328124 13.335938 13.328124h40c7.363281 0 13.332031-5.964843 13.332031-13.328124 0-7.367188-5.96875-13.335938-13.332031-13.335938h-40c-7.363281 0-13.335938 5.96875-13.335938 13.335938zm0 0"/><path d="m64.921875 478.25h173.328125c7.363281 0 13.332031-5.972656 13.332031-13.328125 0-7.371094-5.96875-13.339844-13.332031-13.339844h-173.328125c-7.371094 0-13.339844 5.96875-13.339844 13.339844 0 7.355469 5.96875 13.328125 13.339844 13.328125zm0 0"/><path d="m64.921875 531.582031h106.664063c7.359374 0 13.328124-5.96875 13.328124-13.332031s-5.96875-13.335938-13.328124-13.335938h-106.664063c-7.371094 0-13.339844 5.972657-13.339844 13.335938s5.96875 13.332031 13.339844 13.332031zm0 0"/><path d="m424.914062 504.914062h-200c-7.355468 0-13.328124 5.972657-13.328124 13.335938s5.972656 13.332031 13.328124 13.332031h200c7.371094 0 13.335938-5.96875 13.335938-13.332031s-5.964844-13.335938-13.335938-13.335938zm0 0"/><path d="m78.25 64.921875c0 7.355469-5.972656 13.328125-13.328125 13.328125-7.371094 0-13.339844-5.972656-13.339844-13.328125 0-7.371094 5.96875-13.339844 13.339844-13.339844 7.355469 0 13.328125 5.96875 13.328125 13.339844zm0 0"/><path d="m131.582031 64.921875c0 7.355469-5.96875 13.328125-13.332031 13.328125s-13.335938-5.972656-13.335938-13.328125c0-7.371094 5.972657-13.339844 13.335938-13.339844s13.332031 5.96875 13.332031 13.339844zm0 0"/><path d="m184.914062 64.921875c0 7.355469-5.96875 13.328125-13.328124 13.328125-7.367188 0-13.335938-5.972656-13.335938-13.328125 0-7.371094 5.96875-13.339844 13.335938-13.339844 7.359374 0 13.328124 5.96875 13.328124 13.339844zm0 0"/></svg>