<svg height="512pt" viewBox="0 0 512 512" width="512pt" xmlns="http://www.w3.org/2000/svg"><path d="m25.601562 8.535156h460.796876c9.425781 0 17.066406 7.640625 17.066406 17.066406v460.796876c0 9.425781-7.640625 17.066406-17.066406 17.066406h-460.796876c-9.425781 0-17.066406-7.640625-17.066406-17.066406v-460.796876c0-9.425781 7.640625-17.066406 17.066406-17.066406zm0 0" fill="#d4e1f4"/><path d="m25.601562 8.535156h435.199219c9.425781 0 17.066407 7.640625 17.066407 17.066406v460.796876c0 9.425781-7.640626 17.066406-17.066407 17.066406h-435.199219c-9.425781 0-17.066406-7.640625-17.066406-17.066406v-460.796876c0-9.425781 7.640625-17.066406 17.066406-17.066406zm0 0" fill="#e3e7f2"/><path d="m503.464844 25.601562v51.199219h-494.929688v-51.199219c.027344-9.414062 7.652344-17.039062 17.066406-17.066406h460.796876c9.414062.027344 17.039062 7.652344 17.066406 17.066406zm0 0" fill="#a4c2f7"/><path d="m503.464844 435.199219v51.199219c-.027344 9.414062-7.652344 17.039062-17.066406 17.066406h-460.796876c-9.414062-.027344-17.039062-7.652344-17.066406-17.066406v-51.199219zm0 0" fill="#a4c2f7"/><path d="m477.867188 25.601562v51.199219h-469.332032v-51.199219c.027344-9.414062 7.652344-17.039062 17.066406-17.066406h435.199219c9.414063.027344 17.039063 7.652344 17.066407 17.066406zm0 0" fill="#d4e1f4"/><path d="m477.867188 435.199219v51.199219c-.027344 9.414062-7.652344 17.039062-17.066407 17.066406h-435.199219c-9.414062-.027344-17.039062-7.652344-17.066406-17.066406v-51.199219zm0 0" fill="#d4e1f4"/><path d="m34.132812 486.398438v-460.796876c.027344-9.414062 7.652344-17.039062 17.066407-17.066406h-25.597657c-9.414062.027344-17.039062 7.652344-17.066406 17.066406v460.796876c.027344 9.414062 7.652344 17.039062 17.066406 17.066406h25.597657c-9.414063-.027344-17.039063-7.652344-17.066407-17.066406zm0 0" fill="#fff"/><path d="m17.066406 85.332031v401.066407h-17.066406v-401.066407zm0 0" fill="#fff"/><g fill="#428dff"><path d="m51.199219 42.667969c0 4.710937-3.820313 8.53125-8.53125 8.53125-4.714844 0-8.535157-3.820313-8.535157-8.53125 0-4.714844 3.820313-8.535157 8.535157-8.535157 4.710937 0 8.53125 3.820313 8.53125 8.535157zm0 0"/><path d="m85.332031 42.667969c0 4.710937-3.820312 8.53125-8.53125 8.53125-4.714843 0-8.535156-3.820313-8.535156-8.53125 0-4.714844 3.820313-8.535157 8.535156-8.535157 4.710938 0 8.53125 3.820313 8.53125 8.535157zm0 0"/><path d="m119.464844 42.667969c0 4.710937-3.820313 8.53125-8.53125 8.53125-4.714844 0-8.535156-3.820313-8.535156-8.53125 0-4.714844 3.820312-8.535157 8.535156-8.535157 4.710937 0 8.53125 3.820313 8.53125 8.535157zm0 0"/><path d="m8.535156 162.132812c2.257813-.03125 4.421875-.917968 6.058594-2.472656 3.296875-3.367187 3.296875-8.753906 0-12.117187l-1.28125-1.027344c-.476562-.320313-.992188-.578125-1.535156-.765625-.484375-.246094-1.003906-.417969-1.539063-.511719-.5625-.097656-1.132812-.152343-1.703125-.171875-2.261718.035156-4.425781.917969-6.058594 2.476563-.773437.8125-1.382812 1.769531-1.792968 2.8125-1.289063 3.183593-.5859378 6.828125 1.792968 9.304687.8125.769532 1.769532 1.378906 2.8125 1.789063 1.027344.4375 2.128907.671875 3.246094.683593zm0 0"/><path d="m486.398438 0h-460.796876c-14.140624 0-25.601562 11.460938-25.601562 25.601562v93.863282c0 4.714844 3.820312 8.535156 8.535156 8.535156 4.710938 0 8.53125-3.820312 8.53125-8.535156v-34.132813h477.867188v341.335938h-477.867188v-238.933594c0-4.714844-3.820312-8.535156-8.53125-8.535156-4.714844 0-8.535156 3.820312-8.535156 8.535156v298.664063c0 14.140624 11.460938 25.601562 25.601562 25.601562h460.796876c14.140624 0 25.601562-11.460938 25.601562-25.601562v-460.796876c0-14.140624-11.460938-25.601562-25.601562-25.601562zm-469.332032 68.265625v-42.664063c0-4.714843 3.820313-8.535156 8.535156-8.535156h460.796876c4.714843 0 8.535156 3.820313 8.535156 8.535156v42.664063zm477.867188 418.132813c0 4.714843-3.820313 8.535156-8.535156 8.535156h-460.796876c-4.714843 0-8.535156-3.820313-8.535156-8.535156v-42.664063h477.867188zm0 0"/><path d="m148.882812 137.429688c-2.027343-1.011719-4.371093-1.179688-6.519531-.460938-2.148437.714844-3.921875 2.257812-4.933593 4.285156l-18.644532 37.296875-17.605468-29.34375c-1.65625-2.410156-4.390626-3.847656-7.3125-3.847656-2.921876 0-5.65625 1.4375-7.3125 3.847656l-17.605469 29.34375-18.601563-37.296875c-1.363281-2.730468-4.078125-4.523437-7.121094-4.707031-3.046874-.1875-5.957031 1.269531-7.640624 3.8125-1.679688 2.542969-1.875 5.792969-.515626 8.523437l25.601563 51.199219c1.390625 2.785157 4.191406 4.59375 7.304687 4.714844 3.113282.121094 6.042969-1.464844 7.644532-4.136719l18.246094-30.480468 18.285156 30.480468c1.542968 2.570313 4.320312 4.140625 7.3125 4.140625h.335937c3.109375-.121093 5.910157-1.925781 7.304688-4.710937l25.597656-51.199219c1.015625-2.027344 1.183594-4.375.464844-6.523437-.714844-2.152344-2.257813-3.925782-4.285157-4.9375zm0 0"/><path d="m204.46875 204.800781c3.117188.109375 6.050781-1.46875 7.679688-4.132812l18.25-30.488281 18.289062 30.480468c1.542969 2.570313 4.316406 4.140625 7.3125 4.140625h.332031c3.113281-.121093 5.914063-1.925781 7.304688-4.710937l25.601562-51.199219c1.363281-2.730469 1.164063-5.976563-.515625-8.523437-1.683594-2.542969-4.59375-3.996094-7.636718-3.8125-3.046876.183593-5.761719 1.976562-7.125 4.707031l-18.644532 37.289062-17.601562-29.34375c-1.65625-2.410156-4.390625-3.847656-7.316406-3.847656-2.921876 0-5.65625 1.4375-7.3125 3.847656l-17.601563 29.34375-18.605469-37.296875c-2.105468-4.21875-7.234375-5.929687-11.449218-3.824218-4.21875 2.105468-5.929688 7.234374-3.824219 11.453124l25.601562 51.199219c1.382813 2.773438 4.160157 4.582031 7.261719 4.71875zm0 0"/><path d="m341 204.800781c3.117188.105469 6.050781-1.472656 7.679688-4.132812l18.253906-30.488281 18.285156 30.480468c1.542969 2.570313 4.320312 4.140625 7.316406 4.140625h.332032c3.109374-.121093 5.910156-1.925781 7.304687-4.710937l25.597656-51.199219c2.109375-4.21875.394531-9.347656-3.820312-11.453125-4.21875-2.105469-9.347657-.394531-11.453125 3.824219l-18.644532 37.289062-17.605468-29.34375c-1.65625-2.410156-4.390625-3.847656-7.3125-3.847656s-5.65625 1.4375-7.3125 3.847656l-17.605469 29.34375-18.601563-37.296875c-2.105468-4.21875-7.234374-5.929687-11.453124-3.824218-4.21875 2.105468-5.929688 7.234374-3.824219 11.453124l25.601562 51.199219c1.382813 2.773438 4.164063 4.582031 7.261719 4.71875zm0 0"/><path d="m477.867188 221.867188v-110.933594c0-4.714844-3.820313-8.535156-8.535157-8.535156-4.710937 0-8.53125 3.820312-8.53125 8.535156v110.933594c0 4.710937 3.820313 8.53125 8.53125 8.53125 4.714844 0 8.535157-3.820313 8.535157-8.53125zm0 0"/><path d="m42.667969 409.601562h34.132812c4.710938 0 8.53125-3.820312 8.53125-8.535156 0-4.710937-3.820312-8.53125-8.53125-8.53125h-34.132812c-4.714844 0-8.535157 3.820313-8.535157 8.53125 0 4.714844 3.820313 8.535156 8.535157 8.535156zm0 0"/><path d="m162.132812 409.601562h110.933594c4.714844 0 8.535156-3.820312 8.535156-8.535156 0-4.710937-3.820312-8.53125-8.535156-8.53125h-110.933594c-4.710937 0-8.53125 3.820313-8.53125 8.53125 0 4.714844 3.820313 8.535156 8.53125 8.535156zm0 0"/><path d="m42.667969 375.464844h17.066406c4.710937 0 8.53125-3.820313 8.53125-8.53125 0-4.714844-3.820313-8.535156-8.53125-8.535156h-17.066406c-4.714844 0-8.535157 3.820312-8.535157 8.535156 0 4.710937 3.820313 8.53125 8.535157 8.53125zm0 0"/><path d="m469.332031 290.132812h-85.332031c-4.710938 0-8.535156 3.820313-8.535156 8.535157 0 4.710937 3.824218 8.53125 8.535156 8.53125h85.332031c4.714844 0 8.535157-3.820313 8.535157-8.53125 0-4.714844-3.820313-8.535157-8.535157-8.535157zm0 0"/><path d="m315.734375 392.535156c-4.714844 0-8.535156 3.820313-8.535156 8.53125 0 4.714844 3.820312 8.535156 8.535156 8.535156h17.066406c4.710938 0 8.53125-3.820312 8.53125-8.535156 0-4.710937-3.820312-8.53125-8.53125-8.53125zm0 0"/><path d="m307.199219 341.332031h17.066406c4.714844 0 8.535156-3.820312 8.535156-8.53125 0-4.714843-3.820312-8.535156-8.535156-8.535156h-17.066406c-4.710938 0-8.53125 3.820313-8.53125 8.535156 0 4.710938 3.820312 8.53125 8.53125 8.53125zm0 0"/><path d="m469.332031 358.398438h-17.066406c-4.710937 0-8.53125 3.820312-8.53125 8.535156 0 4.710937 3.820313 8.53125 8.53125 8.53125h17.066406c4.714844 0 8.535157-3.820313 8.535157-8.53125 0-4.714844-3.820313-8.535156-8.535157-8.535156zm0 0"/><path d="m469.332031 392.535156h-59.730469c-4.714843 0-8.535156 3.820313-8.535156 8.53125 0 4.714844 3.820313 8.535156 8.535156 8.535156h59.730469c4.714844 0 8.535157-3.820312 8.535157-8.535156 0-4.710937-3.820313-8.53125-8.535157-8.53125zm0 0"/><path d="m298.667969 264.535156c0 4.710938 3.820312 8.53125 8.53125 8.53125h162.132812c4.714844 0 8.535157-3.820312 8.535157-8.53125 0-4.714844-3.820313-8.535156-8.535157-8.535156h-162.132812c-4.710938 0-8.53125 3.820312-8.53125 8.535156zm0 0"/><path d="m196.265625 366.933594c0-4.714844-3.820313-8.535156-8.53125-8.535156h-68.269531c-4.710938 0-8.53125 3.820312-8.53125 8.535156 0 4.710937 3.820312 8.53125 8.53125 8.53125h68.269531c4.710937 0 8.53125-3.820313 8.53125-8.53125zm0 0"/><path d="m42.667969 273.066406h51.199219c4.710937 0 8.53125-3.820312 8.53125-8.53125 0-4.714844-3.820313-8.535156-8.53125-8.535156h-51.199219c-4.714844 0-8.535157 3.820312-8.535157 8.535156 0 4.710938 3.820313 8.53125 8.535157 8.53125zm0 0"/><path d="m119.464844 264.535156c0 4.710938 3.824218 8.53125 8.535156 8.53125h25.601562c4.710938 0 8.53125-3.820312 8.53125-8.53125 0-4.714844-3.820312-8.535156-8.53125-8.535156h-25.601562c-4.710938 0-8.535156 3.820312-8.535156 8.535156zm0 0"/><path d="m42.667969 307.199219h110.933593c4.710938 0 8.53125-3.820313 8.53125-8.53125 0-4.714844-3.820312-8.535157-8.53125-8.535157h-110.933593c-4.714844 0-8.535157 3.820313-8.535157 8.535157 0 4.710937 3.820313 8.53125 8.535157 8.53125zm0 0"/><path d="m42.667969 341.332031h68.265625c4.710937 0 8.53125-3.820312 8.53125-8.53125 0-4.714843-3.820313-8.535156-8.53125-8.535156h-68.265625c-4.714844 0-8.535157 3.820313-8.535157 8.535156 0 4.710938 3.820313 8.53125 8.535157 8.53125zm0 0"/><path d="m136.535156 332.800781c0 4.710938 3.820313 8.53125 8.53125 8.53125h128c4.714844 0 8.535156-3.820312 8.535156-8.53125 0-4.714843-3.820312-8.535156-8.535156-8.535156h-128c-4.710937 0-8.53125 3.820313-8.53125 8.535156zm0 0"/></g></svg>