<svg height="512.00003pt" viewBox="0 0 512.00003 512.00003" width="512.00003pt" xmlns="http://www.w3.org/2000/svg"><path d="m477.867188 0h-443.734376c-18.851562 0-34.132812 15.28125-34.132812 34.132812v341.332032c0 18.851562 15.28125 34.136718 34.132812 34.136718h170.667969v34.132813h-25.601562c-23.550781.027344-42.636719 19.113281-42.664063 42.664063v12.800781c0 7.070312 5.730469 12.800781 12.796875 12.800781h213.335938c7.066406 0 12.796875-5.730469 12.796875-12.800781v-12.800781c-.027344-23.550782-19.113282-42.636719-42.664063-42.664063h-25.601562v-34.132813h170.667969c18.851562 0 34.132812-15.285156 34.132812-34.136718v-341.332032c0-18.851562-15.28125-34.132812-34.132812-34.132812zm-119.46875 486.398438v8.535156h-204.796876v-8.535156c0-14.136719 11.460938-25.597657 25.597657-25.597657h153.601562c14.136719 0 25.597657 11.460938 25.597657 25.597657zm-68.265626-42.664063h-68.265624v-34.132813h68.265624zm204.800782-68.269531c0 9.425781-7.640625 17.070312-17.066406 17.070312h-443.734376c-9.425781 0-17.066406-7.644531-17.066406-17.070312v-341.332032c0-9.425781 7.640625-17.066406 17.066406-17.066406h443.734376c9.425781 0 17.066406 7.640625 17.066406 17.066406zm0 0"/><path d="m290.132812 34.132812h-238.933593c-9.425781 0-17.066407 7.640626-17.066407 17.066407v170.667969c0 9.425781 7.640626 17.066406 17.066407 17.066406h238.933593c9.425782 0 17.066407-7.640625 17.066407-17.066406v-170.667969c0-9.425781-7.640625-17.066407-17.066407-17.066407zm-238.933593 187.734376v-170.667969h62.984375c-28.667969 18.925781-45.921875 50.980469-45.921875 85.335937 0 34.351563 17.253906 66.40625 45.921875 85.332032zm119.46875-170.667969c47.128906 0 85.332031 38.207031 85.332031 85.335937 0 47.125-38.203125 85.332032-85.332031 85.332032-47.128907 0-85.335938-38.207032-85.335938-85.332032.054688-47.109375 38.226563-85.285156 85.335938-85.335937zm56.480469 170.667969c28.671874-18.925782 45.921874-50.980469 45.921874-85.332032 0-34.355468-17.25-66.410156-45.921874-85.335937h62.984374v170.667969zm0 0"/><path d="m401.066406 34.132812h-59.734375c-9.425781 0-17.066406 7.640626-17.066406 17.066407v34.132812c0 9.425781 7.640625 17.066407 17.066406 17.066407h59.734375c9.425782 0 17.066406-7.640626 17.066406-17.066407v-34.132812c0-9.425781-7.640624-17.066407-17.066406-17.066407zm-59.734375 51.199219v-34.132812h59.734375v34.132812zm0 0"/><path d="m469.332031 34.132812h-25.597656c-4.714844 0-8.535156 3.820313-8.535156 8.535157 0 4.710937 3.820312 8.53125 8.535156 8.53125h25.597656c4.714844 0 8.535157-3.820313 8.535157-8.53125 0-4.714844-3.820313-8.535157-8.535157-8.535157zm0 0"/><path d="m443.734375 85.332031h8.53125c4.714844 0 8.535156-3.820312 8.535156-8.53125 0-4.714843-3.820312-8.535156-8.535156-8.535156h-8.53125c-4.714844 0-8.535156 3.820313-8.535156 8.535156 0 4.710938 3.820312 8.53125 8.535156 8.53125zm0 0"/><path d="m401.066406 119.464844h-59.734375c-9.425781 0-17.066406 7.644531-17.066406 17.070312v34.132813c0 9.425781 7.640625 17.066406 17.066406 17.066406h59.734375c9.425782 0 17.066406-7.640625 17.066406-17.066406v-34.132813c0-9.425781-7.640624-17.070312-17.066406-17.070312zm-59.734375 51.203125v-34.132813h59.734375v34.132813zm0 0"/><path d="m469.332031 119.464844h-25.597656c-4.714844 0-8.535156 3.824218-8.535156 8.535156s3.820312 8.535156 8.535156 8.535156h25.597656c4.714844 0 8.535157-3.824218 8.535157-8.535156s-3.820313-8.535156-8.535157-8.535156zm0 0"/><path d="m443.734375 170.667969h8.53125c4.714844 0 8.535156-3.820313 8.535156-8.535157 0-4.710937-3.820312-8.53125-8.535156-8.53125h-8.53125c-4.714844 0-8.535156 3.820313-8.535156 8.53125 0 4.714844 3.820312 8.535157 8.535156 8.535157zm0 0"/><path d="m401.066406 204.800781h-59.734375c-9.425781 0-17.066406 7.640625-17.066406 17.066407v34.132812c0 9.425781 7.640625 17.066406 17.066406 17.066406h59.734375c9.425782 0 17.066406-7.640625 17.066406-17.066406v-34.132812c0-9.425782-7.640624-17.066407-17.066406-17.066407zm-59.734375 51.199219v-34.132812h59.734375v34.132812zm0 0"/><path d="m469.332031 204.800781h-25.597656c-4.714844 0-8.535156 3.820313-8.535156 8.53125 0 4.714844 3.820312 8.535157 8.535156 8.535157h25.597656c4.714844 0 8.535157-3.820313 8.535157-8.535157 0-4.710937-3.820313-8.53125-8.535157-8.53125zm0 0"/><path d="m443.734375 256h8.53125c4.714844 0 8.535156-3.820312 8.535156-8.535156 0-4.710938-3.820312-8.53125-8.535156-8.53125h-8.53125c-4.714844 0-8.535156 3.820312-8.535156 8.53125 0 4.714844 3.820312 8.535156 8.535156 8.535156zm0 0"/><path d="m401.066406 290.132812h-59.734375c-9.425781 0-17.066406 7.640626-17.066406 17.066407v34.132812c0 9.425781 7.640625 17.066407 17.066406 17.066407h59.734375c9.425782 0 17.066406-7.640626 17.066406-17.066407v-34.132812c0-9.425781-7.640624-17.066407-17.066406-17.066407zm-59.734375 51.199219v-34.132812h59.734375v34.132812zm0 0"/><path d="m469.332031 290.132812h-25.597656c-4.714844 0-8.535156 3.820313-8.535156 8.535157 0 4.710937 3.820312 8.53125 8.535156 8.53125h25.597656c4.714844 0 8.535157-3.820313 8.535157-8.53125 0-4.714844-3.820313-8.535157-8.535157-8.535157zm0 0"/><path d="m452.265625 324.265625h-8.53125c-4.714844 0-8.535156 3.820313-8.535156 8.535156 0 4.710938 3.820312 8.53125 8.535156 8.53125h8.53125c4.714844 0 8.535156-3.820312 8.535156-8.53125 0-4.714843-3.820312-8.535156-8.535156-8.535156zm0 0"/><path d="m213.332031 256h-170.664062c-4.714844 0-8.535157 3.820312-8.535157 8.535156 0 4.710938 3.820313 8.53125 8.535157 8.53125h170.664062c4.714844 0 8.535157-3.820312 8.535157-8.53125 0-4.714844-3.820313-8.535156-8.535157-8.535156zm0 0"/><path d="m256 256h-8.535156c-4.710938 0-8.53125 3.820312-8.53125 8.535156 0 4.710938 3.820312 8.53125 8.53125 8.53125h8.535156c4.710938 0 8.535156-3.820312 8.535156-8.53125 0-4.714844-3.824218-8.535156-8.535156-8.535156zm0 0"/><path d="m59.734375 298.667969c-14.140625 0-25.601563 11.460937-25.601563 25.597656 0 14.140625 11.460938 25.601563 25.601563 25.601563 14.136719 0 25.597656-11.460938 25.597656-25.601563 0-14.136719-11.460937-25.597656-25.597656-25.597656zm0 34.132812c-4.714844 0-8.535156-3.820312-8.535156-8.535156 0-4.710937 3.820312-8.53125 8.535156-8.53125 4.710937 0 8.53125 3.820313 8.53125 8.53125 0 4.714844-3.820313 8.535156-8.53125 8.535156zm0 0"/><path d="m110.933594 315.734375h8.53125c4.714844 0 8.535156-3.820313 8.535156-8.535156 0-4.710938-3.820312-8.53125-8.535156-8.53125h-8.53125c-4.714844 0-8.535156 3.820312-8.535156 8.53125 0 4.714843 3.820312 8.535156 8.535156 8.535156zm0 0"/><path d="m162.132812 332.800781h-51.199218c-4.714844 0-8.535156 3.820313-8.535156 8.53125 0 4.714844 3.820312 8.535157 8.535156 8.535157h51.199218c4.714844 0 8.535157-3.820313 8.535157-8.535157 0-4.710937-3.820313-8.53125-8.535157-8.53125zm0 0"/><path d="m141.125 193.261719c8.113281 4.375 17.980469 3.917969 25.652344-1.195313l52.53125-34.824218c6.945312-4.597657 11.121094-12.375 11.121094-20.703126 0-8.332031-4.175782-16.109374-11.121094-20.707031l-52.53125-34.84375c-7.652344-5.082031-17.476563-5.554687-25.578125-1.226562-8.101563 4.328125-13.171875 12.753906-13.199219 21.9375v69.667969c-.003906 9.160156 5.042969 17.578124 13.125 21.894531zm3.941406-91.5625c-.003906-2.867188 1.585938-5.5 4.128906-6.824219 1.175782-.640625 2.488282-.988281 3.824219-1.007812 1.542969.011718 3.046875.484374 4.316407 1.355468l52.5 34.824219c2.183593 1.433594 3.5 3.871094 3.5 6.488281 0 2.613282-1.316407 5.050782-3.5 6.484375l-52.5 34.832031c-2.421876 1.660157-5.574219 1.804688-8.140626.375-2.542968-1.324218-4.132812-3.957031-4.128906-6.824218zm0 0"/></svg>