<svg height="512.00003pt" viewBox="0 0 512.00003 512.00003" width="512.00003pt" xmlns="http://www.w3.org/2000/svg"><path d="m34.132812 8.535156h443.734376c14.136718 0 25.597656 11.460938 25.597656 25.597656v341.332032c0 14.140625-11.460938 25.601562-25.597656 25.601562h-443.734376c-14.136718 0-25.597656-11.460937-25.597656-25.601562v-341.332032c0-14.136718 11.460938-25.597656 25.597656-25.597656zm0 0" fill="#a4c2f7"/><path d="m34.132812 8.535156h418.132813c14.140625 0 25.601563 11.460938 25.601563 25.597656v341.332032c0 14.140625-11.460938 25.601562-25.601563 25.601562h-418.132813c-14.136718 0-25.597656-11.460937-25.597656-25.601562v-341.332032c0-14.136718 11.460938-25.597656 25.597656-25.597656zm0 0" fill="#e3e7f2"/><path d="m51.199219 42.667969h238.933593c4.714844 0 8.535157 3.820312 8.535157 8.53125v170.667969c0 4.710937-3.820313 8.53125-8.535157 8.53125h-238.933593c-4.710938 0-8.53125-3.820313-8.53125-8.53125v-170.667969c0-4.710938 3.820312-8.53125 8.53125-8.53125zm0 0" fill="#e3e7f2"/><path d="m341.332031 42.667969h59.734375c4.714844 0 8.535156 3.820312 8.535156 8.53125v34.132812c0 4.714844-3.820312 8.535157-8.535156 8.535157h-59.734375c-4.710937 0-8.53125-3.820313-8.53125-8.535157v-34.132812c0-4.710938 3.820313-8.53125 8.53125-8.53125zm0 0" fill="#a4c2f7"/><path d="m341.332031 128h59.734375c4.714844 0 8.535156 3.820312 8.535156 8.535156v34.132813c0 4.710937-3.820312 8.53125-8.535156 8.53125h-59.734375c-4.710937 0-8.53125-3.820313-8.53125-8.53125v-34.132813c0-4.714844 3.820313-8.535156 8.53125-8.535156zm0 0" fill="#a4c2f7"/><path d="m341.332031 213.332031h59.734375c4.714844 0 8.535156 3.820313 8.535156 8.535157v34.132812c0 4.710938-3.820312 8.535156-8.535156 8.535156h-59.734375c-4.710937 0-8.53125-3.824218-8.53125-8.535156v-34.132812c0-4.714844 3.820313-8.535157 8.53125-8.535157zm0 0" fill="#a4c2f7"/><path d="m341.332031 298.667969h59.734375c4.714844 0 8.535156 3.820312 8.535156 8.53125v34.132812c0 4.714844-3.820312 8.535157-8.535156 8.535157h-59.734375c-4.710937 0-8.53125-3.820313-8.53125-8.535157v-34.132812c0-4.710938 3.820313-8.53125 8.53125-8.53125zm0 0" fill="#a4c2f7"/><path d="m76.800781 324.265625c0 9.425781-7.640625 17.066406-17.066406 17.066406s-17.066406-7.640625-17.066406-17.066406 7.640625-17.066406 17.066406-17.066406 17.066406 7.640625 17.066406 17.066406zm0 0" fill="#a4c2f7"/><path d="m264.535156 136.535156c.011719 24.898438-9.875 48.78125-27.480468 66.386719-17.605469 17.605469-41.488282 27.492187-66.386719 27.476563-4.285157.035156-8.566407-.277344-12.800781-.9375-46.441407-6.371094-81.050782-46.050782-81.050782-92.925782 0-46.878906 34.609375-86.558594 81.050782-92.929687 4.234374-.65625 8.515624-.972657 12.800781-.9375 24.898437-.015625 48.78125 9.871093 66.386719 27.476562 17.605468 17.605469 27.492187 41.488281 27.480468 66.390625zm0 0" fill="#a4c2f7"/><path d="m238.933594 136.535156c0-51.324218-36.296875-92.929687-81.066406-92.929687-44.773438 0-81.066407 41.605469-81.066407 92.929687 0 51.320313 36.292969 92.925782 81.066407 92.925782 44.769531 0 81.066406-41.605469 81.066406-92.925782zm0 0" fill="#e3e7f2"/><path d="m204.800781 401.066406h85.332031v51.199219h-85.332031zm0 0" fill="#7fabfa"/><path d="m358.398438 486.398438v12.800781c0 2.355469-1.910157 4.265625-4.265626 4.265625h-25.597656c2.355469 0 4.265625-1.910156 4.265625-4.265625v-12.800781c0-18.851563-15.28125-34.132813-34.132812-34.132813h25.597656c18.851563 0 34.132813 15.28125 34.132813 34.132813zm0 0" fill="#7fabfa"/><path d="m204.800781 401.066406h59.734375v51.199219h-59.734375zm0 0" fill="#e3e7f2"/><path d="m332.800781 486.398438v12.800781c0 2.355469-1.910156 4.265625-4.265625 4.265625h-187.734375c-2.355469 0-4.265625-1.910156-4.265625-4.265625v-12.800781c0-18.851563 15.28125-34.132813 34.132813-34.132813h128c18.851562 0 34.132812 15.28125 34.132812 34.132813zm0 0" fill="#e3e7f2"/><path d="m136.535156 101.699219v69.667969c.023438 6.042968 3.367188 11.582031 8.699219 14.421874 5.332031 2.839844 11.792969 2.523438 16.820313-.828124l52.5-34.835938c4.566406-3.011719 7.3125-8.121094 7.3125-13.589844 0-5.472656-2.746094-10.582031-7.3125-13.59375l-52.5-34.835937c-5.027344-3.351563-11.488282-3.667969-16.820313-.828125s-8.675781 8.378906-8.699219 14.421875zm0 0" fill="#e3e7f2"/><path d="m34.132812 401.066406h25.601563c-14.140625 0-25.601563-11.460937-25.601563-25.601562v-341.332032c0-14.136718 11.460938-25.597656 25.601563-25.597656h-25.601563c-14.136718 0-25.597656 11.460938-25.597656 25.597656v341.332032c0 14.140625 11.460938 25.601562 25.597656 25.601562zm0 0" fill="#fff"/><path d="m17.066406 34.132812v341.332032h-17.066406v-341.332032zm0 0" fill="#fff"/><g fill="#428dff"><path d="m8.535156 110.933594c2.257813-.035156 4.421875-.917969 6.058594-2.476563 3.296875-3.363281 3.296875-8.75 0-12.117187l-1.28125-1.023438c-.476562-.324218-.992188-.582031-1.535156-.765625-.484375-.246093-1.003906-.421875-1.539063-.511719-.5625-.097656-1.132812-.152343-1.703125-.171874-2.261718.03125-4.425781.917968-6.058594 2.472656-.773437.816406-1.382812 1.773437-1.792968 2.816406-1.289063 3.183594-.5859378 6.824219 1.792968 9.300781.8125.773438 1.769532 1.382813 2.8125 1.792969 1.027344.4375 2.128907.667969 3.246094.683594zm0 0"/><path d="m477.867188 0h-443.734376c-18.851562 0-34.132812 15.28125-34.132812 34.132812v34.132813c0 4.714844 3.820312 8.535156 8.535156 8.535156 4.710938 0 8.53125-3.820312 8.53125-8.535156v-34.132813c0-9.425781 7.640625-17.066406 17.066406-17.066406h443.734376c9.425781 0 17.066406 7.640625 17.066406 17.066406v341.332032c0 9.425781-7.640625 17.070312-17.066406 17.070312h-443.734376c-9.425781 0-17.066406-7.644531-17.066406-17.070312v-238.929688c0-4.714844-3.820312-8.535156-8.53125-8.535156-4.714844 0-8.535156 3.820312-8.535156 8.535156v238.929688c0 18.851562 15.28125 34.136718 34.132812 34.136718h170.667969v34.132813h-25.601562c-23.550781.027344-42.636719 19.113281-42.664063 42.664063v12.800781c0 7.070312 5.730469 12.800781 12.796875 12.800781h213.335938c7.066406 0 12.796875-5.730469 12.796875-12.800781v-12.800781c-.027344-23.550782-19.113282-42.636719-42.664063-42.664063h-25.601562v-34.132813h170.667969c18.851562 0 34.132812-15.285156 34.132812-34.136718v-341.332032c0-18.851562-15.28125-34.132812-34.132812-34.132812zm-119.46875 486.398438v8.535156h-204.796876v-8.535156c0-14.136719 11.460938-25.597657 25.597657-25.597657h153.601562c14.136719 0 25.597657 11.460938 25.597657 25.597657zm-68.265626-42.664063h-68.265624v-34.132813h68.265624zm0 0"/><path d="m307.199219 221.867188v-170.667969c0-9.425781-7.640625-17.066407-17.066407-17.066407h-238.933593c-9.425781 0-17.066407 7.640626-17.066407 17.066407v170.667969c0 9.425781 7.640626 17.066406 17.066407 17.066406h238.933593c9.425782 0 17.066407-7.640625 17.066407-17.066406zm-256 0v-170.667969h62.984375c-28.667969 18.925781-45.921875 50.980469-45.921875 85.335937 0 34.351563 17.253906 66.40625 45.921875 85.332032zm119.46875-170.667969c47.128906 0 85.332031 38.207031 85.332031 85.335937 0 47.125-38.203125 85.332032-85.332031 85.332032-47.128907 0-85.335938-38.207032-85.335938-85.332032.054688-47.109375 38.226563-85.285156 85.335938-85.335937zm102.398437 85.335937c-.027344-34.347656-17.269531-66.390625-45.917968-85.335937h62.984374v170.667969h-62.984374c28.648437-18.945313 45.890624-50.988282 45.917968-85.332032zm0 0"/><path d="m341.332031 102.398438h59.734375c9.425782 0 17.066406-7.640626 17.066406-17.066407v-34.132812c0-9.425781-7.640624-17.066407-17.066406-17.066407h-59.734375c-9.425781 0-17.066406 7.640626-17.066406 17.066407v34.132812c0 9.425781 7.640625 17.066407 17.066406 17.066407zm0-51.199219h59.734375v34.132812h-59.734375zm0 0"/><path d="m443.734375 51.199219h25.597656c4.714844 0 8.535157-3.820313 8.535157-8.53125 0-4.714844-3.820313-8.535157-8.535157-8.535157h-25.597656c-4.714844 0-8.535156 3.820313-8.535156 8.535157 0 4.710937 3.820312 8.53125 8.535156 8.53125zm0 0"/><path d="m443.734375 85.332031h8.53125c4.714844 0 8.535156-3.820312 8.535156-8.53125 0-4.714843-3.820312-8.535156-8.535156-8.535156h-8.53125c-4.714844 0-8.535156 3.820313-8.535156 8.535156 0 4.710938 3.820312 8.53125 8.535156 8.53125zm0 0"/><path d="m324.265625 170.667969c0 9.425781 7.640625 17.066406 17.066406 17.066406h59.734375c9.425782 0 17.066406-7.640625 17.066406-17.066406v-34.132813c0-9.425781-7.640624-17.070312-17.066406-17.070312h-59.734375c-9.425781 0-17.066406 7.644531-17.066406 17.070312zm17.066406-34.132813h59.734375v34.132813h-59.734375zm0 0"/><path d="m443.734375 136.535156h25.597656c4.714844 0 8.535157-3.824218 8.535157-8.535156s-3.820313-8.535156-8.535157-8.535156h-25.597656c-4.714844 0-8.535156 3.824218-8.535156 8.535156s3.820312 8.535156 8.535156 8.535156zm0 0"/><path d="m443.734375 170.667969h8.53125c4.714844 0 8.535156-3.820313 8.535156-8.535157 0-4.710937-3.820312-8.53125-8.535156-8.53125h-8.53125c-4.714844 0-8.535156 3.820313-8.535156 8.53125 0 4.714844 3.820312 8.535157 8.535156 8.535157zm0 0"/><path d="m324.265625 256c0 9.425781 7.640625 17.066406 17.066406 17.066406h59.734375c9.425782 0 17.066406-7.640625 17.066406-17.066406v-34.132812c0-9.425782-7.640624-17.066407-17.066406-17.066407h-59.734375c-9.425781 0-17.066406 7.640625-17.066406 17.066407zm17.066406-34.132812h59.734375v34.132812h-59.734375zm0 0"/><path d="m443.734375 221.867188h25.597656c4.714844 0 8.535157-3.820313 8.535157-8.535157 0-4.710937-3.820313-8.53125-8.535157-8.53125h-25.597656c-4.714844 0-8.535156 3.820313-8.535156 8.53125 0 4.714844 3.820312 8.535157 8.535156 8.535157zm0 0"/><path d="m443.734375 256h8.53125c4.714844 0 8.535156-3.820312 8.535156-8.535156 0-4.710938-3.820312-8.53125-8.535156-8.53125h-8.53125c-4.714844 0-8.535156 3.820312-8.535156 8.53125 0 4.714844 3.820312 8.535156 8.535156 8.535156zm0 0"/><path d="m324.265625 341.332031c0 9.425781 7.640625 17.066407 17.066406 17.066407h59.734375c9.425782 0 17.066406-7.640626 17.066406-17.066407v-34.132812c0-9.425781-7.640624-17.066407-17.066406-17.066407h-59.734375c-9.425781 0-17.066406 7.640626-17.066406 17.066407zm17.066406-34.132812h59.734375v34.132812h-59.734375zm0 0"/><path d="m443.734375 307.199219h25.597656c4.714844 0 8.535157-3.820313 8.535157-8.53125 0-4.714844-3.820313-8.535157-8.535157-8.535157h-25.597656c-4.714844 0-8.535156 3.820313-8.535156 8.535157 0 4.710937 3.820312 8.53125 8.535156 8.53125zm0 0"/><path d="m443.734375 341.332031h8.53125c4.714844 0 8.535156-3.820312 8.535156-8.53125 0-4.714843-3.820312-8.535156-8.535156-8.535156h-8.53125c-4.714844 0-8.535156 3.820313-8.535156 8.535156 0 4.710938 3.820312 8.53125 8.535156 8.53125zm0 0"/><path d="m42.667969 273.066406h170.664062c4.714844 0 8.535157-3.820312 8.535157-8.53125 0-4.714844-3.820313-8.535156-8.535157-8.535156h-170.664062c-4.714844 0-8.535157 3.820312-8.535157 8.535156 0 4.710938 3.820313 8.53125 8.535157 8.53125zm0 0"/><path d="m247.464844 256c-4.710938 0-8.53125 3.820312-8.53125 8.535156 0 4.710938 3.820312 8.53125 8.53125 8.53125h8.535156c4.710938 0 8.535156-3.820312 8.535156-8.53125 0-4.714844-3.824218-8.535156-8.535156-8.535156zm0 0"/><path d="m59.734375 349.867188c14.136719 0 25.597656-11.460938 25.597656-25.601563 0-14.136719-11.460937-25.597656-25.597656-25.597656-14.140625 0-25.601563 11.460937-25.601563 25.597656 0 14.140625 11.460938 25.601563 25.601563 25.601563zm0-34.132813c4.710937 0 8.53125 3.820313 8.53125 8.53125 0 4.714844-3.820313 8.535156-8.53125 8.535156-4.714844 0-8.535156-3.820312-8.535156-8.535156 0-4.710937 3.820312-8.53125 8.535156-8.53125zm0 0"/><path d="m110.933594 315.734375h8.53125c4.714844 0 8.535156-3.820313 8.535156-8.535156 0-4.710938-3.820312-8.53125-8.535156-8.53125h-8.53125c-4.714844 0-8.535156 3.820312-8.535156 8.53125 0 4.714843 3.820312 8.535156 8.535156 8.535156zm0 0"/><path d="m110.933594 349.867188h51.199218c4.714844 0 8.535157-3.820313 8.535157-8.535157 0-4.710937-3.820313-8.53125-8.535157-8.53125h-51.199218c-4.714844 0-8.535156 3.820313-8.535156 8.53125 0 4.714844 3.820312 8.535157 8.535156 8.535157zm0 0"/><path d="m141.125 193.261719c8.113281 4.375 17.980469 3.917969 25.652344-1.195313l52.53125-34.824218c6.945312-4.597657 11.121094-12.375 11.121094-20.703126 0-8.332031-4.175782-16.109374-11.121094-20.707031l-52.53125-34.84375c-7.652344-5.082031-17.476563-5.554687-25.578125-1.226562-8.101563 4.328125-13.171875 12.753906-13.199219 21.9375v69.667969c-.003906 9.160156 5.042969 17.578124 13.125 21.894531zm3.941406-91.5625c-.003906-2.867188 1.585938-5.5 4.128906-6.824219 1.175782-.640625 2.488282-.988281 3.824219-1.007812 1.542969.011718 3.046875.484374 4.316407 1.355468l52.5 34.824219c2.183593 1.433594 3.5 3.871094 3.5 6.488281 0 2.613282-1.316407 5.050782-3.5 6.484375l-52.5 34.832031c-2.421876 1.660157-5.574219 1.804688-8.140626.375-2.542968-1.324218-4.132812-3.957031-4.128906-6.824218zm0 0"/></g></svg>